SplineFontDB: 1.0
FontName: Garuda-Oblique
FullName: Garuda Oblique
FamilyName: Garuda
Weight: Book
Copyright: Generated by NECTEC for Public Domain\n\nModified by TLWG
Version: 1.1 :  May 12, 2003
ItalicAngle: -12
UnderlinePosition: -55
UnderlineWidth: 20
Ascent: 1721
Descent: 327
NeedsXUIDChange: 1
FSType: 0
PfmFamily: 33
TTFWeight: 400
TTFWidth: 5
Panose: 2 11 6 4 2 2 2 2 2 4
LineGap: 0
VLineGap: 0
LangName: 1033 "" "" "" "Garuda Oblique" 
Encoding: compacted
OldEncoding: iso8859_1
DisplaySize: -72
AntiAlias: 1
WinInfo: 0 8 2
BeginChars: 344 342
StartChar: .notdef
Encoding: 0 -1
OldEncoding: 0
Width: 1024
Flags: W
Fore
128 0 m 1
 128 1721 l 1
 896 1721 l 1
 896 0 l 1
 128 0 l 1
256 128 m 1
 768 128 l 1
 768 1593 l 1
 256 1593 l 1
 256 128 l 1
EndSplineSet
EndChar
StartChar: exclam
Encoding: 2 33
OldEncoding: 33
Width: 371
Flags: W
Fore
202 238 m 1
 273 745 l 1
 318 957 l 1
 463 957 l 1
 418 745 l 1
 278 238 l 1
 202 238 l 1
120 0 m 1
 148 134 l 1
 283 134 l 1
 255 0 l 1
 120 0 l 1
EndSplineSet
EndChar
StartChar: quotedbl
Encoding: 3 34
OldEncoding: 34
Width: 475
Flags: W
Fore
225 618 m 1
 231 800 l 1
 264 957 l 1
 398 957 l 1
 365 800 l 1
 297 618 l 1
 225 618 l 1
441 618 m 1
 448 800 l 1
 481 957 l 1
 615 957 l 1
 582 800 l 1
 512 618 l 1
 441 618 l 1
EndSplineSet
EndChar
StartChar: numbersign
Encoding: 4 35
OldEncoding: 35
Width: 744
Flags: W
Fore
64 -16 m 1
 180 262 l 1
 70 262 l 1
 90 359 l 1
 220 359 l 1
 319 596 l 1
 141 596 l 1
 161 693 l 1
 359 693 l 1
 475 973 l 1
 573 973 l 1
 456 693 l 1
 662 693 l 1
 779 973 l 1
 877 973 l 1
 761 693 l 1
 874 693 l 1
 854 596 l 1
 721 596 l 1
 621 359 l 1
 803 359 l 1
 783 262 l 1
 582 262 l 1
 466 -16 l 1
 368 -16 l 1
 483 262 l 1
 278 262 l 1
 162 -16 l 1
 64 -16 l 1
318 359 m 1
 523 359 l 1
 622 596 l 1
 417 596 l 1
 318 359 l 1
EndSplineSet
EndChar
StartChar: dollar
Encoding: 5 36
OldEncoding: 36
Width: 744
Flags: W
Fore
304 -138 m 1
 329 -20 l 1
 176.333 -0.666667 100 74.6667 100 206 c 0
 100 224.667 101.667 244.667 105 266 c 1
 227 288 l 1
 226.333 275.333 226 263.333 226 252 c 0
 226 148 267.333 90.3333 350 79 c 1
 429 453 l 1
 285.667 486.333 214 554 214 656 c 0
 214 676.667 216.333 698.667 221 722 c 0
 255.667 882.667 363 971.667 543 989 c 1
 555 1045 l 1
 624 1045 l 1
 612 989 l 1
 749.333 975 818 905.333 818 780 c 0
 818 771.333 817.667 762.333 817 753 c 1
 692 735 l 1
 697.333 822.333 663.667 874 591 890 c 1
 519 551 l 1
 619.667 529 685.333 494.333 716 447 c 0
 736 415 746 378.333 746 337 c 0
 746 316.333 743.667 294.667 739 272 c 0
 721.667 190 681.333 122 618 68 c 0
 554.667 14 481.333 -15 398 -19 c 1
 373 -138 l 1
 304 -138 l 1
522 891 m 1
 478 884.333 439 866.667 405 838 c 0
 371 809.333 349.333 773.667 340 731 c 0
 337.333 718.333 336 706.333 336 695 c 0
 336 633.667 375 590.667 453 566 c 1
 522 891 l 1
419 79 m 1
 467.667 85 510.167 105.167 546.5 139.5 c 0
 582.833 173.833 606 215.333 616 264 c 0
 619.333 279.333 621 293.667 621 307 c 0
 621 365.667 579 409 495 437 c 1
 419 79 l 1
EndSplineSet
EndChar
StartChar: percent
Encoding: 6 37
OldEncoding: 37
Width: 1189
Flags: W
Fore
233 727 m 0
 253.667 825.667 299 897 369 941 c 0
 404.333 962.333 443.333 973 486 973 c 0
 564.667 973 616 937.667 640 867 c 0
 646.667 847.667 650 826 650 802 c 0
 650 777.333 646.667 750 640 720 c 0
 625.333 649.333 596.333 591 553 545 c 0
 505 493 447 467 379 467 c 0
 274.333 467 222 524.333 222 639 c 0
 222 665.667 225.667 695 233 727 c 0
472 892 m 0
 404 892 357.333 833 332 715 c 0
 326 687 323 662.667 323 642 c 0
 322.333 579.333 347.333 548 398 548 c 0
 466.667 548 513.667 607 539 725 c 0
 545 753.667 548 778.667 548 800 c 0
 548 861.333 522.667 892 472 892 c 0
276 -35 m 1
 1013 973 l 1
 1109 973 l 1
 373 -35 l 1
 276 -35 l 1
745 225 m 0
 766.333 326.333 813 398.333 885 441 c 0
 919 461 956.667 471 998 471 c 0
 1107.33 471 1162 413.333 1162 298 c 0
 1162 273.333 1158.67 246.333 1152 217 c 0
 1137.33 146.333 1108.33 88 1065 42 c 0
 1017 -9.33333 959.333 -35 892 -35 c 0
 814 -35 764 1 742 73 c 0
 736.667 91 734 111.667 734 135 c 0
 734 161.667 737.667 191.667 745 225 c 0
985 390 m 0
 916.333 390 869.333 331 844 213 c 0
 838 185 835 160.333 835 139 c 0
 835 77 860.333 46 911 46 c 0
 979.667 46 1026.33 104.667 1051 222 c 0
 1057 251.333 1060 276.667 1060 298 c 0
 1060 359.333 1035 390 985 390 c 0
EndSplineSet
EndChar
StartChar: ampersand
Encoding: 7 38
OldEncoding: 38
Width: 892
Flags: W
Fore
659 113 m 1
 563.667 27 463 -16 357 -16 c 0
 241.667 -16 164.333 29.3333 125 120 c 0
 113 148 107 177.667 107 209 c 0
 107 227 109 245.333 113 264 c 0
 138.333 382 234.667 477.333 402 550 c 1
 358 617.333 336 676.333 336 727 c 0
 336 798.333 371 860 441 912 c 0
 495.667 952.667 556 973 622 973 c 0
 708.667 973 766.333 940 795 874 c 0
 802.333 855.333 806 835 806 813 c 0
 806 799 804.333 784.333 801 769 c 0
 782.333 678.333 705.667 600.667 571 536 c 1
 696 317 l 1
 724 355.667 748.667 400 770 450 c 1
 886 424 l 1
 848 340.667 805.333 272 758 218 c 1
 789.333 160 828.667 111 876 71 c 1
 777 -22 l 1
 736.333 8.66667 697 53.6667 659 113 c 1
526 612 m 1
 631.333 666.667 684 726.333 684 791 c 0
 684 848.333 654.333 877 595 877 c 0
 563.667 877 535.333 867 510 847 c 0
 484.667 827 468.667 801.667 462 771 c 0
 455.333 740.333 463.667 707.333 487 672 c 2
 526 612 l 1
605 206 m 1
 447 473 l 1
 325 408.333 256.667 341 242 271 c 0
 231.333 222.333 239.333 179.5 266 142.5 c 0
 292.667 105.5 330.667 87 380 87 c 0
 462 87 537 126.667 605 206 c 1
EndSplineSet
EndChar
StartChar: quotesingle
Encoding: 8 39
OldEncoding: 39
Width: 255
Flags: W
Fore
220 618 m 1
 228 797 l 1
 262 957 l 1
 396 957 l 1
 362 797 l 1
 292 618 l 1
 220 618 l 1
EndSplineSet
EndChar
StartChar: parenleft
Encoding: 9 40
OldEncoding: 40
Width: 445
Flags: W
Fore
253 -281 m 1
 173.667 -144.333 134 -0.666667 134 150 c 0
 134 215.333 141 281 155 347 c 0
 199.667 558.333 321.333 767 520 973 c 1
 604 973 l 1
 428.667 759.667 319.333 550.667 276 346 c 0
 260.667 274.667 253 203 253 131 c 0
 253 -6.33333 281 -143.667 337 -281 c 1
 253 -281 l 1
EndSplineSet
EndChar
StartChar: parenright
Encoding: 10 41
OldEncoding: 41
Width: 445
Flags: W
Fore
105 -281 m 1
 21 -281 l 1
 195.667 -72.3333 305.333 136.667 350 346 c 0
 365.333 420.667 373.333 493.667 374 565 c 0
 374.667 679 346 815 288 973 c 1
 372 973 l 1
 452 824.333 491.333 674 490 522 c 0
 489.333 464 483 405.667 471 347 c 0
 423.667 124.333 301.667 -85 105 -281 c 1
EndSplineSet
EndChar
StartChar: asterisk
Encoding: 11 42
OldEncoding: 42
Width: 520
Flags: W
Fore
208 781 m 1
 258 874 l 1
 322 850 367.667 829 395 811 c 1
 403 889.667 410.333 943.667 417 973 c 1
 511 973 l 1
 500.333 930.333 483.667 876.333 461 811 c 1
 511 833.667 567 854.667 629 874 c 1
 639 781 l 1
 579.667 763 523 751 469 745 c 1
 491 721.667 519.667 680.333 555 621 c 1
 465 566 l 1
 447 600.667 427 647.333 405 706 c 1
 360.333 644.667 322 598 290 566 c 1
 225 621 l 1
 289 683.667 334 725 360 745 c 1
 306.667 755.667 256 767.667 208 781 c 1
EndSplineSet
EndChar
StartChar: plus
Encoding: 12 43
OldEncoding: 43
Width: 781
Flags: W
Fore
368 155 m 1
 424 417 l 1
 163 417 l 1
 186 527 l 1
 447 527 l 1
 502 787 l 1
 613 787 l 1
 558 527 l 1
 818 527 l 1
 795 417 l 1
 535 417 l 1
 479 155 l 1
 368 155 l 1
EndSplineSet
EndChar
StartChar: comma
Encoding: 13 44
OldEncoding: 44
Width: 371
Flags: W
Fore
119 0 m 1
 147 134 l 1
 281 134 l 1
 253 0 l 2
 233 -94.6667 183.333 -157.667 104 -189 c 1
 81 -139 l 1
 133 -118.333 167.667 -72 185 0 c 1
 119 0 l 1
EndSplineSet
EndChar
StartChar: hyphen
Encoding: 14 45
OldEncoding: 45
Width: 445
Flags: W
Fore
103 287 m 1
 128 405 l 1
 489 405 l 1
 464 287 l 1
 103 287 l 1
EndSplineSet
EndChar
StartChar: period
Encoding: 15 46
OldEncoding: 46
Width: 371
Flags: W
Fore
121 0 m 1
 149 134 l 1
 283 134 l 1
 255 0 l 1
 121 0 l 1
EndSplineSet
EndChar
StartChar: slash
Encoding: 16 47
OldEncoding: 47
Width: 371
Flags: W
Fore
-3 -16 m 1
 484 973 l 1
 578 973 l 1
 92 -16 l 1
 -3 -16 l 1
EndSplineSet
EndChar
StartChar: zero
Encoding: 17 48
OldEncoding: 48
Width: 744
Flags: W
Fore
155 472 m 0
 224.333 798 363.333 961 572 961 c 0
 728.667 961 806.667 868.667 806 684 c 0
 806 624 797.333 553.333 780 472 c 0
 711.333 146.667 573 -16 365 -16 c 0
 208.333 -16 130 75.6667 130 259 c 0
 130 320.333 138.333 391.333 155 472 c 0
276 472 m 0
 259.333 392.667 251 325.667 251 271 c 0
 251 143.667 295.667 80 385 80 c 0
 512.333 80 603.667 210.667 659 472 c 0
 675.667 550.667 684 617.667 684 673 c 0
 684 800.333 639.333 864 550 864 c 0
 423.333 864 332 733.333 276 472 c 0
EndSplineSet
EndChar
StartChar: one
Encoding: 18 49
OldEncoding: 49
Width: 744
Flags: W
Fore
498 0 m 1
 381 0 l 1
 540 749 l 1
 464.667 689 376.333 641.667 275 607 c 1
 299 721 l 1
 449.667 785 558.667 865 626 961 c 1
 702 961 l 1
 498 0 l 1
EndSplineSet
EndChar
StartChar: two
Encoding: 19 50
OldEncoding: 50
Width: 744
Flags: W
Fore
694 113 m 1
 670 0 l 1
 37 0 l 1
 58.3333 101.333 165 219.333 357 354 c 0
 433 406.667 483.667 443 509 463 c 0
 564.333 507.667 608.667 551 642 593 c 0
 681.333 643 701 690.667 701 736 c 0
 701 777.333 685.667 809.333 655 832 c 0
 627.667 853.333 593.333 864 552 864 c 0
 428 864 351.667 800 323 672 c 1
 205 684 l 1
 261 868.667 384 961 574 961 c 0
 662 961 728.667 937 774 889 c 0
 807.333 853.667 824 810 824 758 c 0
 824 688.667 796.333 617.333 741 544 c 0
 700.333 489.333 603 407 449 297 c 0
 373 242.333 333.667 214 331 212 c 0
 286.333 178 251 145 225 113 c 1
 694 113 l 1
EndSplineSet
EndChar
StartChar: three
Encoding: 20 51
OldEncoding: 51
Width: 744
Flags: W
Fore
110 253 m 1
 231 268 l 1
 229.667 142.667 278.667 80 378 80 c 0
 454 80 518 112.667 570 178 c 0
 593.333 207.333 609.333 241.333 618 280 c 0
 621.333 296 623 311.333 623 326 c 0
 623 369.333 608.333 404 579 430 c 0
 551 454 514.667 466 470 466 c 0
 447.333 466 418.667 461.667 384 453 c 1
 419 556 l 1
 447 555 l 2
 463 554.333 483.667 557 509 563 c 0
 597 583.667 649.667 634.333 667 715 c 0
 669.667 728.333 671 740.667 671 752 c 0
 671 826.667 628 864 542 864 c 0
 444.667 864 374.667 806.667 332 692 c 1
 220 713 l 1
 284.667 878.333 398 961 560 961 c 0
 640 961 702 938 746 892 c 0
 778 858 794 816.667 794 768 c 0
 794 750 791.667 731.333 787 712 c 0
 768.333 623.333 710.667 558.667 614 518 c 1
 705.333 496 751 441 751 353 c 0
 751 331.667 748.333 308.333 743 283 c 0
 724.333 194.333 677.667 121.667 603 65 c 0
 531 10.3333 448.667 -17 356 -17 c 0
 243.333 -17 167.333 25.3333 128 110 c 0
 114 140 107 174 107 212 c 0
 107 225.333 108 239 110 253 c 1
EndSplineSet
EndChar
StartChar: four
Encoding: 21 52
OldEncoding: 52
Width: 744
Flags: W
Fore
432 0 m 1
 481 229 l 1
 66 229 l 1
 89 337 l 1
 657 957 l 1
 753 957 l 1
 622 337 l 1
 751 337 l 1
 728 229 l 1
 599 229 l 1
 550 0 l 1
 432 0 l 1
504 337 m 1
 595 768 l 1
 205 337 l 1
 504 337 l 1
EndSplineSet
EndChar
StartChar: five
Encoding: 22 53
OldEncoding: 53
Width: 744
Flags: W
Fore
108 251 m 1
 234 261 l 1
 226.667 140.333 275.333 80 380 80 c 0
 453.333 80 517.333 114.333 572 183 c 0
 600.667 219 620.667 262.667 632 314 c 0
 636.667 336 639 356.333 639 375 c 0
 639 479 584 531 474 531 c 0
 397.333 531 332.667 500 280 438 c 1
 172 452 l 1
 370 944 l 1
 846 944 l 1
 822 832 l 1
 440 832 l 1
 334 574 l 1
 400 614.667 464.333 635 527 635 c 0
 644.333 635 720 585 754 485 c 0
 763.333 459 768 431 768 401 c 0
 768 377 765 351.333 759 324 c 0
 729.667 188 654.667 88.6667 534 26 c 0
 481.333 -2 423.333 -16 360 -16 c 0
 284 -16 223.333 3 178 41 c 0
 130 81 106 138 106 212 c 0
 106 224.667 106.667 237.667 108 251 c 1
EndSplineSet
EndChar
StartChar: six
Encoding: 23 54
OldEncoding: 54
Width: 744
Flags: W
Fore
819 723 m 1
 700 714 l 1
 700 814 656.667 864 570 864 c 0
 425.333 864 326 740.667 272 494 c 1
 346 578.667 432.667 621 532 621 c 0
 642 621 713 571 745 471 c 0
 753 445.667 757 418.667 757 390 c 0
 757 365.333 754 339 748 311 c 0
 728 217.667 685.667 140.667 621 80 c 0
 553 16 472.667 -16 380 -16 c 0
 208.667 -16 123 76 123 260 c 0
 123 314.667 130.333 377.333 145 448 c 0
 217.667 790 368.667 961 598 961 c 0
 700 961 767.667 924.667 801 852 c 0
 813.667 824 820 791 820 753 c 0
 820 743.667 819.667 733.667 819 723 c 1
251 310 m 0
 246.333 288 244 267.333 244 248 c 0
 244 210 253 176.333 271 147 c 0
 297.667 102.333 340 80 398 80 c 0
 456 80 506.667 103.667 550 151 c 0
 588 192.333 613.667 243.333 627 304 c 0
 635.667 347.333 635.667 385 627 417 c 0
 607.667 483.667 560.667 517 486 517 c 0
 411.333 517 349.333 484.333 300 419 c 0
 276 387.667 259.667 351.333 251 310 c 0
EndSplineSet
EndChar
StartChar: seven
Encoding: 24 55
OldEncoding: 55
Width: 744
Flags: W
Fore
240 832 m 1
 264 945 l 1
 884 945 l 1
 864 853 l 1
 742 747 631.333 617.333 532 464 c 0
 431.333 308 360 153.333 318 0 c 1
 197 0 l 1
 231 144 297 294 395 450 c 0
 487.667 596.667 592.333 724 709 832 c 1
 240 832 l 1
EndSplineSet
EndChar
StartChar: eight
Encoding: 25 56
OldEncoding: 56
Width: 744
Flags: W
Fore
346 519 m 1
 274.667 547.667 239 596 239 664 c 0
 239 680 241 696.667 245 714 c 0
 264.333 805.333 319.333 875.333 410 924 c 0
 457.333 948.667 511.333 961 572 961 c 0
 679.333 961 751 922.667 787 846 c 0
 797.667 822.667 803 796.333 803 767 c 0
 803 749.667 801 731 797 711 c 0
 777.667 618.333 717 554.333 615 519 c 1
 705.667 487 751 427.667 751 341 c 0
 751 320.333 748.333 298 743 274 c 0
 724.333 186.667 679.5 116.5 608.5 63.5 c 0
 537.5 10.5 456.667 -16 366 -16 c 0
 274 -16 204 11.3333 156 66 c 0
 122 104.667 105 152 105 208 c 0
 105 230 107.667 253 113 277 c 0
 140.333 406.333 218 487 346 519 c 1
361 680 m 0
 361 602.667 404 564 490 564 c 0
 534.667 564 574.667 577.833 610 605.5 c 0
 645.333 633.167 667.333 668.667 676 712 c 0
 678.667 723.333 680 734.667 680 746 c 0
 680 782 668 810.667 644 832 c 0
 620 853.333 589.667 864 553 864 c 0
 492.333 864 441.667 840 401 792 c 0
 374.333 760 361 722.667 361 680 c 0
234 276 m 0
 230 258 228 241 228 225 c 0
 228 180.333 243.667 144.667 275 118 c 0
 304.333 92.6667 342 80 388 80 c 0
 444.667 80 495 98 539 134 c 0
 583 170 611 216 623 272 c 0
 639 349.333 619.333 406.333 564 443 c 0
 537.333 459.667 504.667 468 466 468 c 0
 394.667 468 334 439 284 381 c 0
 259.333 351.667 242.667 316.667 234 276 c 0
EndSplineSet
EndChar
StartChar: nine
Encoding: 26 57
OldEncoding: 57
Width: 744
Flags: W
Fore
120 221 m 1
 235 232 l 1
 231.667 130.667 274 80 362 80 c 0
 458 80 536.667 138 598 254 c 0
 623.333 300 640.333 344.667 649 388 c 1
 663 450 l 1
 592.333 366 507.333 324 408 324 c 0
 324.667 324 262.667 354 222 414 c 0
 194.667 454 181 501.333 181 556 c 0
 181 582 184.333 609.333 191 638 c 0
 218.333 768 286.667 862.333 396 921 c 0
 446 947.667 500.667 961 560 961 c 0
 688 961 769.333 901.667 804 783 c 0
 811.333 758.333 815 728.333 815 693 c 0
 815 639.667 807 574.667 791 498 c 0
 718.333 155.333 567.667 -16 339 -16 c 0
 242.333 -16 176 18 140 86 c 0
 125.333 114 118 148 118 188 c 0
 118 198.667 118.667 209.667 120 221 c 1
691 644 m 0
 695.667 666 698 686.667 698 706 c 0
 698 741.333 690 773 674 801 c 0
 650 843 610.333 864 555 864 c 0
 487 864 427.667 833.333 377 772 c 0
 329 714 305 650.667 305 582 c 0
 305 546 314.667 514.333 334 487 c 0
 361.333 447.667 403 428 459 428 c 0
 519 428 570.333 449.667 613 493 c 0
 651.667 532.333 677.667 582.667 691 644 c 0
EndSplineSet
EndChar
StartChar: colon
Encoding: 27 58
OldEncoding: 58
Width: 371
Flags: W
Fore
240 559 m 1
 268 693 l 1
 402 693 l 1
 374 559 l 1
 240 559 l 1
121 0 m 1
 149 134 l 1
 283 134 l 1
 255 0 l 1
 121 0 l 1
EndSplineSet
EndChar
StartChar: semicolon
Encoding: 28 59
OldEncoding: 59
Width: 371
Flags: W
Fore
238 559 m 1
 266 693 l 1
 400 693 l 1
 372 559 l 1
 238 559 l 1
119 0 m 1
 147 134 l 1
 281 134 l 1
 253 0 l 2
 233 -94.6667 183.333 -157.667 104 -189 c 1
 81 -139 l 1
 133 -118.333 167.667 -72 185 0 c 1
 119 0 l 1
EndSplineSet
EndChar
StartChar: less
Encoding: 29 60
OldEncoding: 60
Width: 781
Flags: W
Fore
162 418 m 1
 185 528 l 1
 876 796 l 1
 851 679 l 1
 305 473 l 1
 763 264 l 1
 738 148 l 1
 162 418 l 1
EndSplineSet
EndChar
StartChar: equal
Encoding: 30 61
OldEncoding: 61
Width: 781
Flags: W
Fore
826 563 m 1
 194 563 l 1
 217 672 l 1
 849 672 l 1
 826 563 l 1
764 272 m 1
 132 272 l 1
 155 382 l 1
 787 382 l 1
 764 272 l 1
EndSplineSet
EndChar
StartChar: greater
Encoding: 31 62
OldEncoding: 62
Width: 781
Flags: W
Fore
796 418 m 1
 104 148 l 1
 129 264 l 1
 676 473 l 1
 217 679 l 1
 242 796 l 1
 819 528 l 1
 796 418 l 1
EndSplineSet
EndChar
StartChar: question
Encoding: 32 63
OldEncoding: 63
Width: 744
Flags: W
Fore
358 236 m 1
 366 276 l 1
 374.667 324 394 369.333 424 412 c 0
 438 431.333 454 449.667 472 467 c 1
 524 503.667 590.667 559.667 672 635 c 1
 697.333 666.333 710 701.667 710 741 c 0
 710 781.667 694.333 815 663 841 c 0
 633.667 865 598.333 877 557 877 c 0
 449.667 877 372.333 812.333 325 683 c 1
 207 697 l 1
 268.333 881 391.333 973 576 973 c 0
 698 973 778.333 931 817 847 c 0
 828.333 823 834 796.667 834 768 c 0
 834 750 831.667 731.333 827 712 c 0
 815 655.333 779.333 602.5 720 553.5 c 0
 660.667 504.5 607 457 559 411 c 0
 519 373 489.667 314.667 471 236 c 1
 358 236 l 1
301 0 m 1
 329 134 l 1
 463 134 l 1
 435 0 l 1
 301 0 l 1
EndSplineSet
EndChar
StartChar: at
Encoding: 33 64
OldEncoding: 64
Width: 1357
Flags: W
Fore
781 106 m 1
 703 34 628.333 -2 557 -2 c 0
 485 -2 433.667 27.3333 403 86 c 0
 383.667 124 374 166 374 212 c 0
 374 306.667 409.667 403 481 501 c 0
 582.333 639 692 708 810 708 c 0
 892.667 708 950 668 982 588 c 1
 1025 689 l 1
 1142 689 l 1
 955 251 l 1
 930.333 191.667 917 157.667 915 149 c 0
 909 120.333 921 106 951 106 c 0
 997 106 1057.67 139.833 1133 207.5 c 0
 1208.33 275.167 1257 361.667 1279 467 c 0
 1286.33 500.333 1290 532 1290 562 c 0
 1290 646 1261.67 715 1205 769 c 0
 1129 842.333 1027.67 879 901 879 c 0
 748.333 879 610.667 829.667 488 731 c 0
 356 624.333 272 486.333 236 317 c 0
 226 267.667 221 221.667 221 179 c 0
 221 33.6667 283.333 -68.6667 408 -128 c 0
 488.667 -166 583.333 -185 692 -185 c 0
 906.667 -185 1074 -119.333 1194 12 c 1
 1312 12 l 1
 1246.67 -84 1152.33 -158 1029 -210 c 0
 917.667 -257.333 799 -281 673 -281 c 0
 403.667 -281 231 -194.333 155 -21 c 0
 131 31.6667 119.333 92 120 160 c 0
 120 205.333 125.667 254 137 306 c 0
 177.667 498 274.333 661 427 795 c 0
 564.333 915 730.667 975 926 975 c 0
 1102.67 975 1229 924.333 1305 823 c 0
 1360.33 749 1388 666 1388 574 c 0
 1388 539.333 1384 503 1376 465 c 0
 1352 353 1293 249 1199 153 c 0
 1097 49 991.667 -3 883 -3 c 0
 813 -3 778 24 778 78 c 0
 778 86.6667 779 96 781 106 c 1
502 283 m 0
 498 263 496 244 496 226 c 0
 496 198 501.333 172.667 512 150 c 0
 529.333 113.333 559.333 95 602 95 c 0
 672 95 739 133.333 803 210 c 0
 858.333 276.667 894 348 910 424 c 0
 914 444 916 462.333 916 479 c 0
 916 566.333 876.667 610 798 610 c 0
 730 610 665.333 571.333 604 494 c 0
 552 428 518 357.667 502 283 c 0
EndSplineSet
EndChar
StartChar: A
Encoding: 34 65
OldEncoding: 65
Width: 892
Flags: W
Fore
-2 0 m 1
 569 957 l 1
 705 957 l 1
 894 0 l 1
 749 0 l 1
 700 290 l 1
 300 290 l 1
 133 0 l 1
 -2 0 l 1
358 393 m 1
 683 393 l 1
 639 658 l 2
 624.333 745.333 615.667 811.333 613 856 c 1
 588.333 796 558 735.333 522 674 c 2
 358 393 l 1
EndSplineSet
EndChar
StartChar: B
Encoding: 35 66
OldEncoding: 66
Width: 892
Flags: W
Fore
98 0 m 1
 301 957 l 1
 660 957 l 2
 770.667 957 846.333 933 887 885 c 0
 916.333 849 931 808 931 762 c 0
 931 746 929 729.333 925 712 c 0
 905.667 620.667 846.667 553 748 509 c 1
 840.667 480.333 887 423.333 887 338 c 0
 887 319.333 884.667 299 880 277 c 0
 840.667 92.3333 701.667 -6.93889e-18 463 0 c 2
 98 0 l 1
343 555 m 1
 550 555 l 2
 644.667 555 711.333 572.667 750 608 c 0
 774 630 790 659.667 798 697 c 0
 801.333 712.333 803 726.333 803 739 c 0
 803 791 777.667 822.667 727 834 c 0
 697 840.667 653 844 595 844 c 2
 404 844 l 1
 343 555 l 1
249 113 m 1
 487 113 l 2
 555 113 608.333 122.333 647 141 c 0
 700.333 167 734 212.333 748 277 c 0
 751.333 292.333 753 306.333 753 319 c 0
 753 351.667 743.333 378.333 724 399 c 0
 696.667 427.667 635.333 442 540 442 c 2
 319 442 l 1
 249 113 l 1
EndSplineSet
EndChar
StartChar: C
Encoding: 36 67
OldEncoding: 67
Width: 965
Flags: W
Fore
857 336 m 1
 978 304 l 1
 878 90.6667 723 -16 513 -16 c 0
 359 -16 255.667 32.3333 203 129 c 0
 170.333 189.667 154 259.667 154 339 c 0
 154 385 159.333 434 170 486 c 0
 200.667 630.667 263.667 746.667 359 834 c 0
 459 926.667 581 973 725 973 c 0
 923 973 1029.33 880.333 1044 695 c 1
 913 665 l 1
 899 798.333 828 865 700 865 c 0
 590.667 865 500.667 828 430 754 c 0
 367.333 688.667 324 599.333 300 486 c 0
 288.667 432 283 384 283 342 c 0
 283 275.333 297 223.333 325 186 c 0
 371 123.333 438 92 526 92 c 0
 677.333 92 787.667 173.333 857 336 c 1
EndSplineSet
EndChar
StartChar: D
Encoding: 37 68
OldEncoding: 68
Width: 965
Flags: W
Fore
103 0 m 1
 306 957 l 1
 636 957 l 2
 775.333 957 872.667 930.667 928 878 c 0
 985.333 822.667 1014 741.667 1014 635 c 0
 1014 589 1008.33 538.667 997 484 c 0
 928.333 161.333 745.333 1.38778e-17 448 0 c 2
 103 0 l 1
254 113 m 1
 458 113 l 2
 536.667 113 599.667 123.667 647 145 c 0
 703 169.667 749.667 212.667 787 274 c 0
 823 331.333 849.667 402 867 486 c 0
 879.667 544.667 885 596 883 640 c 0
 878.333 728.667 843.667 788.667 779 820 c 0
 746.333 836 690 844 610 844 c 2
 409 844 l 1
 254 113 l 1
EndSplineSet
EndChar
StartChar: E
Encoding: 38 69
OldEncoding: 69
Width: 892
Flags: W
Fore
106 0 m 1
 309 957 l 1
 1001 957 l 1
 977 844 l 1
 411 844 l 1
 349 551 l 1
 879 551 l 1
 855 439 l 1
 325 439 l 1
 256 113 l 1
 844 113 l 1
 820 0 l 1
 106 0 l 1
EndSplineSet
EndChar
StartChar: F
Encoding: 39 70
OldEncoding: 70
Width: 817
Flags: W
Fore
110 0 m 1
 313 957 l 1
 958 957 l 1
 934 844 l 1
 415 844 l 1
 352 548 l 1
 801 548 l 1
 777 435 l 1
 328 435 l 1
 236 0 l 1
 110 0 l 1
EndSplineSet
EndChar
StartChar: G
Encoding: 40 71
OldEncoding: 71
Width: 1040
Flags: W
Fore
631 375 m 1
 655 488 l 1
 1060 488 l 1
 984 133 l 1
 838.667 33.6667 696.333 -16 557 -16 c 0
 402.333 -16 292.667 27.3333 228 114 c 0
 181.333 177.333 158 256.333 158 351 c 0
 158 390.333 162.667 431.333 172 474 c 0
 204 624 270.667 744 372 834 c 0
 477.333 926.667 605.667 973 757 973 c 0
 973 973 1083.33 878.333 1088 689 c 1
 968 658 l 1
 957.333 796 879.667 865 735 865 c 0
 619.667 865 524 829 448 757 c 0
 377.333 690.333 329.333 598.667 304 482 c 0
 294.667 436.667 290 395.667 290 359 c 0
 289.333 285.667 307.667 229 345 189 c 0
 400.333 128.333 476.667 98 574 98 c 0
 685.333 98 785.333 131 874 197 c 1
 912 375 l 1
 631 375 l 1
EndSplineSet
EndChar
StartChar: H
Encoding: 41 72
OldEncoding: 72
Width: 965
Flags: W
Fore
107 0 m 1
 310 957 l 1
 437 957 l 1
 354 564 l 1
 851 564 l 1
 934 957 l 1
 1061 957 l 1
 858 0 l 1
 731 0 l 1
 827 451 l 1
 330 451 l 1
 234 0 l 1
 107 0 l 1
EndSplineSet
EndChar
StartChar: I
Encoding: 42 73
OldEncoding: 73
Width: 371
Flags: W
Fore
125 0 m 1
 328 957 l 1
 454 957 l 1
 251 0 l 1
 125 0 l 1
EndSplineSet
EndChar
StartChar: J
Encoding: 43 74
OldEncoding: 74
Width: 668
Flags: W
Fore
94 272 m 1
 211 287 l 1
 207 262.333 205 240 205 220 c 0
 205 138 241 97 313 97 c 0
 387 97 437.667 127.333 465 188 c 0
 477.667 215.333 488.667 252 498 298 c 1
 638 957 l 1
 765 957 l 1
 627 305 l 2
 581.667 91 469.333 -16 290 -16 c 0
 150 -16 80 45 80 167 c 0
 80 198.333 84.6667 233.333 94 272 c 1
EndSplineSet
EndChar
StartChar: K
Encoding: 44 75
OldEncoding: 75
Width: 892
Flags: W
Fore
98 0 m 1
 301 957 l 1
 428 957 l 1
 327 482 l 1
 903 957 l 1
 1074 957 l 1
 591 569 l 1
 889 0 l 1
 722 0 l 1
 484 484 l 1
 296 332 l 1
 225 0 l 1
 98 0 l 1
EndSplineSet
EndChar
StartChar: L
Encoding: 45 76
OldEncoding: 76
Width: 744
Flags: W
Fore
98 0 m 1
 301 957 l 1
 428 957 l 1
 249 113 l 1
 720 113 l 1
 696 0 l 1
 98 0 l 1
EndSplineSet
EndChar
StartChar: M
Encoding: 46 77
OldEncoding: 77
Width: 1114
Flags: W
Fore
99 0 m 1
 302 957 l 1
 493 957 l 1
 591 138 l 1
 675 291 l 1
 1045 957 l 1
 1215 957 l 1
 1012 0 l 1
 890 0 l 1
 1060 801 l 1
 612 0 l 1
 498 0 l 1
 394 815 l 1
 221 0 l 1
 99 0 l 1
EndSplineSet
EndChar
StartChar: N
Encoding: 47 78
OldEncoding: 78
Width: 965
Flags: W
Fore
102 0 m 1
 305 957 l 1
 435 957 l 1
 778 206 l 1
 937 957 l 1
 1059 957 l 1
 856 0 l 1
 726 0 l 1
 383 752 l 1
 223 0 l 1
 102 0 l 1
EndSplineSet
EndChar
StartChar: O
Encoding: 48 79
OldEncoding: 79
Width: 1040
Flags: W
Fore
164 466 m 0
 206.667 667.333 306 813.667 462 905 c 0
 540.667 951 630 974 730 974 c 0
 864 974 964.333 928.667 1031 838 c 0
 1074.33 777.333 1096 701.333 1096 610 c 0
 1096 568 1091 523.667 1081 477 c 0
 1037.67 271.667 933.667 128 769 46 c 0
 687.667 4.66667 604.333 -16 519 -16 c 0
 434.333 -16 361.333 3.66667 300 43 c 0
 234 85 190 145.333 168 224 c 0
 156.667 264 151 305.667 151 349 c 0
 151 386.333 155.333 425.333 164 466 c 0
294 464 m 0
 286 426 282 390.667 282 358 c 0
 282 258.667 315 185 381 137 c 0
 422.333 107 476 92 542 92 c 0
 648.667 92 739.333 130.667 814 208 c 0
 881.333 277.333 927 367.333 951 478 c 0
 967.667 557.333 968.333 626.333 953 685 c 0
 922.333 805 840.667 865 708 865 c 0
 601.333 865 512.333 829.833 441 759.5 c 0
 369.667 689.167 320.667 590.667 294 464 c 0
EndSplineSet
EndChar
StartChar: P
Encoding: 49 80
OldEncoding: 80
Width: 892
Flags: W
Fore
103 0 m 1
 306 957 l 1
 667 957 l 2
 783.667 957 865 941 911 909 c 0
 961 873.667 986 819.667 986 747 c 0
 986 725.667 983.667 703.333 979 680 c 0
 937.667 486 797.333 389 558 389 c 2
 313 389 l 1
 230 0 l 1
 103 0 l 1
337 502 m 1
 584 502 l 2
 734.667 502 822.333 560 847 676 c 0
 850.333 694 852 710.667 852 726 c 0
 852 780.667 827.667 816.667 779 834 c 0
 758.333 840.667 716.667 844 654 844 c 2
 409 844 l 1
 337 502 l 1
EndSplineSet
EndChar
StartChar: Q
Encoding: 50 81
OldEncoding: 81
Width: 1040
Flags: W
Fore
850 102 m 1
 900.667 62 948.667 32.6667 994 14 c 1
 938 -74 l 1
 874.667 -49.3333 814.333 -10.3333 757 43 c 1
 678.333 3.66667 596 -16 510 -16 c 0
 364.667 -16 262.667 32.6667 204 130 c 0
 164.667 194.667 145 268.333 145 351 c 0
 145 391.667 149.667 434.333 159 479 c 0
 189.667 624.333 254 742 352 832 c 0
 454.667 926.667 578.333 974 723 974 c 0
 902.333 974 1018 904 1070 764 c 0
 1084.67 724.667 1092 679.667 1092 629 c 0
 1092 583.667 1086.33 533.667 1075 479 c 0
 1041 321 966 195.333 850 102 c 1
606 264 m 1
 674.667 244 728.333 213.667 767 173 c 1
 855.667 241 914.667 343 944 479 c 0
 952.667 521 957 560 957 596 c 0
 957 659.333 943.333 713.667 916 759 c 0
 873.333 829.667 801.333 865 700 865 c 0
 562.667 865 454 805.667 374 687 c 0
 335.333 629 307.333 559.667 290 479 c 0
 280.667 436.333 276 396.667 276 360 c 0
 276 297.333 289.667 243.667 317 199 c 0
 359.667 127.667 432.667 92 536 92 c 0
 581.333 92 625.667 100.667 669 118 c 1
 635 143.333 597.333 161.333 556 172 c 1
 606 264 l 1
EndSplineSet
EndChar
StartChar: R
Encoding: 51 82
OldEncoding: 82
Width: 965
Flags: W
Fore
105 0 m 1
 308 957 l 1
 732 957 l 2
 812.667 957 871 950.333 907 937 c 0
 963 917 1000 876 1018 814 c 0
 1022.67 796.667 1025 778 1025 758 c 0
 1025 738.667 1022.67 718 1018 696 c 0
 986 546.667 877.667 459.667 693 435 c 1
 751 407 799 348.667 837 260 c 2
 949 0 l 1
 789 0 l 1
 705 199 l 2
 687 242.333 672 275.333 660 298 c 0
 640 336.667 619.333 366 598 386 c 0
 570 412 527 425 469 425 c 2
 322 425 l 1
 232 0 l 1
 105 0 l 1
346 535 m 1
 618 535 l 2
 775.333 535 865.333 588.667 888 696 c 0
 890.667 709.333 892 721.667 892 733 c 0
 894 811.667 835.333 851 716 851 c 2
 413 851 l 1
 346 535 l 1
EndSplineSet
EndChar
StartChar: S
Encoding: 52 83
OldEncoding: 83
Width: 892
Flags: W
Fore
125 307 m 1
 248 318 l 1
 246.667 307.333 246 297.333 246 288 c 0
 246 160.667 325 97 483 97 c 0
 547 97 602.667 108.667 650 132 c 0
 708 161.333 743 204 755 260 c 0
 757 270 758 279.333 758 288 c 0
 758 336.667 730 372.333 674 395 c 0
 642 407 584.667 423 502 443 c 0
 372.667 474.333 292.333 519.333 261 578 c 0
 248.333 601.333 242 628 242 658 c 0
 242 674 244 691.333 248 710 c 0
 270.667 818.667 339.667 895.333 455 940 c 0
 512.333 962 574 973 640 973 c 0
 842.667 973 944 896 944 742 c 0
 944 724.667 942.333 706.333 939 687 c 1
 816 678 l 1
 817.333 688 818 697.333 818 706 c 0
 818 810 752.667 862 622 862 c 0
 475.333 862 392 814 372 718 c 0
 370 709.333 369 701.333 369 694 c 0
 369 650 393.667 618.667 443 600 c 0
 468.333 590 509.667 578.333 567 565 c 0
 639.667 547.667 689.667 534 717 524 c 0
 777 502.667 820.167 475.5 846.5 442.5 c 0
 872.833 409.5 886 370.667 886 326 c 0
 886 308.667 883.667 290 879 270 c 0
 859.667 179.333 808.333 107.667 725 55 c 0
 649.667 7.66667 563 -16 465 -16 c 0
 235 -16 120 70.3333 120 243 c 0
 120 263.667 121.667 285 125 307 c 1
EndSplineSet
EndChar
StartChar: T
Encoding: 53 84
OldEncoding: 84
Width: 817
Flags: W
Fore
347 0 m 1
 526 844 l 1
 210 844 l 1
 234 957 l 1
 993 957 l 1
 969 844 l 1
 652 844 l 1
 473 0 l 1
 347 0 l 1
EndSplineSet
EndChar
StartChar: U
Encoding: 54 85
OldEncoding: 85
Width: 965
Flags: W
Fore
934 957 m 1
 1061 957 l 1
 944 404 l 1
 910.667 248 854 138 774 74 c 0
 699.333 14 601.667 -16 481 -16 c 0
 356.333 -16 268.333 14 217 74 c 0
 186.333 110 171 164 171 236 c 0
 171 284 177.667 340 191 404 c 2
 308 957 l 1
 435 957 l 1
 318 405 l 1
 305.333 343.667 299 296 299 262 c 0
 299 220 309 186 329 160 c 0
 360.333 118.667 415.333 98 494 98 c 0
 608 98 691.333 134 744 206 c 0
 773.333 246 797.667 312.333 817 405 c 1
 934 957 l 1
EndSplineSet
EndChar
StartChar: V
Encoding: 55 86
OldEncoding: 86
Width: 892
Flags: W
Fore
377 0 m 1
 209 957 l 1
 346 957 l 1
 448 262 l 1
 455.333 210.667 460.667 158.333 464 105 c 1
 484.667 147.667 513.333 200 550 262 c 2
 955 957 l 1
 1084 957 l 1
 507 0 l 1
 377 0 l 1
EndSplineSet
EndChar
StartChar: W
Encoding: 56 87
OldEncoding: 87
Width: 1262
Flags: W
Fore
270 0 m 1
 219 957 l 1
 349 957 l 1
 362 330 l 1
 363.333 262.667 362.667 197.333 360 134 c 1
 441 311 l 1
 760 957 l 1
 913 957 l 1
 948 473 l 1
 956.667 346.333 957.333 233.333 950 134 c 1
 976 196.667 1006.67 266 1042 342 c 1
 1323 957 l 1
 1450 957 l 1
 984 0 l 1
 862 0 l 1
 810 841 l 1
 800.667 819.667 783.333 782.333 758 729 c 1
 400 0 l 1
 270 0 l 1
EndSplineSet
EndChar
StartChar: X
Encoding: 57 88
OldEncoding: 88
Width: 892
Flags: W
Fore
6 0 m 1
 482 499 l 1
 253 957 l 1
 403 957 l 1
 525 712 l 2
 550.333 661.333 567.667 622 577 594 c 1
 598.333 620.667 631.333 657 676 703 c 2
 922 957 l 1
 1060 957 l 1
 629 506 l 1
 883 0 l 1
 727 0 l 1
 558 341 l 2
 550 357 540.667 378.333 530 405 c 1
 507.333 377 487 353.333 469 334 c 2
 158 0 l 1
 6 0 l 1
EndSplineSet
EndChar
StartChar: Y
Encoding: 58 89
OldEncoding: 89
Width: 892
Flags: W
Fore
373 0 m 1
 459 405 l 1
 207 957 l 1
 361 957 l 1
 489 668 l 2
 510.333 618.667 531.333 565 552 507 c 1
 604.667 573.667 651.333 630 692 676 c 2
 937 957 l 1
 1084 957 l 1
 585 405 l 1
 499 0 l 1
 373 0 l 1
EndSplineSet
EndChar
StartChar: Z
Encoding: 59 90
OldEncoding: 90
Width: 817
Flags: W
Fore
27 0 m 1
 52 118 l 1
 672 730 l 2
 719.333 776.667 760.333 814.667 795 844 c 1
 261 844 l 1
 285 957 l 1
 971 957 l 1
 947 844 l 1
 196 113 l 1
 807 113 l 1
 783 0 l 1
 27 0 l 1
EndSplineSet
EndChar
StartChar: bracketleft
Encoding: 60 91
OldEncoding: 91
Width: 371
Flags: W
Fore
34 -266 m 1
 294 957 l 1
 553 957 l 1
 533 860 l 1
 391 860 l 1
 172 -168 l 1
 314 -168 l 1
 293 -266 l 1
 34 -266 l 1
EndSplineSet
EndChar
StartChar: backslash
Encoding: 61 92
OldEncoding: 92
Width: 371
Flags: W
Fore
274 -16 m 1
 207 973 l 1
 302 973 l 1
 368 -16 l 1
 274 -16 l 1
EndSplineSet
EndChar
StartChar: bracketright
Encoding: 62 93
OldEncoding: 93
Width: 371
Flags: W
Fore
228 -266 m 1
 -32 -266 l 1
 -11 -168 l 1
 131 -168 l 1
 350 860 l 1
 208 860 l 1
 228 957 l 1
 488 957 l 1
 228 -266 l 1
EndSplineSet
EndChar
StartChar: asciicircum
Encoding: 63 94
OldEncoding: 94
Width: 627
Flags: W
Fore
252 450 m 1
 131 450 l 1
 473 973 l 1
 567 973 l 1
 688 450 l 1
 570 450 l 1
 492 840 l 1
 252 450 l 1
EndSplineSet
EndChar
StartChar: underscore
Encoding: 64 95
OldEncoding: 95
Width: 744
Flags: W
Fore
-77 -266 m 1
 -58 -181 l 1
 721 -181 l 1
 702 -266 l 1
 -77 -266 l 1
EndSplineSet
EndChar
StartChar: grave
Encoding: 65 96
OldEncoding: 96
Width: 445
Flags: W
Fore
470 779 m 1
 375 779 l 1
 262 962 l 1
 419 962 l 1
 470 779 l 1
EndSplineSet
EndChar
StartChar: a
Encoding: 66 97
OldEncoding: 97
Width: 744
Flags: W
Fore
559 86 m 1
 465 18 372.667 -16 282 -16 c 0
 148.667 -16 82 34.6667 82 136 c 0
 82 188 98 235.333 130 278 c 0
 179.333 343.333 271.333 384 406 400 c 0
 505.333 412 578.333 425.333 625 440 c 1
 631 471 l 1
 634.333 485 636 498.333 636 511 c 0
 636 578.333 588.667 612 494 612 c 0
 440 612 397.5 602.167 366.5 582.5 c 0
 335.5 562.833 308.333 528.667 285 480 c 1
 174 495 l 1
 234.667 637.667 354 709 532 709 c 0
 630.667 709 698 687.667 734 645 c 0
 751.333 623.667 760.667 599.667 762 573 c 0
 762.667 546.333 757 504.333 745 447 c 2
 680 142 l 1
 677.333 127.333 675.667 106 675 78 c 0
 675 50 679 24 687 0 c 1
 564 0 l 1
 559.333 16 557 33.6667 557 53 c 0
 557 63.6667 557.667 74.6667 559 86 c 1
605 348 m 1
 559.667 331.333 492.667 316.667 404 304 c 0
 290.667 288 227.333 248.667 214 186 c 0
 211.333 175.333 210 165.667 210 157 c 0
 210 103 249.667 76 329 76 c 0
 395.667 76 451 93 495 127 c 0
 545 165 578.667 224.333 596 305 c 2
 605 348 l 1
EndSplineSet
EndChar
StartChar: b
Encoding: 67 98
OldEncoding: 98
Width: 744
Flags: W
Fore
196 0 m 1
 87 0 l 1
 290 957 l 1
 408 957 l 1
 336 616 l 1
 398.667 678 468.667 709 546 709 c 0
 664.667 709 738.333 654 767 544 c 0
 773.667 519.333 777 492.333 777 463 c 0
 777 430.333 773 395 765 357 c 0
 743 255 700.667 169.667 638 101 c 0
 566.667 23 482.667 -16 386 -16 c 0
 304 -16 246.667 18.3333 214 87 c 1
 196 0 l 1
270 352 m 0
 260 306 255 267.667 255 237 c 0
 255 181 272.333 139 307 111 c 0
 331 91 360.667 81 396 81 c 0
 460 81 515.333 110.333 562 169 c 0
 600.667 217.667 627.667 277 643 347 c 0
 650.333 381.667 654 413.333 654 442 c 0
 654 504.667 638 551 606 581 c 0
 583.333 601.667 553 612 515 612 c 0
 451.667 612 396.667 583.667 350 527 c 0
 311.333 479.667 284.667 421.333 270 352 c 0
EndSplineSet
EndChar
StartChar: c
Encoding: 68 99
OldEncoding: 99
Width: 668
Flags: W
Fore
595 254 m 1
 707 239 l 1
 679 162.333 635.333 101.333 576 56 c 0
 514 8 443.667 -16 365 -16 c 0
 196.333 -16 112 67 112 233 c 0
 112 267 116.333 304 125 344 c 0
 159 504 232 611.667 344 667 c 0
 400.667 695 459 709 519 709 c 0
 675.667 709 752.333 636 749 490 c 1
 631 472 l 1
 629 565.333 586.333 612 503 612 c 0
 369.667 612 284.333 523.667 247 347 c 0
 238.333 307 234 271.667 234 241 c 0
 234 134.333 283.667 81 383 81 c 0
 483 81 553.667 138.667 595 254 c 1
EndSplineSet
EndChar
StartChar: d
Encoding: 69 100
OldEncoding: 100
Width: 744
Flags: W
Fore
538 0 m 1
 556 87 l 1
 498 18.3333 426.333 -16 341 -16 c 0
 248.333 -16 182.667 19 144 89 c 0
 120 133 108 184 108 242 c 0
 108 274.667 112 309.333 120 346 c 0
 152 497.333 220.667 604 326 666 c 0
 374.667 694.667 429.333 709 490 709 c 0
 571.333 709 628.333 677.333 661 614 c 1
 733 957 l 1
 850 957 l 1
 647 0 l 1
 538 0 l 1
240 346 m 0
 232.667 313.333 229 283 229 255 c 0
 229 192.333 245.333 145.667 278 115 c 0
 301.333 92.3333 332.667 81 372 81 c 0
 436 81 490 108.667 534 164 c 0
 570.667 209.333 596.333 266.667 611 336 c 0
 619.667 374 624 408.667 624 440 c 0
 624 554.667 576 612 480 612 c 0
 357.333 612 277.333 523.333 240 346 c 0
EndSplineSet
EndChar
StartChar: e
Encoding: 70 101
OldEncoding: 101
Width: 744
Flags: W
Fore
610 223 m 1
 728 208 l 1
 656.667 58.6667 539.333 -16 376 -16 c 0
 236.667 -16 151.333 39 120 149 c 0
 104.667 201.667 105 265.667 121 341 c 0
 144.333 448.333 189.333 535 256 601 c 0
 329.333 673 418.667 709 524 709 c 0
 612 709 677.333 682.667 720 630 c 0
 743.333 601.333 759 567.667 767 529 c 0
 771 511.667 773.333 490.667 774 466 c 0
 774.667 444 773.333 420.667 770 396 c 0
 769.333 388 764 361.667 754 317 c 1
 237 317 l 1
 233.667 296.333 232 276.667 232 258 c 0
 232 140 287 81 397 81 c 0
 485 81 556 128.333 610 223 c 1
265 413 m 1
 652 413 l 1
 654 429 655 444 655 458 c 0
 655 560.667 604.667 612 504 612 c 0
 430.667 612 368.667 581 318 519 c 0
 294 489.667 276.333 454.333 265 413 c 1
EndSplineSet
EndChar
StartChar: f
Encoding: 71 102
OldEncoding: 102
Width: 371
Flags: W
Fore
116 0 m 1
 244 602 l 1
 140 602 l 1
 159 693 l 1
 263 693 l 1
 279 767 l 2
 295 841 322.167 893.833 360.5 925.5 c 0
 398.833 957.167 450.333 973 515 973 c 0
 548.333 973 584 969.333 622 962 c 1
 583 859 l 1
 559.667 863.667 537 866 515 866 c 0
 449.667 866 409.333 829.667 394 757 c 1
 380 693 l 1
 515 693 l 1
 496 602 l 1
 361 602 l 1
 233 0 l 1
 116 0 l 1
EndSplineSet
EndChar
StartChar: g
Encoding: 72 103
OldEncoding: 103
Width: 744
Flags: W
Fore
55 -57 m 1
 165 -74 l 1
 159.667 -147.333 205 -184 301 -184 c 0
 372.333 -184 428 -164.333 468 -125 c 0
 502 -91 530.667 -19 554 91 c 1
 490 30.3333 419.667 -1.73472e-18 343 0 c 0
 222.333 0 146.667 55.6667 116 167 c 0
 109.333 192.333 106 219.667 106 249 c 0
 106 281 110 315 118 351 c 0
 139.333 452.333 181 535.333 243 600 c 0
 312.333 672.667 396 709 494 709 c 0
 576 709 636.667 676 676 610 c 1
 693 693 l 1
 801 693 l 1
 674 94 l 2
 644 -48.6667 597.333 -146.833 534 -200.5 c 0
 470.667 -254.167 386.333 -281 281 -281 c 0
 125 -281 47 -225.667 47 -115 c 0
 47 -97 49.6667 -77.6667 55 -57 c 1
240 359 m 0
 232 319.667 228 284.667 228 254 c 0
 228 149.333 277 97 375 97 c 0
 453 97 516.667 136 566 214 c 0
 608 281.333 629 356.667 629 440 c 0
 629 554.667 580 612 482 612 c 0
 418.667 612 364.333 585 319 531 c 0
 281 485 254.667 427.667 240 359 c 0
EndSplineSet
EndChar
StartChar: h
Encoding: 73 104
OldEncoding: 104
Width: 744
Flags: W
Fore
88 0 m 1
 291 957 l 1
 409 957 l 1
 337 614 l 1
 405 677.333 480.667 709 564 709 c 0
 694 709 759 655.333 759 548 c 0
 759 516 754.667 479.667 746 439 c 2
 653 0 l 1
 535 0 l 1
 628 439 l 1
 633.333 461.667 635.667 482 635 500 c 0
 635 572 596 608 518 608 c 0
 428.667 608 365 571 327 497 c 0
 309.667 464.333 296.333 425 287 379 c 1
 206 0 l 1
 88 0 l 1
EndSplineSet
EndChar
StartChar: i
Encoding: 74 105
OldEncoding: 105
Width: 297
Flags: W
Fore
264 822 m 1
 292 957 l 1
 409 957 l 1
 381 822 l 1
 264 822 l 1
89 0 m 1
 236 693 l 1
 353 693 l 1
 206 0 l 1
 89 0 l 1
EndSplineSet
EndChar
StartChar: j
Encoding: 75 106
OldEncoding: 106
Width: 297
Flags: W
Fore
262 821 m 1
 290 957 l 1
 408 957 l 1
 380 821 l 1
 262 821 l 1
-118 -269 m 1
 -75 -169 l 1
 -53 -175 -35.3333 -178 -22 -178 c 0
 16.6667 -178 43.3333 -157.667 58 -117 c 0
 64.6667 -99 72 -71.6667 80 -35 c 1
 234 693 l 1
 352 693 l 1
 197 -38 l 1
 173 -150 134.667 -222 82 -254 c 0
 50.6667 -272 13.6667 -281 -29 -281 c 0
 -61 -281 -90.6667 -277 -118 -269 c 1
EndSplineSet
EndChar
StartChar: k
Encoding: 76 107
OldEncoding: 107
Width: 668
Flags: W
Fore
89 0 m 1
 292 957 l 1
 409 957 l 1
 293 411 l 1
 631 693 l 1
 783 693 l 1
 464 436 l 1
 663 0 l 1
 518 0 l 1
 364 354 l 1
 264 275 l 1
 206 0 l 1
 89 0 l 1
EndSplineSet
EndChar
StartChar: l
Encoding: 77 108
OldEncoding: 108
Width: 297
Flags: W
Fore
86 0 m 1
 289 957 l 1
 406 957 l 1
 203 0 l 1
 86 0 l 1
EndSplineSet
EndChar
StartChar: m
Encoding: 78 109
OldEncoding: 109
Width: 1114
Flags: W
Fore
88 0 m 1
 235 693 l 1
 340 693 l 1
 320 596 l 1
 384.667 671.333 462.667 709 554 709 c 0
 656 709 712.667 668.667 724 588 c 1
 796.667 668.667 876.667 709 964 709 c 0
 1080 709 1138 657.667 1138 555 c 0
 1138 531.667 1135 505.333 1129 476 c 2
 1028 0 l 1
 911 0 l 1
 1004 437 l 2
 1009.33 463 1012 485.667 1012 505 c 0
 1012 573 980 607 916 607 c 0
 803.333 607 732.667 539 704 403 c 1
 618 0 l 1
 500 0 l 1
 596 450 l 2
 600.667 472.667 603 492.667 603 510 c 0
 603 574.667 570.667 607 506 607 c 0
 430 607 372 573 332 505 c 0
 312 471 295.667 422.667 283 360 c 1
 206 0 l 1
 88 0 l 1
EndSplineSet
EndChar
StartChar: n
Encoding: 79 110
OldEncoding: 110
Width: 744
Flags: W
Fore
88 0 m 1
 235 693 l 1
 341 693 l 1
 320 595 l 1
 387.333 671 469.333 709 566 709 c 0
 694 709 758 653.333 758 542 c 0
 758 516.667 754.667 488.333 748 457 c 2
 651 0 l 1
 534 0 l 1
 624 422 l 1
 629.333 448.667 632 472.333 632 493 c 0
 632 569 594.333 607 519 607 c 0
 396.333 607 319 531 287 379 c 1
 206 0 l 1
 88 0 l 1
EndSplineSet
EndChar
StartChar: o
Encoding: 80 111
OldEncoding: 111
Width: 744
Flags: W
Fore
118 347 m 0
 140.667 454.333 185.333 540.333 252 605 c 0
 324.667 674.333 414 709 520 709 c 0
 645.333 709 727 658 765 556 c 0
 775.667 527.333 781 494.667 781 458 c 0
 781 426.667 777.333 392.667 770 356 c 0
 746.667 246.667 701.667 159 635 93 c 0
 562.333 20.3333 472.667 -16 366 -16 c 0
 230 -16 146.667 40 116 152 c 0
 108.667 178 105 206.333 105 237 c 0
 105 271 109.333 307.667 118 347 c 0
239 347 m 0
 231.667 313.667 228 283.333 228 256 c 0
 228 189.333 246.667 141.333 284 112 c 0
 309.333 91.3333 343.333 81 386 81 c 0
 522 81 609.333 171 648 351 c 0
 654.667 382.333 658 411 658 437 c 0
 658 553.667 605 612 499 612 c 0
 429 612 370.333 584.333 323 529 c 0
 283 482.333 255 421.667 239 347 c 0
EndSplineSet
EndChar
StartChar: p
Encoding: 81 112
OldEncoding: 112
Width: 744
Flags: W
Fore
31 -266 m 1
 235 693 l 1
 342 693 l 1
 323 603 l 1
 389 673.667 463.667 709 547 709 c 0
 644.333 709 710 674 744 604 c 0
 766 560.667 777 511.667 777 457 c 0
 777 423.667 773 388.667 765 352 c 0
 743.667 251.333 701 167 637 99 c 0
 565.667 22.3333 481.667 -16 385 -16 c 0
 309.667 -16 255 13.3333 221 72 c 1
 149 -266 l 1
 31 -266 l 1
268 343 m 0
 260.667 308.333 257 276.333 257 247 c 0
 257 186.333 272.667 141.667 304 113 c 0
 326.667 91.6667 357.667 81 397 81 c 0
 463 81 519.333 111 566 171 c 0
 603.333 219 629.667 279.667 645 353 c 0
 651.667 385.667 655 416 655 444 c 0
 655 482 648.667 515.333 636 544 c 0
 612.667 592.667 572.667 617 516 617 c 0
 452 617 396.333 586.333 349 525 c 0
 309.667 474.333 282.667 413.667 268 343 c 0
EndSplineSet
EndChar
StartChar: q
Encoding: 82 113
OldEncoding: 113
Width: 744
Flags: W
Fore
473 -266 m 1
 546 74 l 1
 490.667 14 424 -16 346 -16 c 0
 254.667 -16 189 20 149 92 c 0
 123 137.333 110 189.667 110 249 c 0
 110 281.667 114 316.333 122 353 c 0
 143.333 453.667 184 536 244 600 c 0
 311.333 672.667 393.333 709 490 709 c 0
 576 709 636 673 670 601 c 1
 689 693 l 1
 795 693 l 1
 591 -266 l 1
 473 -266 l 1
242 349 m 0
 234.667 315 231 283.667 231 255 c 0
 231 191.667 247.333 145 280 115 c 0
 304 92.3333 335.667 81 375 81 c 0
 438.333 81 492.333 109 537 165 c 0
 573.667 211 599.333 268.667 614 338 c 0
 621.333 372.667 625 404.667 625 434 c 0
 625 473.333 618.333 508 605 538 c 0
 582.333 590 541.333 616 482 616 c 0
 417.333 616 362.667 586.667 318 528 c 0
 282.667 480.667 257.333 421 242 349 c 0
EndSplineSet
EndChar
StartChar: r
Encoding: 83 114
OldEncoding: 114
Width: 445
Flags: W
Fore
87 0 m 1
 234 693 l 1
 340 693 l 1
 318 588 l 1
 379.333 668.667 438 709 494 709 c 0
 533.333 709 570.667 696.333 606 671 c 1
 542 562 l 1
 517.333 579.333 490.667 588 462 588 c 0
 401.333 588 354.333 552.333 321 481 c 0
 303 443 289.667 403.667 281 363 c 2
 204 0 l 1
 87 0 l 1
EndSplineSet
EndChar
StartChar: s
Encoding: 84 115
OldEncoding: 115
Width: 668
Flags: W
Fore
85 207 m 1
 205 225 l 1
 198.333 129 248 81 354 81 c 0
 460 81 521 117.667 537 191 c 0
 538.333 197.667 539 204.333 539 211 c 0
 539 227.667 533 240.667 521 250 c 0
 505 262.667 465.667 277.333 403 294 c 0
 347 308.667 314.333 317.667 305 321 c 0
 265.667 333.667 235.667 348.667 215 366 c 0
 181.667 394 165 428.667 165 470 c 0
 165 518 181.667 563 215 605 c 0
 270.333 674.333 354.333 709 467 709 c 0
 577.667 709 648.667 681.333 680 626 c 0
 695.333 598 702 560.667 700 514 c 1
 582 499 l 1
 586.667 574.333 544 612 454 612 c 0
 354 612 297.667 582.333 285 523 c 0
 283.667 517.667 283 512.333 283 507 c 0
 283 482.333 295.333 464.667 320 454 c 0
 335.333 447.333 370.667 436 426 420 c 0
 465.333 408.667 504.667 397.333 544 386 c 1
 590 369.333 622.667 347.667 642 321 c 0
 657.333 298.333 665 272.667 665 244 c 0
 665 231.333 663.333 218 660 204 c 0
 645.333 133.333 604.667 78 538 38 c 0
 478.667 2 410.667 -16 334 -16 c 0
 163.333 -16 80.3333 58.3333 85 207 c 1
EndSplineSet
EndChar
StartChar: t
Encoding: 85 116
OldEncoding: 116
Width: 371
Flags: W
Fore
367 105 m 1
 362 1 l 1
 327.333 -5.66667 297 -9 271 -9 c 0
 197.667 -9 154 13 140 57 c 0
 132.667 79 137 127.667 153 203 c 2
 238 602 l 1
 152 602 l 1
 171 693 l 1
 257 693 l 1
 294 865 l 1
 426 935 l 1
 374 693 l 1
 492 693 l 1
 473 602 l 1
 355 602 l 1
 269 196 l 2
 262.333 164.667 259.667 143.667 261 133 c 0
 264.333 111.667 282 101 314 101 c 0
 327.333 101 345 102.333 367 105 c 1
EndSplineSet
EndChar
StartChar: u
Encoding: 86 117
OldEncoding: 117
Width: 744
Flags: W
Fore
542 0 m 1
 564 102 l 1
 494 23.3333 412.333 -16 319 -16 c 0
 233.667 -16 176.667 8 148 56 c 0
 134 80 126.667 107.667 126 139 c 0
 125.333 169.667 130.667 211.333 142 264 c 2
 233 693 l 1
 350 693 l 1
 269 309 l 2
 256.333 249 249.667 208.667 249 188 c 0
 249 120 287.333 86 364 86 c 0
 456.667 86 521.333 123.667 558 199 c 0
 574.667 232.333 588 273.333 598 322 c 1
 677 693 l 1
 795 693 l 1
 648 0 l 1
 542 0 l 1
EndSplineSet
EndChar
StartChar: v
Encoding: 87 118
OldEncoding: 118
Width: 668
Flags: W
Fore
281 0 m 1
 164 693 l 1
 288 693 l 1
 349 278 l 1
 355.667 234 360.333 187.333 363 138 c 1
 381.667 174.667 405.667 218.667 435 270 c 2
 679 693 l 1
 800 693 l 1
 390 0 l 1
 281 0 l 1
EndSplineSet
EndChar
StartChar: w
Encoding: 88 119
OldEncoding: 119
Width: 965
Flags: W
Fore
216 0 m 1
 151 693 l 1
 272 693 l 1
 308 144 l 1
 320 173.333 342 221 374 287 c 2
 570 693 l 1
 691 693 l 1
 716 159 l 1
 988 693 l 1
 1102 693 l 1
 738 0 l 1
 616 0 l 1
 592 533 l 1
 339 0 l 1
 216 0 l 1
EndSplineSet
EndChar
StartChar: x
Encoding: 89 120
OldEncoding: 120
Width: 668
Flags: W
Fore
10 0 m 1
 340 360 l 1
 176 693 l 1
 323 693 l 1
 395 531 l 2
 407 503.667 417.333 477.667 426 453 c 1
 441.333 470.333 464.333 495.667 495 529 c 2
 647 693 l 1
 787 693 l 1
 479 367 l 1
 659 0 l 1
 514 0 l 1
 392 274 l 1
 152 0 l 1
 10 0 l 1
EndSplineSet
EndChar
StartChar: y
Encoding: 90 121
OldEncoding: 121
Width: 668
Flags: W
Fore
26 -267 m 1
 37 -157 l 1
 61 -163.667 82.6667 -167 102 -167 c 0
 154.667 -167 193.667 -148 219 -110 c 0
 230.333 -93.3333 251 -59 281 -7 c 2
 285 -1 l 1
 169 693 l 1
 295 693 l 1
 354 292 l 2
 362.667 234 368.333 180.333 371 131 c 1
 394.333 183.667 421.333 236.333 452 289 c 2
 686 693 l 1
 804 693 l 1
 390 -12 l 2
 350.667 -79.3333 324.333 -122.667 311 -142 c 0
 276.333 -191.333 242 -226.833 208 -248.5 c 0
 174 -270.167 137.667 -281 99 -281 c 0
 76.3333 -281 52 -276.333 26 -267 c 1
EndSplineSet
EndChar
StartChar: z
Encoding: 91 122
OldEncoding: 122
Width: 668
Flags: W
Fore
26 0 m 1
 46 95 l 1
 595 602 l 1
 544.333 599.333 500 598 462 598 c 2
 179 598 l 1
 199 693 l 1
 766 693 l 1
 750 616 l 1
 191 95 l 1
 244.333 99 294 101 340 101 c 2
 661 101 l 1
 640 0 l 1
 26 0 l 1
EndSplineSet
EndChar
StartChar: braceleft
Encoding: 92 123
OldEncoding: 123
Width: 447
Flags: W
Fore
122 400 m 1
 189.333 401.333 237.333 433 266 495 c 0
 281.333 529 296.333 579.667 311 647 c 0
 328.333 728.333 340.667 781 348 805 c 0
 367.333 865 398.333 909.667 441 939 c 0
 474.333 961.667 522.667 973 586 973 c 2
 622 973 l 1
 600 871 l 1
 580 871 l 2
 531.333 871 497.667 860.333 479 839 c 0
 463.667 823 450.667 789 440 737 c 0
 420 642.333 407.667 588 403 574 c 0
 385.667 512 361.333 463 330 427 c 0
 301.333 393 264.667 366 220 346 c 1
 256.667 330 283.667 302.333 301 263 c 0
 308.333 245 312 221.333 312 192 c 0
 312 154.667 306 108 294 52 c 0
 277.333 -25.3333 267.667 -73.6667 265 -93 c 0
 263.667 -101 263 -108.333 263 -115 c 0
 263 -144.333 273.333 -163 294 -171 c 0
 307.333 -176.333 328.333 -179 357 -179 c 2
 377 -179 l 1
 355 -281 l 1
 319 -281 l 2
 256.333 -281 212.333 -269.333 187 -246 c 0
 159 -219.333 147.333 -183 152 -137 c 1
 192 78 l 1
 204.667 148.667 204.667 202 192 238 c 0
 180 273.333 149 291.667 99 293 c 1
 122 400 l 1
EndSplineSet
EndChar
StartChar: bar
Encoding: 93 124
OldEncoding: 124
Width: 347
Flags: W
Fore
63 -281 m 1
 330 973 l 1
 432 973 l 1
 165 -281 l 1
 63 -281 l 1
EndSplineSet
EndChar
StartChar: braceright
Encoding: 94 125
OldEncoding: 125
Width: 447
Flags: W
Fore
494 400 m 1
 471 293 l 1
 410.333 291.667 365 264.333 335 211 c 0
 317 179.667 299.833 125.5 283.5 48.5 c 0
 267.167 -28.5 258.333 -69 257 -73 c 0
 245 -119 229.333 -156.667 210 -186 c 0
 178 -234 138 -263.333 90 -274 c 0
 68.6667 -278.667 41 -281 7 -281 c 2
 -29 -281 l 1
 -7 -179 l 1
 13 -179 l 2
 61.6667 -179 95.6667 -168.333 115 -147 c 0
 129.667 -130.333 142.667 -96 154 -44 c 0
 175.333 56 187.333 110.667 190 120 c 0
 207.333 183.333 231.667 233 263 269 c 0
 292.333 303 329.333 328.667 374 346 c 1
 312 378.667 281 429.333 281 498 c 0
 281 506 281.333 514.333 282 523 c 0
 286 565.667 301.667 655.667 329 793 c 1
 331.667 825.667 324.667 847.333 308 858 c 0
 295.333 866.667 271.333 871 236 871 c 2
 216 871 l 1
 238 973 l 1
 274 973 l 2
 348.667 973 398 955.333 422 920 c 0
 436.667 898 443.333 871 442 839 c 0
 440.667 802.333 432.667 749.667 418 681 c 0
 402.667 609 394 556.333 392 523 c 0
 386 442.333 420 401.333 494 400 c 1
EndSplineSet
EndChar
StartChar: asciitilde
Encoding: 95 126
OldEncoding: 126
Width: 781
Flags: W
Fore
134 364 m 1
 163 497 l 1
 219.667 549.667 285.333 576 360 576 c 0
 407.333 576 471.667 557 553 519 c 0
 597.667 498.333 633.333 488 660 488 c 0
 718 488 780.667 518 848 578 c 1
 818 439 l 1
 754.667 389.667 689.333 365 622 365 c 0
 575.333 365 516.333 382.667 445 418 c 0
 399 440.667 358.333 452 323 452 c 0
 271 452 208 422.667 134 364 c 1
EndSplineSet
EndChar
StartChar: exclamdown
Encoding: 96 161
OldEncoding: 161
Width: 445
Flags: W
Fore
437 693 m 1
 409 559 l 1
 274 559 l 1
 302 693 l 1
 437 693 l 1
357 455 m 1
 285 -52 l 1
 240 -264 l 1
 94 -264 l 1
 139 -52 l 1
 281 455 l 1
 357 455 l 1
EndSplineSet
EndChar
StartChar: cent
Encoding: 97 162
OldEncoding: 162
Width: 743
Flags: W
Fore
610 584 m 1
 359 84 l 1
 372.333 80 385.333 78 398 78 c 0
 498 78 569.333 136.667 612 254 c 1
 726 241 l 1
 696.667 165 652 103.333 592 56 c 0
 528 6.66667 456.667 -18 378 -18 c 0
 353.333 -18 331.667 -15 313 -9 c 1
 181 -267 l 1
 113 -246 l 1
 243 14 l 1
 167.667 57.3333 130 129.333 130 230 c 0
 130 264.667 134.333 302.333 143 343 c 0
 165 447.667 207.333 533 270 599 c 0
 340.667 672.333 426.667 709 528 709 c 0
 547.333 709 569 707.333 593 704 c 1
 719 957 l 1
 787 936 l 1
 660 683 l 1
 733.333 651 768.667 586.667 766 490 c 1
 648 472 l 1
 647.333 519.333 634.667 556.667 610 584 c 1
547 614 m 1
 515 615 l 2
 387 619 303.667 530.333 265 349 c 0
 256.333 308.333 252 272.333 252 241 c 0
 252 183.667 266.667 142 296 116 c 1
 547 614 l 1
EndSplineSet
EndChar
StartChar: sterling
Encoding: 98 163
OldEncoding: 163
Width: 743
Flags: W
Fore
370 528 m 1
 576 528 l 1
 556 431 l 1
 371 431 l 1
 373 422.333 374 413.333 374 404 c 0
 374 394 372.667 384 370 374 c 0
 352.667 290 296.667 207 202 125 c 1
 239.333 134.333 271.667 139 299 139 c 0
 335.667 139 375 133.667 417 123 c 0
 487.667 105 536.333 96 563 96 c 0
 595 96 639.333 108 696 132 c 1
 711 25 l 1
 640.333 -2.33333 585 -16 545 -16 c 0
 519.667 -16 501.333 -14.3333 490 -11 c 2
 410 12 l 1
 329 37 l 1
 306.333 40.3333 286.333 42 269 42 c 0
 199.667 42 129.667 22 59 -18 c 1
 38 95 l 1
 150 152.333 218 237.333 242 350 c 0
 247.333 373.333 249.667 400.333 249 431 c 1
 121 431 l 1
 141 528 l 1
 241 528 l 1
 238.333 558.667 237 586.667 237 612 c 0
 237 646 239.667 675.333 245 700 c 0
 262.333 783.333 304.667 850 372 900 c 0
 436.667 948.667 512.333 973 599 973 c 0
 766.333 973 845 890.667 835 726 c 1
 715 708 l 1
 721.667 820.667 675.333 877 576 877 c 0
 529.333 877 486.333 861.667 447 831 c 0
 407.667 800.333 383 762.333 373 717 c 0
 367.667 691 365 660 365 624 c 0
 365 595.333 366.667 563.333 370 528 c 1
EndSplineSet
EndChar
StartChar: currency
Encoding: 99 164
OldEncoding: 164
Width: 743
Flags: W
Fore
272 627 m 1
 200 716 l 1
 292 794 l 1
 363 703 l 1
 416.333 734.333 471.333 750 528 750 c 0
 585.333 750 633.333 734.333 672 703 c 1
 783 794 l 1
 842 716 l 1
 732 627 l 1
 746 596.333 753 564.333 753 531 c 0
 753 455.667 724.333 385.333 667 320 c 1
 739 231 l 1
 647 153 l 1
 575 245 l 1
 523 213 468.333 197 411 197 c 0
 353.667 197 305.333 213 266 245 c 1
 156 153 l 1
 97 231 l 1
 207 320 l 1
 193.667 349.333 187 381 187 415 c 0
 187 490.333 215.333 561 272 627 c 1
300 474 m 0
 297.333 462 296 450.333 296 439 c 0
 296 410.333 303.667 383.333 319 358 c 0
 341 322 379 304 433 304 c 0
 481 304 524.667 320.5 564 353.5 c 0
 603.333 386.5 628 426.667 638 474 c 0
 640.667 486.667 642 499 642 511 c 0
 642 549.667 628.833 581.333 602.5 606 c 0
 576.167 630.667 543.667 643 505 643 c 0
 457 643 413.333 626.667 374 594 c 0
 334.667 561.333 310 521.333 300 474 c 0
EndSplineSet
EndChar
StartChar: yen
Encoding: 100 165
OldEncoding: 165
Width: 743
Flags: W
Fore
311 0 m 1
 356 212 l 1
 85 212 l 1
 104 303 l 1
 375 303 l 1
 395 396 l 1
 124 396 l 1
 145 493 l 1
 368 493 l 1
 201 957 l 1
 332 957 l 1
 450 620 l 2
 460.667 590 470 556.667 478 520 c 1
 496.667 548 522 583.333 554 626 c 2
 803 957 l 1
 943 957 l 1
 580 493 l 1
 803 493 l 1
 782 396 l 1
 513 396 l 1
 493 303 l 1
 762 303 l 1
 743 212 l 1
 474 212 l 1
 429 0 l 1
 311 0 l 1
EndSplineSet
EndChar
StartChar: brokenbar
Encoding: 101 166
OldEncoding: 166
Width: 347
Flags: W
Fore
432 973 m 1
 322 458 l 1
 220 458 l 1
 330 973 l 1
 432 973 l 1
275 235 m 1
 165 -281 l 1
 63 -281 l 1
 173 235 l 1
 275 235 l 1
EndSplineSet
EndChar
StartChar: section
Encoding: 102 167
OldEncoding: 167
Width: 743
Flags: W
Fore
83 -46 m 1
 205 -29 l 1
 203 -131 247.667 -182 339 -182 c 0
 379 -182 416 -171 450 -149 c 0
 488 -123.667 507 -92 507 -54 c 0
 507 -37.3333 501.667 -19.3333 491 0 c 0
 477 26 415.667 77 307 153 c 0
 233.667 204.333 185.333 249.333 162 288 c 0
 145.333 314.667 137 344 137 376 c 0
 137 390 138.667 404.667 142 420 c 0
 162 514 224.333 575.667 329 605 c 1
 293 646.333 275 688.667 275 732 c 0
 275 800 308.333 860 375 912 c 0
 427.667 952.667 489.667 973 561 973 c 0
 712.333 973 787.667 906.333 787 773 c 0
 787 765 786.667 756.333 786 747 c 1
 661 734 l 1
 665.667 829.333 628.667 877 550 877 c 0
 514 877 479.667 866.333 447 845 c 0
 411 821 393 791.667 393 757 c 0
 393 741 397.667 724 407 706 c 0
 419 684 475.333 637.333 576 566 c 0
 672.667 496.667 727 444.667 739 410 c 0
 747 386.667 751 364 751 342 c 0
 751 241.333 687 166 559 116 c 1
 605 74.6667 628 27.6667 628 -25 c 0
 628 -39 626.667 -53 624 -67 c 0
 610 -133.667 572 -186.667 510 -226 c 0
 454 -262.667 390.333 -281 319 -281 c 0
 153.667 -281 75 -202.667 83 -46 c 1
509 159 m 1
 591 198.333 632 244 632 296 c 0
 632 345.333 584.667 403.333 490 470 c 0
 443.333 502.667 405.333 532.667 376 560 c 1
 291.333 517.333 249 469.667 249 417 c 0
 249 368.333 292 314.667 378 256 c 0
 439.333 214.667 483 182.333 509 159 c 1
EndSplineSet
EndChar
StartChar: dieresis
Encoding: 103 168
OldEncoding: 168
Width: 445
Flags: W
Fore
216 829 m 1
 245 963 l 1
 368 963 l 1
 339 829 l 1
 216 829 l 1
459 829 m 1
 488 963 l 1
 611 963 l 1
 582 829 l 1
 459 829 l 1
EndSplineSet
EndChar
StartChar: copyright
Encoding: 104 169
OldEncoding: 169
Width: 985
Flags: W
Fore
702 973 m 0
 834 973 939 927 1017 835 c 0
 1073.67 768.333 1102 688.333 1102 595 c 0
 1102 559 1097.67 520.667 1089 480 c 0
 1060.33 344 988.333 228 873 132 c 0
 757.667 36 630.667 -12 492 -12 c 0
 357.333 -12 251.667 35.3333 175 130 c 0
 119.667 198.667 92 278.667 92 370 c 0
 92 404.667 96 441.333 104 480 c 0
 133.333 618.667 205.167 735.5 319.5 830.5 c 0
 433.833 925.5 561.333 973 702 973 c 0
685 892 m 0
 569 892 462.833 851.833 366.5 771.5 c 0
 270.167 691.167 210 594 186 480 c 0
 179.333 448.667 176 418.333 176 389 c 0
 176 314.333 198.333 248 243 190 c 0
 305.667 110 394.667 70 510 70 c 0
 626 70 731.833 109.833 827.5 189.5 c 0
 923.167 269.167 983 366 1007 480 c 0
 1013.67 512.667 1017 543.667 1017 573 c 0
 1017 651 993 718.333 945 775 c 0
 878.333 853 791.667 892 685 892 c 0
738 401 m 1
 813 377 l 1
 755.667 257.667 663.667 198 537 198 c 0
 470.333 198 415.333 220.333 372 265 c 0
 343.333 295 329 337.333 329 392 c 0
 329 418 332.333 447 339 479 c 0
 357 563 393.667 629.667 449 679 c 0
 507 731 578 757 662 757 c 0
 777.333 757 840.333 705.667 851 603 c 1
 770 584 l 1
 755.333 650.667 713 684 643 684 c 0
 587 684 539 663 499 621 c 0
 463.667 583.667 439.667 535.667 427 477 c 0
 421.667 449.667 419 425.333 419 404 c 0
 418.333 318 461.667 275 549 275 c 0
 634.333 275 697.333 317 738 401 c 1
EndSplineSet
EndChar
StartChar: ordfeminine
Encoding: 105 170
OldEncoding: 170
Width: 495
Flags: W
Fore
476 557 m 1
 414 510.333 353.667 487 295 487 c 0
 204.333 487 159.333 521 160 589 c 0
 160 601.667 161.667 615.333 165 630 c 0
 178.333 692 218.667 734 286 756 c 1
 354 770 l 1
 453 784 l 1
 518 797 l 1
 520.667 808.333 522 818.667 522 828 c 0
 522 874 493.667 897 437 897 c 0
 372.333 897 330.333 869.667 311 815 c 1
 226 837 l 1
 261.333 927.667 337.333 973 454 973 c 0
 565.333 973 621 934.667 621 858 c 0
 621 844.667 619.333 830.333 616 815 c 2
 574 619 l 1
 560 561 560.333 521 575 499 c 1
 478 499 l 1
 475.333 509.667 474 520.333 474 531 c 0
 474 539.667 474.667 548.333 476 557 c 1
501 721 m 1
 455.667 713 410 705.333 364 698 c 1
 302.667 682.667 268.667 660 262 630 c 0
 260.667 623.333 260 617.333 260 612 c 0
 260.667 580.667 285 565 333 565 c 0
 423 565 479 617 501 721 c 1
EndSplineSet
EndChar
StartChar: guillemotleft
Encoding: 106 171
OldEncoding: 171
Width: 743
Flags: W
Fore
295 345 m 1
 401 47 l 1
 306 47 l 1
 160 345 l 1
 432 642 l 1
 528 642 l 1
 295 345 l 1
548 345 m 1
 657 47 l 1
 558 47 l 1
 416 345 l 1
 684 642 l 1
 783 642 l 1
 548 345 l 1
EndSplineSet
EndChar
StartChar: logicalnot
Encoding: 107 172
OldEncoding: 172
Width: 781
Flags: W
Fore
765 277 m 1
 654 277 l 1
 715 563 l 1
 194 563 l 1
 217 672 l 1
 849 672 l 1
 765 277 l 1
EndSplineSet
EndChar
StartChar: minus
Encoding: 108 173
OldEncoding: 173
Width: 445
Flags: W
Fore
103 287 m 1
 128 405 l 1
 489 405 l 1
 464 287 l 1
 103 287 l 1
EndSplineSet
EndChar
StartChar: registered
Encoding: 109 174
OldEncoding: 174
Width: 985
Flags: W
Fore
702 973 m 0
 834 973 939 927 1017 835 c 0
 1073.67 768.333 1102 688.333 1102 595 c 0
 1102 559 1097.67 520.667 1089 480 c 0
 1060.33 344 988.333 228 873 132 c 0
 757.667 36 630.667 -12 492 -12 c 0
 357.333 -12 251.667 35.3333 175 130 c 0
 119.667 198.667 92 278.667 92 370 c 0
 92 404.667 96 441.333 104 480 c 0
 133.333 618.667 205.167 735.5 319.5 830.5 c 0
 433.833 925.5 561.333 973 702 973 c 0
685 892 m 0
 569 892 462.833 851.833 366.5 771.5 c 0
 270.167 691.167 210 594 186 480 c 0
 179.333 448.667 176 418.333 176 389 c 0
 176 314.333 198.333 248 243 190 c 0
 305.667 110 394.667 70 510 70 c 0
 626 70 731.833 109.833 827.5 189.5 c 0
 923.167 269.167 983 366 1007 480 c 0
 1013.67 512.667 1017 543.667 1017 573 c 0
 1017 651 993 718.333 945 775 c 0
 878.333 853 791.667 892 685 892 c 0
323 208 m 1
 436 738 l 1
 618 738 l 2
 750.667 738 817 701 817 627 c 0
 817 617 815.667 606.333 813 595 c 0
 804.333 553.667 782.667 519.333 748 492 c 0
 713.333 464.667 674.333 449 631 445 c 1
 661.667 435 693 390.667 725 312 c 2
 768 208 l 1
 663 208 l 1
 634 292 l 2
 616 343.333 602.667 375.667 594 389 c 0
 574 418.333 544.667 433 506 433 c 2
 456 433 l 1
 408 208 l 1
 323 208 l 1
472 506 m 1
 576 506 l 2
 662 506 710.667 533 722 587 c 0
 723.333 593 724 598.667 724 604 c 0
 724 645.333 683.667 666 603 666 c 2
 506 666 l 1
 472 506 l 1
EndSplineSet
EndChar
StartChar: macron
Encoding: 110 175
OldEncoding: 175
Width: 738
Flags: W
Fore
197 1022 m 1
 215 1106 l 1
 993 1106 l 1
 975 1022 l 1
 197 1022 l 1
EndSplineSet
EndChar
StartChar: degree
Encoding: 111 176
OldEncoding: 176
Width: 535
Flags: W
Fore
252 792 m 0
 262.667 842 289.167 884.667 331.5 920 c 0
 373.833 955.333 420.333 973 471 973 c 0
 521.667 973 561 955.333 589 920 c 0
 609 894.667 619 865.333 619 832 c 0
 619 819.333 617.333 806 614 792 c 0
 604 742.667 577.5 700.167 534.5 664.5 c 0
 491.5 628.833 444.667 611 394 611 c 0
 345.333 611 307 628.667 279 664 c 0
 258.333 689.333 248 718.667 248 752 c 0
 248 764.667 249.333 778 252 792 c 0
323 792 m 0
 321.667 783.333 321 775 321 767 c 0
 321 710.333 350.667 682 410 682 c 0
 444.667 682 476 695.667 504 723 c 0
 532 750.333 546 781.333 546 816 c 0
 546 840.667 537.5 861.333 520.5 878 c 0
 503.5 894.667 482.333 903 457 903 c 0
 425.667 903 397.167 892.167 371.5 870.5 c 0
 345.833 848.833 329.667 822.667 323 792 c 0
EndSplineSet
EndChar
StartChar: plusminus
Encoding: 112 177
OldEncoding: 177
Width: 734
Flags: W
Fore
347 170 m 1
 403 433 l 1
 143 433 l 1
 166 542 l 1
 426 542 l 1
 481 802 l 1
 592 802 l 1
 537 542 l 1
 798 542 l 1
 775 433 l 1
 514 433 l 1
 458 170 l 1
 347 170 l 1
683 0 m 1
 51 0 l 1
 74 110 l 1
 706 110 l 1
 683 0 l 1
EndSplineSet
EndChar
StartChar: twosuperior
Encoding: 113 178
OldEncoding: 178
Width: 445
Flags: W
Fore
118 478 m 1
 134 532.667 203 598.667 325 676 c 0
 386.333 715.333 418 735.667 420 737 c 0
 463.333 768.333 487.333 796 492 820 c 0
 494 826.667 495 833 495 839 c 0
 495 874.333 469.333 892 418 892 c 0
 364.667 892 326.333 867 303 817 c 1
 206 828 l 1
 249.333 922 326 969 436 969 c 0
 546 969 601 935.333 601 868 c 0
 601 830 586 791.667 556 753 c 0
 535.333 725 476.667 681 380 621 c 0
 342 597 311.667 575.667 289 557 c 1
 541 557 l 1
 525 478 l 1
 118 478 l 1
EndSplineSet
EndChar
StartChar: threesuperior
Encoding: 114 179
OldEncoding: 179
Width: 445
Flags: W
Fore
151 606 m 1
 248 616 l 1
 252 567.333 280 543 332 543 c 0
 400.667 543 441.333 572 454 630 c 0
 455.333 636 456 641.667 456 647 c 0
 456 683.667 425.667 702 365 702 c 1
 344 700 l 1
 329 700 l 1
 359 771 l 1
 426.333 771 464.667 793.333 474 838 c 0
 475.333 843.333 476 848.333 476 853 c 0
 476 881.667 453.667 896 409 896 c 0
 363 896 327.333 874 302 830 c 1
 213 845 l 1
 259.667 927.667 330.333 969 425 969 c 0
 529.667 969 582 938 582 876 c 0
 582 866.667 581 857 579 847 c 0
 568.333 795.667 531 760.667 467 742 c 1
 526.333 726.667 556 695 556 647 c 0
 556 637.667 555 627.667 553 617 c 0
 543 568.333 513.667 530.333 465 503 c 0
 423 479 375.333 467 322 467 c 0
 206 467 149 513.333 151 606 c 1
EndSplineSet
EndChar
StartChar: acute
Encoding: 115 180
OldEncoding: 180
Width: 445
Flags: W
Fore
311 779 m 1
 436 962 l 1
 590 962 l 1
 408 779 l 1
 311 779 l 1
EndSplineSet
EndChar
StartChar: mu
Encoding: 116 181
OldEncoding: 181
Width: 770
Flags: W
Fore
811 693 m 1
 664 0 l 1
 559 0 l 1
 576 82 l 1
 524 16.6667 459.667 -16 383 -16 c 0
 315.667 -16 266.667 12.6667 236 70 c 1
 164 -266 l 1
 47 -266 l 1
 251 693 l 1
 368 693 l 1
 306 399 l 1
 280.667 281.667 274.667 201 288 157 c 0
 300.667 112.333 338 90 400 90 c 0
 474 90 530.333 124.667 569 194 c 0
 591.667 234 613 301.667 633 397 c 1
 696 693 l 1
 811 693 l 1
EndSplineSet
EndChar
StartChar: paragraph
Encoding: 117 182
OldEncoding: 182
Width: 718
Flags: W
Fore
207 -266 m 1
 352 416 l 1
 277.333 416 220.333 440.667 181 490 c 0
 152.333 524 138 565.667 138 615 c 0
 138 635.667 140.667 657.667 146 681 c 0
 164.667 771 207.667 840 275 888 c 0
 339 934 418 957 512 957 c 2
 926 957 l 1
 902 844 l 1
 808 844 l 1
 572 -266 l 1
 461 -266 l 1
 697 844 l 1
 551 844 l 1
 315 -266 l 1
 207 -266 l 1
EndSplineSet
EndChar
StartChar: periodcentered
Encoding: 118 183
OldEncoding: 183
Width: 371
Flags: W
Fore
207 404 m 1
 235 538 l 1
 369 538 l 1
 341 404 l 1
 207 404 l 1
EndSplineSet
EndChar
StartChar: cedilla
Encoding: 119 184
OldEncoding: 184
Width: 445
Flags: W
Fore
120 -101 m 1
 178 15 l 1
 265 15 l 1
 229 -55 l 1
 291 -61.6667 322 -86.3333 322 -129 c 0
 322 -166.333 301 -201.667 259 -235 c 0
 225 -261.667 174 -275 106 -275 c 0
 72 -275 41 -272.333 13 -267 c 1
 36 -191 l 1
 97 -193 l 2
 166.333 -195 204.667 -178.667 212 -144 c 0
 218.667 -115.333 188 -101 120 -101 c 1
EndSplineSet
EndChar
StartChar: onesuperior
Encoding: 120 185
OldEncoding: 185
Width: 445
Flags: W
Fore
318 478 m 1
 395 840 l 1
 345 806 291 781.333 233 766 c 1
 250 847 l 1
 320.667 869.667 386 910.333 446 969 c 1
 517 969 l 1
 413 478 l 1
 318 478 l 1
EndSplineSet
EndChar
StartChar: ordmasculine
Encoding: 121 186
OldEncoding: 186
Width: 488
Flags: W
Fore
450 973 m 0
 522.667 973 571.333 948.667 596 900 c 0
 612 868.667 620 834 620 796 c 0
 620 774.667 617.667 752 613 728 c 0
 597.667 658 567.667 600.667 523 556 c 0
 473.667 507.333 415 483 347 483 c 0
 293.667 483 251.667 498.333 221 529 c 0
 190.333 559.667 175 601.333 175 654 c 0
 175 676 177.667 699.667 183 725 c 0
 198.333 795.667 228.333 853.667 273 899 c 0
 321.667 948.333 380.667 973 450 973 c 0
431 886 m 0
 353 886 303 833.333 281 728 c 0
 276.333 705.333 273.667 685.333 273 668 c 0
 272.333 602 302.667 569 364 569 c 0
 442.667 569 493.333 623 516 731 c 0
 521.333 754.333 524 775 524 793 c 0
 523.333 855 492.333 886 431 886 c 0
EndSplineSet
EndChar
StartChar: guillemotright
Encoding: 122 187
OldEncoding: 187
Width: 743
Flags: W
Fore
589 345 m 1
 482 642 l 1
 579 642 l 1
 724 345 l 1
 453 47 l 1
 357 47 l 1
 589 345 l 1
337 345 m 1
 227 642 l 1
 326 642 l 1
 468 345 l 1
 200 47 l 1
 101 47 l 1
 337 345 l 1
EndSplineSet
EndChar
StartChar: onequarter
Encoding: 123 188
OldEncoding: 188
Width: 1115
Flags: W
Fore
156 -37 m 1
 1091 973 l 1
 1193 973 l 1
 259 -37 l 1
 156 -37 l 1
318 478 m 1
 395 840 l 1
 345 806 291 781.333 233 766 c 1
 250 847 l 1
 320.667 869.667 386 910.333 446 969 c 1
 517 969 l 1
 413 478 l 1
 318 478 l 1
929 -20 m 1
 950 80 l 1
 700 80 l 1
 717 161 l 1
 1048 470 l 1
 1127 470 l 1
 1059 151 l 1
 1127 151 l 1
 1112 80 l 1
 1044 80 l 1
 1023 -20 l 1
 929 -20 l 1
965 151 m 1
 1001 322 l 1
 815 151 l 1
 965 151 l 1
EndSplineSet
EndChar
StartChar: onehalf
Encoding: 124 189
OldEncoding: 189
Width: 1115
Flags: W
Fore
141 -37 m 1
 1074 973 l 1
 1177 973 l 1
 243 -37 l 1
 141 -37 l 1
318 478 m 1
 395 840 l 1
 345 806 291 781.333 233 766 c 1
 250 847 l 1
 320.667 869.667 386 910.333 446 969 c 1
 517 969 l 1
 413 478 l 1
 318 478 l 1
681 -20 m 1
 691.667 32 760.667 98 888 178 c 0
 992.667 243.333 1048 291 1054 321 c 0
 1055.33 327.667 1056 334 1056 340 c 0
 1056 374.667 1030.33 392 979 392 c 0
 929.667 392 891.667 367.667 865 319 c 1
 768 328 l 1
 812 422.667 888.667 470 998 470 c 0
 1108.67 470 1164 436.333 1164 369 c 0
 1164 359 1163 348.333 1161 337 c 0
 1151.67 293.667 1122.33 251.333 1073 210 c 0
 1051.67 192 1008.33 162.333 943 121 c 0
 901.667 95 871.333 74.3333 852 59 c 1
 1104 59 l 1
 1087 -20 l 1
 681 -20 l 1
EndSplineSet
EndChar
StartChar: threequarters
Encoding: 125 190
OldEncoding: 190
Width: 1115
Flags: W
Fore
156 -37 m 1
 1090 973 l 1
 1193 973 l 1
 259 -37 l 1
 156 -37 l 1
151 606 m 1
 248 616 l 1
 252 567.333 280 543 332 543 c 0
 400.667 543 441.333 572 454 630 c 0
 455.333 636.667 456 642.667 456 648 c 0
 456 687.333 426.333 705.333 367 702 c 2
 329 700 l 1
 359 771 l 1
 426.333 771 464.667 793.333 474 838 c 0
 475.333 843.333 476 848.333 476 853 c 0
 476 881.667 453.667 896 409 896 c 0
 363 896 327.333 874 302 830 c 1
 213 845 l 1
 259.667 927.667 330.333 969 425 969 c 0
 529.667 969 582 938 582 876 c 0
 582 866.667 581 857 579 847 c 0
 568.333 795.667 531 760.667 467 742 c 1
 526.333 726.667 556 695 556 647 c 0
 556 637.667 555 627.667 553 617 c 0
 543 568.333 513.667 530.333 465 503 c 0
 423 479 375.333 467 322 467 c 0
 206 467 149 513.333 151 606 c 1
929 -20 m 1
 950 80 l 1
 700 80 l 1
 717 161 l 1
 1047 470 l 1
 1127 470 l 1
 1059 151 l 1
 1127 151 l 1
 1112 80 l 1
 1044 80 l 1
 1023 -20 l 1
 929 -20 l 1
965 151 m 1
 1001 322 l 1
 815 151 l 1
 965 151 l 1
EndSplineSet
EndChar
StartChar: questiondown
Encoding: 126 191
OldEncoding: 191
Width: 817
Flags: W
Fore
625 693 m 1
 597 559 l 1
 464 559 l 1
 492 693 l 1
 625 693 l 1
568 458 m 1
 561 424 l 2
 547 358.667 522.667 304.667 488 262 c 0
 463.333 232 418 193 352 145 c 0
 262.667 79.6667 218 16.3333 218 -45 c 0
 218 -77 228.667 -106 250 -132 c 0
 278 -166 318 -183 370 -183 c 0
 476.667 -183 554 -118.667 602 10 c 1
 719 -4 l 1
 654.333 -188 531.667 -280 351 -280 c 0
 256.333 -280 187 -254.667 143 -204 c 0
 109.667 -166 93 -122 93 -72 c 0
 93 -55.3333 95 -37.6667 99 -19 c 0
 115.667 59 181 140.333 295 225 c 0
 349.667 265.667 386 298 404 322 c 0
 425.333 352 442.333 397.333 455 458 c 1
 568 458 l 1
EndSplineSet
EndChar
StartChar: AE
Encoding: 133 198
OldEncoding: 198
Width: 1337
Flags: W
Fore
1 0 m 1
 664 957 l 1
 1449 957 l 1
 1425 844 l 1
 944 844 l 1
 882 550 l 1
 1329 550 l 1
 1305 437 l 1
 858 437 l 1
 789 113 l 1
 1288 113 l 1
 1264 0 l 1
 638 0 l 1
 697 276 l 1
 327 276 l 1
 138 0 l 1
 1 0 l 1
404 388 m 1
 720 388 l 1
 817 844 l 1
 722 844 l 1
 404 388 l 1
EndSplineSet
EndChar
StartChar: Eth
Encoding: 143 208
OldEncoding: 208
Width: 965
Flags: W
Fore
103 0 m 1
 195 435 l 1
 90 435 l 1
 109 522 l 1
 214 522 l 1
 306 957 l 1
 636 957 l 2
 732 957 804.333 946.667 853 926 c 0
 919 898 966 845.333 994 768 c 0
 1008 729.333 1015 684.667 1015 634 c 0
 1015 589.333 1009 539.333 997 484 c 0
 928.333 161.333 745.333 1.38778e-17 448 0 c 2
 103 0 l 1
254 113 m 1
 458 113 l 2
 534.667 113 595.667 122.667 641 142 c 0
 693.667 164 739.833 204.333 779.5 263 c 0
 819.167 321.667 848.333 395.667 867 485 c 0
 877 533 882 576.333 882 615 c 0
 882 713 853 778.333 795 811 c 0
 755.667 833 694 844 610 844 c 2
 409 844 l 1
 341 522 l 1
 604 522 l 1
 585 435 l 1
 322 435 l 1
 254 113 l 1
EndSplineSet
EndChar
StartChar: multiply
Encoding: 150 215
OldEncoding: 215
Width: 781
Flags: W
Fore
162 267 m 1
 412 473 l 1
 250 677 l 1
 346 757 l 1
 507 552 l 1
 756 756 l 1
 817 677 l 1
 570 473 l 1
 731 268 l 1
 635 189 l 1
 474 394 l 1
 224 188 l 1
 162 267 l 1
EndSplineSet
EndChar
StartChar: Oslash
Encoding: 151 216
OldEncoding: 216
Width: 1040
Flags: W
Fore
1001 869 m 1
 1137 992 l 1
 1189 937 l 1
 1047 808 l 1
 1077.67 746 1093 678.333 1093 605 c 0
 1093 564.333 1088.33 522 1079 478 c 0
 1048.33 335.333 984.333 218.667 887 128 c 0
 783.667 32 661.333 -16 520 -16 c 0
 416 -16 324.667 17.3333 246 84 c 1
 111 -39 l 1
 57 16 l 1
 200 145 l 1
 167.333 215.667 151 288.333 151 363 c 0
 151 400.333 155 438 163 476 c 0
 193.667 620 258.667 737.333 358 828 c 0
 462 924.667 585.667 973 729 973 c 0
 837 973 927.667 938.333 1001 869 c 1
904 781 m 1
 847.333 837 781.333 865 706 865 c 0
 596.667 865 504.667 826.667 430 750 c 0
 364 681.333 319 590.667 295 478 c 0
 286.333 438 282 400 282 364 c 0
 282 318.667 288.333 276 301 236 c 1
 904 781 l 1
943 714 m 1
 342 171 l 1
 395.333 118.333 461 92 539 92 c 0
 644.333 92 734.667 130.667 810 208 c 0
 878.667 277.333 924.667 366.333 948 475 c 0
 956.667 515.667 961 554.333 961 591 c 0
 961 635 955 676 943 714 c 1
EndSplineSet
EndChar
StartChar: Thorn
Encoding: 157 222
OldEncoding: 222
Width: 892
Flags: W
Fore
103 0 m 1
 306 957 l 1
 433 957 l 1
 392 762 l 1
 626 762 l 2
 838.667 762 945 696.333 945 565 c 0
 945 541 942 514.333 936 485 c 0
 894.667 291.667 754.667 195 516 195 c 2
 271 195 l 1
 230 0 l 1
 103 0 l 1
295 307 m 1
 542 307 l 2
 692.667 307 780.333 365 805 481 c 0
 809 498.333 811 514.333 811 529 c 0
 811 609 745 649 613 649 c 2
 368 649 l 1
 295 307 l 1
EndSplineSet
EndChar
StartChar: germandbls
Encoding: 158 223
OldEncoding: 223
Width: 817
Flags: W
Fore
100 0 m 1
 239 652 l 1
 284.333 866 400 973 586 973 c 0
 640 973 686 961 724 937 c 0
 769.333 909 792 869.667 792 819 c 0
 792 775 761.667 711.667 701 629 c 2
 647 556 l 2
 637 542 632 526.667 632 510 c 0
 632 483.333 655.667 452 703 416 c 0
 754.333 378 789 344 807 314 c 0
 817.667 294.667 823 272.667 823 248 c 0
 823 234 821.333 219.333 818 204 c 0
 804.667 140 770.5 87.3333 715.5 46 c 0
 660.5 4.66667 600 -16 534 -16 c 0
 425.333 -16 357.333 36.3333 330 141 c 1
 441 188 l 1
 461.667 116 498.667 80 552 80 c 0
 586.667 80 619.667 93 651 119 c 0
 682.333 145 698 174.667 698 208 c 0
 698 241.333 674.667 276.667 628 314 c 0
 565.333 364 528.333 401.667 517 427 c 0
 509 443 505 459.667 505 477 c 0
 505 485 506 493.333 508 502 c 0
 514.667 533.333 544.667 582.667 598 650 c 0
 647.333 712 672 758.667 672 790 c 0
 672 848 635.333 877 562 877 c 0
 456 877 387 800.333 355 647 c 1
 217 0 l 1
 100 0 l 1
EndSplineSet
EndChar
StartChar: ae
Encoding: 165 230
OldEncoding: 230
Width: 1189
Flags: W
Fore
1177 212 m 1
 1097 60 979 -16 823 -16 c 0
 716.333 -16 639.333 27.3333 592 114 c 1
 488 27.3333 383.333 -16 278 -16 c 0
 196 -16 140.333 5 111 47 c 0
 89.6667 77 79 109.667 79 145 c 0
 79 157 80.3333 169.667 83 183 c 0
 109 305 227 379 437 405 c 0
 501 413 558.333 423.667 609 437 c 1
 614 463 l 1
 618.667 484.333 621 503 621 519 c 0
 621 581 578 612 492 612 c 0
 382.667 612 312 567.333 280 478 c 1
 168 492 l 1
 228 636.667 343.667 709 515 709 c 0
 639 709 712.333 677.667 735 615 c 1
 803 677.667 883.667 709 977 709 c 0
 1074.33 709 1142.67 675.333 1182 608 c 0
 1208.67 562.667 1222 511.667 1222 455 c 0
 1222 423.667 1218 390.667 1210 356 c 1
 1200 317 l 1
 699 317 l 1
 692.333 285.667 689 257.667 689 233 c 0
 689 131.667 742 81 848 81 c 0
 942 81 1011.67 130 1057 228 c 1
 1177 212 l 1
720 413 m 1
 1102 413 l 1
 1104 429.667 1105 445.667 1105 461 c 0
 1105 561.667 1055.33 612 956 612 c 0
 898.667 612 848 593 804 555 c 0
 760 517 732 469.667 720 413 c 1
592 348 m 1
 517.333 332.667 443 317.667 369 303 c 1
 273.667 279.667 220.333 241 209 187 c 0
 206.333 176.333 205 166.333 205 157 c 0
 205 103.667 243.333 77 320 77 c 0
 363.333 77 406 87.3333 448 108 c 0
 493.333 130 525.667 159 545 195 c 0
 560.333 222.333 576 273.333 592 348 c 1
EndSplineSet
EndChar
StartChar: eth
Encoding: 175 240
OldEncoding: 240
Width: 743
Flags: W
Fore
404 957 m 1
 546 957 l 1
 574 931 596.333 908.667 613 890 c 1
 767 957 l 1
 782 890 l 1
 659 836 l 1
 737 716.667 776 595 776 471 c 0
 776 427 771.333 383.333 762 340 c 0
 740 237.333 695 153.333 627 88 c 0
 553.667 18.6667 466.333 -16 365 -16 c 0
 259 -16 186 17.3333 146 84 c 0
 120.667 127.333 108 177.667 108 235 c 0
 108 267 112 301 120 337 c 0
 140.667 437 181.667 519.333 243 584 c 0
 311.667 656.667 394 693 490 693 c 0
 534.667 693 578 680.333 620 655 c 1
 606 706.333 585 752.667 557 794 c 1
 360 711 l 1
 345 778 l 1
 516 849 l 1
 482.667 888.333 445.333 924.333 404 957 c 1
641 345 m 0
 647.667 375.667 651 403.667 651 429 c 0
 651 472.333 641.333 508 622 536 c 0
 592 580.667 548.667 603 492 603 c 0
 410.667 603 344.667 561.667 294 479 c 0
 249.333 407 227.333 327.333 228 240 c 0
 228 196 238.333 162 259 138 c 0
 291.667 99.3333 333.333 80 384 80 c 0
 452 80 510 108.333 558 165 c 0
 598 212.333 625.667 272.333 641 345 c 0
EndSplineSet
EndChar
StartChar: divide
Encoding: 182 247
OldEncoding: 247
Width: 734
Flags: W
Fore
428 602 m 1
 456 736 l 1
 589 736 l 1
 561 602 l 1
 428 602 l 1
772 417 m 1
 140 417 l 1
 163 527 l 1
 795 527 l 1
 772 417 l 1
344 208 m 1
 373 342 l 1
 506 342 l 1
 477 208 l 1
 344 208 l 1
EndSplineSet
EndChar
StartChar: oslash
Encoding: 183 248
OldEncoding: 248
Width: 817
Flags: W
Fore
742 652 m 1
 824 736 l 1
 877 690 l 1
 789 600 l 1
 811.667 559.333 823 511 823 455 c 0
 823 421.667 819 385.333 811 346 c 0
 787.667 238 742.667 152 676 88 c 0
 603.333 18.6667 514 -16 408 -16 c 0
 338 -16 280.667 1.66667 236 37 c 1
 148 -52 l 1
 97 -5 l 1
 186 87 l 1
 160 125.667 147 174 147 232 c 0
 147 264 151 299 159 337 c 0
 181.667 445.667 226 533.333 292 600 c 0
 364 672.667 453.333 709 560 709 c 0
 625.333 709 686 690 742 652 c 1
657 566 m 1
 623.667 596.667 585.667 612 543 612 c 0
 460.333 612 392.667 572 340 492 c 0
 294 421.333 271 342.333 271 255 c 0
 271 228.333 274.333 204.333 281 183 c 1
 657 566 l 1
693 503 m 1
 319 122 l 1
 347.667 94.6667 383 81 425 81 c 0
 496.333 81 556.333 108.333 605 163 c 0
 646.333 210.333 675 271.667 691 347 c 0
 697.667 380.333 701 410.667 701 438 c 0
 701 462 698.333 483.667 693 503 c 1
EndSplineSet
EndChar
StartChar: thorn
Encoding: 189 254
OldEncoding: 254
Width: 743
Flags: W
Fore
31 -266 m 1
 291 957 l 1
 409 957 l 1
 338 620 l 1
 402.667 679.333 472.333 709 547 709 c 0
 637.667 709 702.333 676.333 741 611 c 0
 765 569 777 519.333 777 462 c 0
 777 428 773 391.333 765 352 c 0
 743.667 251.333 701 167 637 99 c 0
 565.667 22.3333 481.667 -16 385 -16 c 0
 315.667 -16 261 13.3333 221 72 c 1
 149 -266 l 1
 31 -266 l 1
268 343 m 0
 259.333 303.667 255 269.333 255 240 c 0
 255 196 264.333 162.667 283 140 c 0
 313 100.667 351 81 397 81 c 0
 463.667 81 520 111 566 171 c 0
 603.333 219 629.667 279.333 645 352 c 0
 652.333 388 656 420.333 656 449 c 0
 656 490.333 648.333 524.333 633 551 c 0
 605.667 595 566.667 617 516 617 c 0
 452.667 617 397 586 349 524 c 0
 309.667 473.333 282.667 413 268 343 c 0
EndSplineSet
EndChar
StartChar: dotlessi
Encoding: 191 305
OldEncoding: 305
Width: 371
Flags: W
Fore
129 0 m 1
 276 693 l 1
 394 693 l 1
 247 0 l 1
 129 0 l 1
EndSplineSet
EndChar
StartChar: OE
Encoding: 192 338
OldEncoding: 338
Width: 1337
Flags: W
Fore
1318 113 m 1
 1294 0 l 1
 732 0 l 1
 761 138 l 1
 681 35.3333 583.333 -16 468 -16 c 0
 344 -16 258 29 210 119 c 0
 181.333 173 167 237.667 167 313 c 0
 167 363.667 173.333 419.333 186 480 c 0
 216 622 269 736 345 822 c 0
 433.667 922.667 544.667 973 678 973 c 0
 792 973 868.667 924.667 908 828 c 1
 935 957 l 1
 1477 957 l 1
 1453 844 l 1
 1029 844 l 1
 967 552 l 1
 1358 552 l 1
 1334 439 l 1
 943 439 l 1
 874 113 l 1
 1318 113 l 1
655 871 m 0
 485 871 371.667 737.333 315 470 c 0
 302.333 410 296 357.667 296 313 c 0
 296 251 308 203.667 332 171 c 0
 374 114.333 426 86 488 86 c 0
 657.333 86 770.333 219.333 827 486 c 0
 840.333 546.667 847 599.667 847 645 c 0
 847 707 834.667 754.333 810 787 c 0
 768 843 716.333 871 655 871 c 0
EndSplineSet
EndChar
StartChar: oe
Encoding: 193 339
OldEncoding: 339
Width: 1262
Flags: W
Fore
662 114 m 1
 580 27.3333 485 -16 377 -16 c 0
 278.333 -16 205.667 15.3333 159 78 c 0
 128.333 119.333 113.333 171.667 114 235 c 0
 114 266.333 118 300.667 126 338 c 0
 149.333 448.667 194.333 536.667 261 602 c 0
 333.667 673.333 424 709 532 709 c 0
 646.667 709 722.667 664.667 760 576 c 1
 841.333 664.667 935.667 709 1043 709 c 0
 1126.33 709 1194 679.667 1246 621 c 0
 1279.33 584.333 1296 530.333 1296 459 c 0
 1296 417 1290.33 369 1279 315 c 1
 767 315 l 1
 761.667 289.667 759 266.667 759 246 c 0
 759 200.667 771 165 795 139 c 0
 830.333 100.333 873.333 81 924 81 c 0
 1014.67 81 1084.33 129.333 1133 226 c 1
 1247 209 l 1
 1175.67 59 1060.67 -16 902 -16 c 0
 785.333 -16 705.333 27.3333 662 114 c 1
248 348 m 0
 241.333 316.667 238 287.333 238 260 c 0
 238 222 244.667 188 258 158 c 0
 280 106.667 325.333 81 394 81 c 0
 461.333 81 519.667 110 569 168 c 0
 611 217.333 639.667 277.667 655 349 c 0
 661.667 381 665 410.333 665 437 c 0
 665 481 655.667 517 637 545 c 0
 606.333 589.667 563 612 507 612 c 0
 439.667 612 381.667 584 333 528 c 0
 291.667 480 263.333 420 248 348 c 0
793 412 m 1
 1176 412 l 1
 1179.33 428.667 1181 444.667 1181 460 c 0
 1181 495.333 1171.67 526.667 1153 554 c 0
 1125.67 592.667 1084.33 612 1029 612 c 0
 973.667 612 923.333 592.5 878 553.5 c 0
 832.667 514.5 804.333 467.333 793 412 c 1
EndSplineSet
EndChar
StartChar: florin
Encoding: 197 402
OldEncoding: 402
Width: 743
Flags: W
Fore
-26 -264 m 1
 18 -163 l 1
 64.6667 -173 96.6667 -178 114 -178 c 0
 158.667 -178 193.667 -144.667 219 -78 c 2
 479 602 l 1
 348 602 l 1
 383 693 l 1
 514 693 l 1
 548 780 l 2
 572.667 844.667 599.333 891.333 628 920 c 0
 665.333 956 714.333 974 775 974 c 0
 810.333 974 855.333 965.667 910 949 c 1
 865 849 l 1
 825 859.667 793 865 769 865 c 0
 738.333 865 714.667 854.667 698 834 c 0
 687.333 821.333 675 796.667 661 760 c 1
 634 693 l 1
 767 693 l 1
 732 602 l 1
 599 602 l 1
 322 -111 l 2
 278 -224.333 209.333 -281 116 -281 c 0
 71.3333 -281 24 -275.333 -26 -264 c 1
EndSplineSet
EndChar
StartChar: circumflex
Encoding: 198 710
OldEncoding: 710
Width: 445
Flags: W
Fore
414 890 m 1
 317 779 l 1
 182 779 l 1
 361 962 l 1
 487 962 l 1
 595 779 l 1
 462 779 l 1
 414 890 l 1
EndSplineSet
EndChar
StartChar: caron
Encoding: 199 711
OldEncoding: 711
Width: 445
Flags: W
Fore
415 851 m 1
 510 962 l 1
 643 962 l 1
 458 779 l 1
 333 779 l 1
 230 962 l 1
 365 962 l 1
 415 851 l 1
EndSplineSet
EndChar
StartChar: ring
Encoding: 201 730
OldEncoding: 730
Width: 445
Flags: W
Fore
292 873 m 0
 298.667 905 315.667 932.5 343 955.5 c 0
 370.333 978.5 400.333 990 433 990 c 0
 459.667 990 482.333 981.5 501 964.5 c 0
 519.667 947.5 529 926 529 900 c 0
 529 890.667 528 881 526 871 c 0
 519.333 838.333 502.167 810.167 474.5 786.5 c 0
 446.833 762.833 416.667 751 384 751 c 0
 356.667 751 333.833 759.333 315.5 776 c 0
 297.167 792.667 288 814 288 840 c 0
 288 850 289.333 861 292 873 c 0
341 873 m 0
 339 864.333 338 856.333 338 849 c 0
 338 816.333 357 800 395 800 c 0
 413 800 430.5 807.333 447.5 822 c 0
 464.5 836.667 475 853 479 871 c 0
 481 879.667 482 887.333 482 894 c 0
 482 926 463 942 425 942 c 0
 378.333 942 350.333 919 341 873 c 0
EndSplineSet
EndChar
StartChar: tilde
Encoding: 202 732
OldEncoding: 732
Width: 445
Flags: W
Fore
174 796 m 1
 195.333 894.667 250 944 338 944 c 0
 364.667 944 398.667 932.333 440 909 c 0
 462.667 896.333 482 890 498 890 c 0
 524.667 890 544.333 908.667 557 946 c 1
 642 946 l 1
 621.333 847.333 568.333 798 483 798 c 0
 454.333 798 420.667 810 382 834 c 0
 356.667 850 337 858 323 858 c 0
 289.667 858 268.667 837.333 260 796 c 1
 174 796 l 1
EndSplineSet
EndChar
StartChar: uni0E01
Encoding: 205 3585
OldEncoding: 3585
Width: 838
Flags: W
Fore
694 0 m 1
 602 0 l 1
 721 559 l 2
 723.667 572.333 725 585 725 597 c 0
 725 673 664.667 711 544 711 c 0
 488 711 434 700.667 382 680 c 1
 352 666 l 1
 365 659 l 1
 421 623 l 1
 471 580 l 1
 483 565 l 1
 446 557 l 2
 420 551 396.667 537.333 376 516 c 1
 342.667 488.667 321.667 454 313 412 c 1
 225 0 l 1
 133 0 l 1
 225 430 l 1
 228.333 448.667 234.333 464.333 243 477 c 2
 270 520 l 1
 282.667 534 296.333 546.333 311 557 c 1
 332 569 l 1
 322 580 l 1
 300 597.333 280.667 609.333 264 616 c 2
 215 637 l 1
 169 651 l 1
 208.333 689.667 272.333 724.667 361 756 c 0
 430.333 780.667 496 793 558 793 c 0
 640.667 793 706 775.667 754 741 c 0
 798 709.667 820 667.333 820 614 c 0
 820 598 818 581 814 563 c 2
 694 0 l 1
EndSplineSet
EndChar
StartChar: uni0E02
Encoding: 206 3586
OldEncoding: 3586
Width: 866
Flags: W
Fore
742 158 m 2
 736.667 133.333 731.667 115.333 727 104 c 1
 723 88 714.333 73.6667 701 61 c 1
 665 20.3333 620.333 -1.73472e-18 567 0 c 2
 244 0 l 1
 262 88 l 1
 361 88 l 1
 433 426 l 1
 447 455 l 1
 494 524 l 2
 514 553.333 526.667 580 532 604 c 1
 534 645 l 1
 536 667.667 523.333 686 496 700 c 0
 473.333 711.333 449.667 717 425 717 c 1
 391 713 l 1
 409.667 704.333 422.333 693.333 429 680 c 1
 432.333 676 436 657.667 440 625 c 1
 437 600 l 2
 432.333 563.333 415.833 533 387.5 509 c 0
 359.167 485 326.333 473 289 473 c 1
 254.333 469.667 225.167 476.5 201.5 493.5 c 0
 177.833 510.5 166 536 166 570 c 0
 166 580.667 167 592 169 604 c 0
 181 658.667 208.167 703.5 250.5 738.5 c 0
 292.833 773.5 341.667 791 397 791 c 0
 535 791 611.333 748.667 626 664 c 1
 627 627 l 1
 624 604 l 1
 618.667 578.667 612 559.667 604 547 c 2
 567 489 l 2
 540.333 447.667 525 417 521 397 c 1
 455 88 l 1
 566 88 l 2
 612 88 640 112 650 160 c 1
 784 788 l 1
 876 788 l 1
 742 158 l 2
318 668 m 0
 301.333 668 285 661 269 647 c 0
 258.333 636.333 249.667 622 243 604 c 0
 241.667 596.667 241 590.333 241 585 c 0
 241 557 257.667 543 291 543 c 0
 332.333 543 357.333 564 366 606 c 0
 368 613.333 369 620 369 626 c 0
 369 654 352 668 318 668 c 0
EndSplineSet
EndChar
StartChar: uni0E03
Encoding: 207 3587
OldEncoding: 3587
Width: 905
Flags: W
Fore
771 92 m 1
 763 76 755 63 747 53 c 0
 713 12.3333 668.333 -8 613 -8 c 2
 318 -8 l 1
 336 80 l 1
 431 80 l 1
 533 559 l 1
 552 573 l 2
 582 595 599 614.333 603 631 c 0
 606.333 642.333 598 660 578 684 c 1
 560 698 l 1
 451 649 l 1
 372 698 l 1
 344 687.333 324 673.667 312 657 c 2
 280 614 l 1
 265 584 l 1
 288.333 593.333 307.667 597.333 323 596 c 2
 352 594 l 1
 377 588 l 2
 412.333 579.333 430 554 430 512 c 0
 430 499.333 428.333 485 425 469 c 0
 407.667 387 358 346 276 346 c 0
 197.333 346 158 386.333 158 467 c 0
 158 485 160.333 504.667 165 526 c 0
 190.333 646.667 260 732.667 374 784 c 1
 467 723 l 1
 589 784 l 1
 617 764 l 2
 634.333 751.333 648.333 736.333 659 719 c 2
 692 664 l 1
 698 651 l 1
 688 606 l 1
 659 578 l 1
 623 549 l 1
 523 80 l 1
 613 80 l 2
 636.333 80 655.667 86.6667 671 100 c 1
 679.667 111.333 688 128.667 696 152 c 1
 829 780 l 1
 924 780 l 1
 771 92 l 1
289 406 m 0
 332.333 406 358.667 427 368 469 c 0
 369.333 476.333 370 483 370 489 c 0
 370 518.333 352 533.667 316 535 c 0
 264 536.333 238 510 238 456 c 0
 238 442 243 429.333 253 418 c 0
 261.667 410 273.667 406 289 406 c 0
EndSplineSet
EndChar
StartChar: uni0E04
Encoding: 208 3588
OldEncoding: 3588
Width: 819
Flags: W
Fore
670 0 m 1
 578 0 l 1
 689 526 l 1
 693 543.333 695 559.333 695 574 c 0
 696.333 665.333 632.333 711 503 711 c 0
 365 711 273.667 644 229 510 c 1
 221.667 475.333 218 445 218 419 c 0
 218 383 225.333 356 240 338 c 1
 258 424 l 2
 266 461.333 285.333 493.5 316 520.5 c 0
 346.667 547.5 380.667 561 418 561 c 0
 491.333 561 528 532.667 528 476 c 0
 528 470 527.667 463.667 527 457 c 2
 524 430 l 1
 516.667 378 483.667 339.667 425 315 c 1
 397 307 l 1
 370 305 l 1
 336 309 l 1
 323 313 l 1
 256 0 l 1
 164 0 l 1
 192 131 l 2
 196.667 153.667 196.333 175 191 195 c 1
 152 332 l 1
 134.667 395.333 132 455.333 144 512 c 0
 162 598 209 667 285 719 c 0
 356.333 768.333 437.667 793 529 793 c 0
 703 793 790 727.333 790 596 c 0
 790 575.333 787.333 553.333 782 530 c 1
 670 0 l 1
380 371 m 0
 420.667 371 445.333 391.333 454 432 c 0
 456 440 457 447 457 453 c 0
 457 481.667 440 496 406 496 c 0
 371.333 496 346.333 474.667 331 432 c 1
 329.667 424.667 329 418 329 412 c 0
 329 384.667 346 371 380 371 c 0
EndSplineSet
EndChar
StartChar: uni0E05
Encoding: 209 3589
OldEncoding: 3589
Width: 791
Flags: W
Fore
635 0 m 1
 543 0 l 1
 665 578 l 2
 667.667 590 668.667 600 668 608 c 1
 668.667 611.333 669 615 669 619 c 0
 669 633.667 662.5 650.667 649.5 670 c 0
 636.5 689.333 623 702.333 609 709 c 1
 486 631 l 1
 394 715 l 1
 343.333 689.667 306.333 667 283 647 c 0
 213 588.333 186.333 492 203 358 c 0
 209 308.667 214.667 278 220 266 c 1
 226 301 l 1
 232 342.333 246 386 268 432 c 0
 300.667 502 348.333 545.667 411 563 c 0
 425 567 439 569 453 569 c 0
 479 569 502.667 561.333 524 546 c 0
 548 529.333 559 508.333 557 483 c 1
 554 430 l 1
 537.333 349.333 483 309 391 309 c 0
 365 309 343.667 314 327 324 c 2
 316 332 l 1
 289 260 l 1
 263 160 l 1
 246 78 l 1
 231 0 l 1
 135 0 l 1
 140 63 l 1
 142.667 93.6667 142.333 120.333 139 143 c 2
 114 307 l 1
 104.667 371 108 440 124 514 c 0
 150 638 251.667 731 429 793 c 1
 504 723 l 1
 619 793 l 1
 663.667 785.667 700.667 760.333 730 717 c 0
 749.333 687.667 759 653 759 613 c 0
 759 594.333 756.667 574.333 752 553 c 2
 635 0 l 1
412 369 m 0
 467.333 369 495 395.333 495 448 c 0
 495 459.333 492 471 486 483 c 1
 477.333 494.333 462.333 501.333 441 504 c 1
 394.333 504 366.333 481.333 357 436 c 0
 355 428 354 420.667 354 414 c 0
 354.667 384 374 369 412 369 c 0
EndSplineSet
EndChar
StartChar: uni0E06
Encoding: 210 3590
OldEncoding: 3590
Width: 1030
Flags: W
Fore
917 182 m 2
 899 96.6667 872 43.6667 836 23 c 0
 810.667 7.66667 783.333 4.33681e-19 754 0 c 0
 715.333 0 683 15.6667 657 47 c 2
 524 209 l 1
 503 111 l 2
 496.333 79.6667 479.167 52.6667 451.5 30 c 0
 423.833 7.33333 394 -4 362 -4 c 0
 284.667 -4 246 35.3333 246 114 c 0
 246 128 247.667 142.667 251 158 c 0
 261.667 210.667 285.333 253.5 322 286.5 c 0
 358.667 319.5 403.333 336 456 336 c 1
 506 567 l 1
 540 592 l 2
 561.333 607.333 574 623 578 639 c 0
 581.333 651 573 668.667 553 692 c 1
 535 707 l 1
 426 657 l 1
 347 707 l 1
 296.333 687.667 260.667 649.333 240 592 c 1
 261.333 600 282 604 302 604 c 1
 352 596 l 1
 387.333 584.667 405 558.333 405 517 c 0
 405 505 403.333 491.667 400 477 c 0
 382.667 395 333 354 251 354 c 0
 172.333 354 133 394.333 133 475 c 0
 133 493 135.333 513 140 535 c 0
 165.333 652.333 235 738.333 349 793 c 1
 442 731 l 1
 564 793 l 1
 592 772 l 2
 627.333 746.667 652.333 713.333 667 672 c 2
 672 657 l 1
 663 614 l 1
 634 586 l 1
 597 555 l 1
 547 317 l 1
 715 125 l 2
 731.667 105.667 749.667 94 769 90 c 1
 782.333 90 793.333 97 802 111 c 1
 822 166 l 1
 954 788 l 1
 1046 788 l 1
 917 182 l 2
264 414 m 0
 308 414 334.333 435 343 477 c 0
 344.333 484.333 345 491 345 497 c 0
 345 526.333 327 541.667 291 543 c 0
 239 544.333 213 518 213 464 c 0
 213 450 218 437.333 228 426 c 1
 237.333 418 249.333 414 264 414 c 0
412 127 m 1
 439 252 l 1
 392 246 l 2
 364 242 344.333 212.667 333 158 c 0
 329.667 142 328 128.667 328 118 c 0
 328 86.6667 340.667 72 366 74 c 0
 381.333 76.6667 392 82 398 90 c 0
 400 94 404.667 106.333 412 127 c 1
EndSplineSet
EndChar
StartChar: uni0E07
Encoding: 211 3591
OldEncoding: 3591
Width: 664
Flags: W
Fore
550 160 m 1
 542 120.667 533.333 92.6667 524 76 c 0
 494 20 445.667 -8 379 -8 c 0
 342.333 -8 311.333 9 286 43 c 1
 245 190 l 1
 233 235.333 221.667 262.667 211 272 c 0
 187.667 294 155.333 305 114 305 c 1
 132 389 l 1
 187 387 l 2
 258.333 384.333 304.667 333 326 233 c 0
 348.667 129.667 371.667 78 395 78 c 0
 419.667 78 439.667 101 455 147 c 1
 540 545 l 1
 527 541 l 1
 489 537 l 1
 469 537 452 540.333 438 547 c 0
 402.667 564.333 385 592 385 630 c 0
 385 640.667 386.333 652 389 664 c 1
 402 707 l 1
 412.667 731.667 433.333 752.333 464 769 c 0
 492 785 520.333 793 549 793 c 0
 623.667 793 661 761.667 661 699 c 0
 661 686.333 659 671.667 655 655 c 1
 550 160 l 1
509 602 m 0
 549.667 602 574.333 622.667 583 664 c 0
 585 670.667 586 677 586 683 c 0
 586 711 569 725 535 725 c 0
 499 725 473.333 704.667 458 664 c 1
 456.667 656.667 456 650 456 644 c 0
 456 616 473.667 602 509 602 c 0
EndSplineSet
EndChar
StartChar: uni0E08
Encoding: 212 3592
OldEncoding: 3592
Width: 737
Flags: W
Fore
621 127 m 2
 612.333 87 590.833 55.1667 556.5 31.5 c 0
 522.167 7.83333 483.667 -4 441 -4 c 0
 409.667 -4 383 4 361 20 c 0
 335.667 38 323 62 323 92 c 0
 323 100.667 324 109.667 326 119 c 2
 363 293 l 1
 350 289 l 1
 312 285 l 1
 292 285 275 288.333 261 295 c 0
 226.333 312.333 209 340.333 209 379 c 0
 209 389.667 210.333 401.333 213 414 c 1
 226 457 l 1
 236.667 482.333 256.333 503 285 519 c 0
 313.667 535 342.333 543 371 543 c 0
 446.333 543 484 511.333 484 448 c 0
 484 434.667 482.333 419.667 479 403 c 2
 424 143 l 2
 422.667 137.667 422 132 422 126 c 0
 422 94 437 78 467 78 c 0
 486.333 78 501.333 84 512 96 c 1
 518 106 525 122.333 533 145 c 1
 621 559 l 2
 623.667 572.333 625 585 625 597 c 0
 625.667 671.667 569.333 709 456 709 c 0
 352 709 272.333 665.333 217 578 c 1
 147 614 l 1
 225.667 733.333 338 793 484 793 c 0
 548.667 793 602 780.667 644 756 c 0
 695.333 726.667 721 682 721 622 c 0
 721 606 719 588.333 715 569 c 2
 621 127 l 2
330 350 m 0
 372.667 350 398.333 370.667 407 412 c 0
 408.333 419.333 409 426 409 432 c 0
 409 460.667 391.667 475 357 475 c 0
 322.333 475 297.333 454 282 412 c 1
 280.667 404.667 280 398 280 392 c 0
 280 364 296.667 350 330 350 c 0
EndSplineSet
EndChar
StartChar: uni0E09
Encoding: 213 3593
OldEncoding: 3593
Width: 797
Flags: W
Fore
814 109 m 2
 790.667 33.6667 740.333 -4 663 -4 c 0
 597 -4 564 23.6667 564 79 c 0
 564 87.6667 565 96.6667 567 106 c 2
 588 203 l 1
 577.333 198.333 566.667 190.667 556 180 c 2
 493 113 l 2
 419.667 35 353.333 -4 294 -4 c 0
 247.333 -4 224 25 224 83 c 0
 224 94.3333 225.333 106.333 228 119 c 2
 261 274 l 1
 248 270 l 1
 210 266 l 1
 190 266 173 269.333 159 276 c 0
 123.667 293.333 106 321.333 106 360 c 0
 106 370.667 107.333 381.667 110 393 c 1
 123 436 l 1
 133.667 461.333 154.333 482.333 185 499 c 0
 213 514.333 241.667 522 271 522 c 0
 345 522 382 491 382 429 c 0
 382 415.667 380.333 401 377 385 c 2
 328 156 l 1
 324 138.667 322 124.333 322 113 c 0
 322 92.3333 328.333 82 341 82 c 0
 357.667 82 380.333 95.6667 409 123 c 1
 485 211 l 2
 521 252.333 553.667 280.333 583 295 c 2
 603 305 l 1
 657 559 l 1
 659.667 570.333 661 581.333 661 592 c 0
 661 632.667 642.333 663.667 605 685 c 0
 575 702.333 537.667 711 493 711 c 0
 381 711 296.333 668.667 239 584 c 1
 177 623 l 1
 264.333 736.333 372 793 500 793 c 0
 568 793 625 780.667 671 756 c 0
 730.333 725.333 760 679.333 760 618 c 0
 760 603.333 758 587.667 754 571 c 1
 700 317 l 1
 719.333 317 736.667 314.333 752 309 c 1
 806 297.667 833 263 833 205 c 0
 833 189 831 171.333 827 152 c 1
 814 109 l 2
712 240 m 1
 682 242 l 1
 658 127 l 1
 656 119 655 112 655 106 c 0
 655 86 664.667 76 684 76 c 0
 714 76 734 99.6667 744 147 c 0
 747.333 161.667 749 174.333 749 185 c 0
 749 216.333 736.667 234.667 712 240 c 1
230 332 m 0
 271.333 332 296.333 352.333 305 393 c 0
 306.333 400.333 307 407 307 413 c 0
 307 441 290 455 256 455 c 0
 220 455 194.667 434.333 180 393 c 0
 178.667 386.333 178 380 178 374 c 0
 178 346 195.333 332 230 332 c 0
EndSplineSet
EndChar
StartChar: uni0E0A
Encoding: 214 3594
OldEncoding: 3594
Width: 805
Flags: W
Fore
903 760 m 1
 876 739 l 1
 848 721.667 822 708.667 798 700 c 2
 670 655 l 1
 698 643 l 2
 716.667 635 732.667 620.667 746 600 c 1
 760.667 584 768 559 768 525 c 0
 768 515.667 767.667 506 767 496 c 1
 695 158 l 2
 689.667 133.333 684.667 115.333 680 104 c 1
 676 88 667.333 73.6667 654 61 c 1
 618 20.3333 573.333 -1.73472e-18 520 0 c 2
 197 0 l 1
 215 88 l 1
 314 88 l 1
 385 426 l 1
 400 455 l 1
 447 524 l 2
 467 553.333 479.667 580 485 604 c 1
 487 645 l 1
 488.333 667.667 475.333 686 448 700 c 0
 426 711.333 402.667 717 378 717 c 1
 344 713 l 1
 362.667 704.333 375.333 693.333 382 680 c 1
 385.333 676 389 657.667 393 625 c 1
 390 600 l 2
 385.333 563.333 368.833 533 340.5 509 c 0
 312.167 485 279.333 473 242 473 c 1
 206.667 469.667 177.667 476.333 155 493 c 0
 130.333 510.333 118 536 118 570 c 0
 118 580.667 119.333 592 122 604 c 0
 134 658.667 161.167 703.5 203.5 738.5 c 0
 245.833 773.5 294.667 791 350 791 c 0
 488 791 564.333 748.667 579 664 c 1
 580 627 l 1
 577 604 l 1
 571.667 578.667 565 559.667 557 547 c 2
 520 489 l 2
 493.333 447.667 478 417 474 397 c 1
 408 88 l 1
 518 88 l 2
 564.667 88 593 112 603 160 c 2
 669 471 l 2
 674.333 495.667 677.333 515.333 678 530 c 0
 678.667 545.333 670.333 561.333 653 578 c 0
 638.333 592.667 622.667 602.667 606 608 c 2
 578 618 l 1
 574 688 l 1
 640 707 l 2
 716.667 728.333 791.333 769 864 829 c 1
 888 852 l 1
 903 760 l 1
271 668 m 0
 254.333 668 238 661 222 647 c 0
 211.333 636.333 202.667 622 196 604 c 0
 194.667 596.667 194 590.333 194 585 c 0
 194 557 210.667 543 244 543 c 0
 285.333 543 310.333 564 319 606 c 0
 321 613.333 322 620 322 626 c 0
 322 654 305 668 271 668 c 0
EndSplineSet
EndChar
StartChar: uni0E0B
Encoding: 215 3595
OldEncoding: 3595
Width: 866
Flags: W
Fore
977 760 m 1
 950 739 l 1
 922 721.667 896 708.667 872 700 c 2
 743 655 l 1
 772 643 l 2
 790.667 635 806.667 620.667 820 600 c 1
 834.667 584 842 559 842 525 c 0
 842 515.667 841.667 506 841 496 c 1
 769 158 l 2
 763.667 133.333 758.333 115.333 753 104 c 1
 749.667 88 741.333 73.6667 728 61 c 1
 694.667 20.3333 650 -1.73472e-18 594 0 c 2
 270 0 l 1
 289 88 l 1
 387 88 l 1
 490 571 l 1
 565 635 l 1
 562 649 l 2
 556 675 543 695 523 709 c 1
 518 711 l 1
 420 666 l 1
 342 711 l 1
 333.333 711 325.667 708 319 702 c 2
 292 680 l 1
 258 637 l 1
 252 625 l 1
 289 629 l 1
 359 629 393.667 592 393 518 c 0
 393 511.333 392 503.333 390 494 c 0
 384.667 468.667 373.333 445.333 356 424 c 0
 326.667 386 288.667 367 242 367 c 0
 160 367 119 399.667 119 465 c 0
 119 475 120 486 122 498 c 2
 130 543 l 1
 142 614.333 181 679 247 737 c 0
 264.333 752.333 294.333 771.667 337 795 c 1
 436 750 l 1
 551 793 l 1
 579 778 l 2
 596.333 769.333 609.333 757 618 741 c 2
 639 705 l 1
 650 678 l 1
 654 618 l 1
 580 551 l 1
 482 88 l 1
 594 88 l 2
 617.333 88 636.667 95 652 109 c 1
 661.333 119.667 669.667 136.667 677 160 c 1
 743 471 l 1
 753 516.333 748.667 550.333 730 573 c 0
 717.333 589.667 697.667 602.667 671 612 c 2
 654 618 l 1
 649 682 l 1
 708 702 l 1
 826 754 l 2
 867.333 772 904.667 797 938 829 c 2
 961 852 l 1
 977 760 l 1
273 561 m 0
 255 561 237.667 554.333 221 541 c 1
 211 529.667 202.667 515.333 196 498 c 1
 194.667 490.667 194 484 194 478 c 0
 194 450 210.667 436 244 436 c 0
 286.667 436 312.333 457.333 321 500 c 0
 323 506.667 324 513 324 519 c 0
 324 547 307 561 273 561 c 0
EndSplineSet
EndChar
StartChar: uni0E0C
Encoding: 216 3596
OldEncoding: 3596
Width: 1059
Flags: W
Fore
734 600 m 2
 673 305 l 1
 697 293 l 1
 717 276.333 732.667 253 744 223 c 2
 775 139 l 2
 785 113 797.333 100 812 100 c 0
 818.667 100 825.333 106.333 832 119 c 1
 841 152 l 1
 977 788 l 1
 1069 788 l 1
 928 127 l 2
 910 41.6667 870.667 -1 810 -1 c 0
 769.333 -1 737.667 22.6667 715 70 c 2
 671 162 l 1
 648 199 l 1
 626 92 l 1
 620 66 603.833 43.5 577.5 24.5 c 0
 551.167 5.5 524.333 -4 497 -4 c 0
 463 -4 436.667 11 418 41 c 1
 409.333 63 405 86 405 110 c 0
 405 124.667 406.333 139.333 409 154 c 1
 414 174 l 1
 431.333 254.667 487.333 303 582 319 c 1
 641 596 l 1
 642.333 604.667 643 613 643 621 c 0
 643 681 587 711 475 711 c 0
 421.667 711 375 700.667 335 680 c 1
 314 666 l 1
 327 659 l 1
 382 623 l 1
 432 580 l 1
 444 565 l 1
 407 557 l 2
 381 551 357.667 537.333 337 516 c 1
 303.667 488.667 282.667 454 274 412 c 2
 239 246 l 1
 252 250 l 1
 289 254 l 1
 309 254 326.333 250.667 341 244 c 0
 377 226.667 395 200.333 395 165 c 0
 395 153 393 140.333 389 127 c 2
 382 102 l 1
 372.667 71.3333 353.167 46.3333 323.5 27 c 0
 293.833 7.66667 262.333 -2 229 -2 c 0
 155 -2 118 29 118 91 c 0
 118 104.333 119.667 119 123 135 c 2
 186 430 l 2
 190 448.667 196 464.333 204 477 c 2
 231 520 l 1
 243.667 534 257.333 546.333 272 557 c 1
 293 569 l 1
 283 580 l 1
 261 597.333 241.667 609.333 225 616 c 2
 176 637 l 1
 130 651 l 1
 158.667 680.333 200.333 708.333 255 735 c 0
 332.333 773.667 412.667 793 496 793 c 0
 657.333 793 738 741.333 738 638 c 0
 738 626 736.667 613.333 734 600 c 2
534 104 m 1
 564 246 l 1
 548 246 l 1
 522.667 242 505.333 228.333 496 205 c 1
 480 147 l 1
 466.667 101 474.667 78 504 78 c 0
 520.667 78 530.667 86.6667 534 104 c 1
243 66 m 0
 285.667 66 311.333 86.3333 320 127 c 0
 321.333 133.667 322 140 322 146 c 0
 322 174 304.333 188 269 188 c 0
 228.333 188 203.667 167.667 195 127 c 0
 193.667 119.667 193 113 193 107 c 0
 193 79.6667 209.667 66 243 66 c 0
EndSplineSet
EndChar
StartChar: uni0E0D
Encoding: 217 3597
OldEncoding: 3597
Width: 1114
Flags: W
Fore
985 123 m 2
 979.667 98.3333 970 76.3333 956 57 c 0
 928.667 19 892.667 0 848 0 c 2
 518 0 l 1
 537 88 l 1
 594 88 l 1
 702 594 l 2
 704 604 705 613.333 705 622 c 0
 703.667 681.333 650.667 711 546 711 c 0
 492.667 711 444.333 700.667 401 680 c 1
 377 666 l 1
 390 659 l 1
 446 623 l 1
 496 580 l 1
 507 565 l 1
 471 557 l 2
 444.333 551 421 537.333 401 516 c 1
 367.667 488.667 346.333 454 337 412 c 1
 302 246 l 1
 315 250 l 1
 353 254 l 1
 372.333 254 389.333 250.667 404 244 c 0
 440.667 226.667 459 200.333 459 165 c 0
 459 153 457 140.333 453 127 c 2
 446 102 l 1
 436.667 71.3333 417.167 46.3333 387.5 27 c 0
 357.833 7.66667 326 -2 292 -2 c 0
 218 -2 181 29 181 91 c 0
 181 104.333 182.667 119 186 135 c 2
 249 430 l 2
 253 448.667 259 464.333 267 477 c 2
 295 520 l 1
 307.667 534 321 546.333 335 557 c 1
 357 569 l 1
 346 580 l 1
 324 597.333 305 609.333 289 616 c 2
 240 637 l 1
 194 651 l 1
 222 680.333 263.333 708.333 318 735 c 0
 395.333 773.667 476 793 560 793 c 0
 622 793 674 782.667 716 762 c 0
 771.333 735.333 799 694.333 799 639 c 0
 799 626.333 797.667 612.667 795 598 c 1
 686 88 l 1
 836 88 l 2
 864 88 885 109.333 899 152 c 1
 1034 788 l 1
 1126 788 l 1
 985 123 l 2
933 -82 m 1
 909 -166 l 2
 900.333 -195.333 881 -228 851 -264 c 0
 787 -340.667 714.667 -379 634 -379 c 0
 531.333 -379 465.667 -351.667 437 -297 c 0
 426.333 -277 423.667 -253 429 -225 c 0
 429.667 -215.667 430.667 -209 432 -205 c 0
 448.667 -124.333 497.333 -84 578 -84 c 0
 646.667 -84 681 -114 681 -174 c 0
 681 -183.333 679.667 -193.667 677 -205 c 1
 664 -240 l 1
 655.333 -261.333 640.333 -276.333 619 -285 c 2
 604 -291 l 1
 613 -295 l 1
 641 -299 l 1
 703.667 -299 757 -267 801 -203 c 1
 831 -127 l 1
 845 -82 l 1
 933 -82 l 1
307 66 m 0
 349 66 374.333 86.3333 383 127 c 0
 385 133.667 386 140 386 146 c 0
 386 174 368.333 188 333 188 c 0
 291.667 188 266.667 167.667 258 127 c 0
 256.667 119.667 256 113 256 107 c 0
 256 79.6667 273 66 307 66 c 0
569 -147 m 0
 537 -147 513.667 -167 499 -207 c 0
 497.667 -213.667 497 -219.667 497 -225 c 0
 497 -249.667 512 -262 542 -262 c 0
 579.333 -262 602.667 -242.333 612 -203 c 0
 614 -195.667 615 -189 615 -183 c 0
 615 -159 599.667 -147 569 -147 c 0
EndSplineSet
EndChar
StartChar: uni0E0E
Encoding: 218 3598
OldEncoding: 3598
Width: 893
Flags: W
Fore
697 -217 m 1
 451 -424 l 1
 398 -342 l 1
 368 -309 l 1
 348 -291 l 1
 310 -324 l 2
 270.667 -358 234 -379.667 200 -389 c 0
 180 -394.333 156 -398.333 128 -401 c 1
 56.6667 -401 19.3333 -374.667 16 -322 c 0
 15.3333 -312 16.3333 -299.667 19 -285 c 0
 32.3333 -223 64 -183.333 114 -166 c 2
 161 -150 l 1
 223 -143 l 1
 286.333 -143 326.333 -154 343 -176 c 1
 359 -154 l 1
 394 -92 l 1
 415 -43 l 1
 418.333 -26.3333 422 -15.3333 426 -10 c 1
 518 -10 l 1
 512 -38 496.333 -73.6667 471 -117 c 0
 459.667 -135.667 444 -160 424 -190 c 1
 402 -219 l 1
 481 -301 l 1
 608 -205 l 1
 769 555 l 2
 772.333 570.333 774 584.667 774 598 c 0
 774.667 673.333 723.333 711 620 711 c 0
 556.667 711 505.333 700.667 466 680 c 2
 438 666 l 1
 451 659 l 1
 507 623 l 2
 529.667 607.667 546.333 593.333 557 580 c 2
 569 565 l 1
 534 557 l 2
 502.667 549.667 474.333 531.833 449 503.5 c 0
 423.667 475.167 407.667 444.667 401 412 c 1
 342 135 l 2
 322.667 43.6667 268 -2 178 -2 c 0
 151.333 -2 127 5.66667 105 21 c 0
 79.6667 37.6667 67 58.6667 67 84 c 1
 72 129 l 1
 83.3333 182.333 116.333 220.667 171 244 c 1
 199 252 l 1
 226 254 l 1
 260 250 l 1
 273 246 l 1
 313 430 l 1
 317 450.667 321.333 465 326 473 c 2
 356 518 l 2
 366.667 534.667 380.333 547.667 397 557 c 2
 418 569 l 1
 401 588 l 1
 387.667 598.667 371.333 608 352 616 c 2
 303 637 l 1
 257 651 l 1
 281.667 678.333 325.333 706.333 388 735 c 0
 470 773.667 551.667 793 633 793 c 0
 790.333 793 869 735 869 619 c 0
 869 600.333 866.667 580.333 862 559 c 2
 697 -217 l 1
192 66 m 0
 233.333 66 258.333 86.3333 267 127 c 0
 268.333 134.333 269 140.667 269 146 c 0
 269 174 252 188 218 188 c 0
 182 188 156.667 167.667 142 127 c 0
 140 119.667 139 113 139 107 c 0
 139.667 79.6667 157.333 66 192 66 c 0
285 -240 m 1
 259 -227 l 1
 238.333 -220.333 217.333 -215.667 196 -213 c 1
 178.667 -213 167 -214.333 161 -217 c 1
 127 -240 l 1
 113 -256 106 -272.333 106 -289 c 0
 106 -313.667 123.333 -326 158 -326 c 1
 180.667 -322.667 205.667 -312.667 233 -296 c 0
 263.667 -277.333 281 -258.667 285 -240 c 1
EndSplineSet
EndChar
StartChar: uni0E0F
Encoding: 219 3599
OldEncoding: 3599
Width: 887
Flags: W
Fore
696 -213 m 1
 686 -231.667 677.333 -247.333 670 -260 c 0
 632 -320.667 574 -372 496 -414 c 1
 432 -289 l 1
 311 -416 l 1
 262 -317 l 1
 245 -342 l 2
 233.667 -357.333 221 -369 207 -377 c 2
 146 -410 l 1
 108 -418 l 1
 68 -414 l 2
 44.6667 -411.333 29.3333 -393.333 22 -360 c 0
 16.6667 -334 16.6667 -308.333 22 -283 c 1
 38 -236 l 1
 72 -166 117 -131 173 -131 c 0
 221 -131 254 -148.667 272 -184 c 1
 279 -170 l 1
 320 -92 l 2
 334 -66 342.333 -47 345 -35 c 2
 350 -12 l 1
 432 -12 l 1
 416 -55 l 1
 395.333 -114.333 366.667 -169.667 330 -221 c 2
 318 -238 l 1
 335 -285 l 1
 464 -141 l 1
 531 -297 l 1
 563 -281.667 587.333 -253.667 604 -213 c 1
 774 588 l 2
 776 598 777 607.333 777 616 c 0
 777.667 679.333 726 711 622 711 c 0
 558.667 711 507.333 700.667 468 680 c 2
 440 666 l 1
 454 659 l 1
 509 623 l 2
 531.667 607.667 548.333 593.333 559 580 c 2
 571 565 l 1
 536 557 l 2
 504.667 549.667 476.333 531.833 451 503.5 c 0
 425.667 475.167 409.667 444.667 403 412 c 1
 344 135 l 2
 324.667 43.6667 270 -2 180 -2 c 0
 153.333 -2 129 5.66667 107 21 c 0
 81.6667 37.6667 69 58.6667 69 84 c 1
 75 129 l 1
 86.3333 182.333 119 220.667 173 244 c 1
 201 252 l 1
 228 254 l 1
 262 250 l 1
 275 246 l 1
 315 430 l 1
 319 450.667 323.333 465 328 473 c 2
 358 518 l 2
 368.667 534.667 382.333 547.667 399 557 c 2
 420 569 l 1
 403 588 l 1
 389.667 598.667 373.333 608 354 616 c 2
 305 637 l 1
 259 651 l 1
 283.667 678.333 327.333 706.333 390 735 c 0
 472 773.667 553.667 793 635 793 c 0
 793 793 872 740.667 872 636 c 0
 872 622 870.333 607.333 867 592 c 2
 696 -213 l 1
194 66 m 0
 235.333 66 260.333 86.3333 269 127 c 0
 270.333 134.333 271 140.667 271 146 c 0
 271 174 254 188 220 188 c 0
 184 188 158.667 167.667 144 127 c 0
 142 119.667 141.333 113 142 107 c 0
 142 79.6667 159.333 66 194 66 c 0
224 -246 m 1
 213 -231 l 2
 197.667 -212.333 180 -203 160 -203 c 0
 146 -203 132 -213.333 118 -234 c 0
 106 -252 98.3333 -269 95 -285 c 0
 87 -322.333 95 -342.667 119 -346 c 0
 138.333 -349.333 166.333 -327.667 203 -281 c 1
 224 -246 l 1
EndSplineSet
EndChar
StartChar: uni0E10
Encoding: 220 3600
OldEncoding: 3600
Width: 707
Flags: W
Fore
795 696 m 1
 768 686 l 1
 711 676 l 1
 679.667 676 644.333 680.667 605 690 c 0
 555 702.667 515.333 709 486 709 c 0
 445.333 709 409 701.333 377 686 c 1
 340 664 l 1
 439 649 l 2
 509 639 567.667 613.667 615 573 c 0
 648.333 545.667 665 510.667 665 468 c 0
 665 455.333 663.333 442 660 428 c 1
 596 127 l 1
 588 87 566 54.6667 530 30 c 0
 497.333 7.33333 459.667 -4 417 -4 c 0
 385 -4 358 4 336 20 c 0
 311.333 38 299 62 299 92 c 0
 299 100.667 300 109.667 302 119 c 2
 323 219 l 1
 310 215 l 1
 272 211 l 1
 252 211 235 214.333 221 221 c 0
 185.667 238.333 168 266.333 168 305 c 0
 168 315 169.333 326 172 338 c 1
 185 381 l 1
 195.667 406.333 216.333 427.333 247 444 c 0
 275 459.333 303.667 467 333 467 c 0
 407 467 444 436 444 374 c 0
 444 360.667 442.333 346 439 330 c 2
 399 143 l 2
 397.667 137.667 397 132 397 126 c 0
 397 94 412.333 78 443 78 c 0
 461.667 78 476.333 84 487 96 c 1
 493.667 106 500.667 122.333 508 145 c 1
 566 418 l 2
 574.667 458.667 565.667 492.667 539 520 c 0
 504.333 555.333 424.667 582 300 600 c 0
 243.333 608 203.333 610.667 180 608 c 1
 221.333 664 259.667 704 295 728 c 0
 333.667 754.667 385 773.333 449 784 c 1
 489 786 l 2
 512.333 787.333 547.667 781.667 595 769 c 0
 642.333 756.333 677.333 750 700 750 c 1
 722.667 746.667 746 750 770 760 c 2
 786 768 l 1
 795 696 l 1
503 -301 m 1
 342 -395 l 1
 265 -334 l 1
 147 -395 l 1
 140 -381 l 1
 120 -330 l 1
 82 -365 l 1
 64.6667 -377 45.3333 -384.333 24 -387 c 1
 -34 -387 -63 -358.667 -63 -302 c 0
 -63 -292.667 -62 -282.667 -60 -272 c 0
 -50 -224.667 -20.3333 -190.667 29 -170 c 1
 68 -162 l 1
 102 -162 126.667 -171.333 142 -190 c 1
 151 -174 l 1
 173 -123 l 1
 200 -51 l 1
 278 -51 l 1
 274 -68.3333 259.667 -106.667 235 -166 c 0
 226.333 -186.667 215.667 -205 203 -221 c 1
 182 -254 l 1
 195 -295 l 1
 284 -252 l 1
 361 -307 l 1
 439 -264 l 1
 446 -236 l 1
 409 -242 l 1
 387 -242 368.333 -234 353 -218 c 0
 337.667 -202 330 -183 330 -161 c 0
 330 -125 345 -95.3333 375 -72 c 0
 397 -54 422.333 -45 451 -45 c 1
 483 -49 l 1
 508.333 -57 525 -71.3333 533 -92 c 1
 535 -102.667 536 -113.333 536 -124 c 0
 536 -139.333 534.333 -154.667 531 -170 c 2
 503 -301 l 1
292 276 m 0
 333.333 276 358.333 296.667 367 338 c 0
 368.333 345.333 369 351.667 369 357 c 0
 369 385 352 399 318 399 c 0
 282 399 256.667 378.667 242 338 c 1
 240.667 330.667 240 324.333 240 319 c 0
 240 290.333 257.333 276 292 276 c 0
474 -141 m 0
 474.667 -136.333 475 -132.333 475 -129 c 0
 475 -111 464.333 -102 443 -102 c 0
 415.667 -102 399 -115.667 393 -143 c 0
 392.333 -147.667 392 -152 392 -156 c 0
 392 -173.333 402.667 -182 424 -182 c 0
 451.333 -182 468 -168.333 474 -141 c 0
88 -260 m 1
 71 -246 l 2
 59 -236 47.3333 -231.667 36 -233 c 1
 22 -237.667 12.3333 -251.333 7 -274 c 0
 5.66667 -280 5 -285.333 5 -290 c 0
 5 -308 14.3333 -317 33 -317 c 0
 47.6667 -317 61.3333 -307.667 74 -289 c 1
 88 -260 l 1
EndSplineSet
EndChar
StartChar: uni0E11
Encoding: 221 3601
OldEncoding: 3601
Width: 1090
Flags: W
Fore
938 0 m 1
 846 0 l 1
 980 633 l 2
 981.333 639.667 982 645.667 982 651 c 0
 982 670.333 973.667 682 957 686 c 1
 945.667 686 934.667 683.333 924 678 c 1
 897 653 l 1
 836 580 l 1
 731 440 l 1
 603 256 l 2
 558.333 190.667 532 143 524 113 c 2
 494 0 l 1
 395 0 l 1
 516 567 l 1
 548 592 l 1
 568 611.333 580.667 627 586 639 c 1
 588.667 651 580.333 668.667 561 692 c 1
 543 707 l 1
 435 657 l 1
 355 707 l 1
 304.333 687.667 269 649.333 249 592 c 1
 269.667 600 290.333 604 311 604 c 1
 360 596 l 1
 395.333 584.667 413 558.333 413 517 c 0
 413 505 411.667 491.667 409 477 c 0
 391.667 395 342 354 260 354 c 0
 181.333 354 142 394.333 142 475 c 0
 142 493 144 513 148 535 c 0
 173.333 652.333 243 738.333 357 793 c 1
 450 731 l 1
 572 793 l 1
 600 772 l 2
 635.333 746.667 660.333 713.333 675 672 c 2
 680 657 l 1
 671 614 l 1
 643 586 l 1
 605 555 l 1
 554 313 l 1
 573.333 351.667 597.333 390.667 626 430 c 2
 727 569 l 2
 833.667 715 917 788 977 788 c 0
 1008.33 788 1034.33 773.333 1055 744 c 0
 1071 722 1079 699 1079 675 c 0
 1079 667 1078 659 1076 651 c 1
 938 0 l 1
272 414 m 0
 316 414 342.333 435 351 477 c 0
 353 484.333 354 491 354 497 c 0
 354 526.333 336 541.667 300 543 c 0
 247.333 544.333 221 518 221 464 c 0
 221 450 226 437.333 236 426 c 1
 245.333 418 257.333 414 272 414 c 0
EndSplineSet
EndChar
StartChar: uni0E12
Encoding: 222 3602
OldEncoding: 3602
Width: 1096
Flags: W
Fore
966 133 m 1
 952 66.3333 927.667 26 893 12 c 0
 873 4 854.333 -1.33333 837 -4 c 1
 811 -4 789.333 9.66667 772 37 c 0
 761.333 53.6667 749.333 81 736 119 c 0
 717.333 172.333 706 199.667 702 201 c 1
 702 193 l 1
 682 94 l 1
 672 49.3333 646.333 19.3333 605 4 c 1
 579 -2 l 1
 556 -4 l 1
 514 -4 484.667 15.3333 468 54 c 0
 454.667 86 452.333 123.333 461 166 c 0
 477.667 243.333 517.333 294.333 580 319 c 0
 599.333 327 620.333 332.667 643 336 c 1
 693 571 l 2
 696.333 587 698 601.333 698 614 c 0
 698 635.333 693.333 652 684 664 c 1
 668.667 688 652.667 703 636 709 c 1
 506 625 l 1
 407 709 l 1
 375 693 351.333 679.333 336 668 c 0
 287.333 630 251.333 584.667 228 532 c 1
 213 481 l 2
 205 454.333 203.333 420.333 208 379 c 0
 208.667 368.333 216 333.333 230 274 c 1
 261 147 l 1
 280 182 l 1
 319 238 l 1
 374 315 l 1
 328 317 l 1
 287.333 330.333 267 358.333 267 401 c 0
 267 412.333 268.333 424.667 271 438 c 0
 279 474 298.333 504.5 329 529.5 c 0
 359.667 554.5 393.333 567 430 567 c 0
 457.333 567 481.333 559 502 543 c 1
 525.333 520.333 537 494.667 537 466 c 0
 537 458 536 449.333 534 440 c 1
 519 399 l 1
 512.333 387 471.333 329 396 225 c 1
 364.667 189 338.333 148 317 102 c 2
 291 47 l 1
 279 0 l 1
 180 0 l 1
 182 39 l 1
 186 103 175 178 149 264 c 0
 131.667 322.667 123 375 123 421 c 0
 123 444.333 125.333 465.667 130 485 c 0
 148 570.333 187 639.333 247 692 c 0
 287 726.667 350.333 760.333 437 793 c 1
 525 715 l 1
 650 795 l 1
 680 780 l 2
 696 772.667 715.667 756.333 739 731 c 0
 772.333 695.667 789 655.667 789 611 c 0
 789 598.333 787.667 585 785 571 c 1
 729 307 l 1
 744 293 l 2
 756 281.667 765.667 265.333 773 244 c 1
 802 152 l 1
 816 109.333 830.667 88 846 88 c 0
 856.667 88 864.333 97.6667 869 117 c 1
 1011 788 l 1
 1106 788 l 1
 966 133 l 1
389 375 m 0
 432.333 375 458.667 396.667 468 440 c 0
 470 447.333 471 454 471 460 c 0
 471 489.333 453 504.667 417 506 c 0
 380.333 507.333 353.667 485.333 337 440 c 0
 336.333 435.333 336 431 336 427 c 0
 336 392.333 353.667 375 389 375 c 0
594 104 m 1
 628 266 l 1
 596 258 570 238.333 550 207 c 1
 535 164 l 1
 531 148 529 134 529 122 c 0
 529 93.3333 539.667 78 561 76 c 0
 578.333 76 589.333 85.3333 594 104 c 1
EndSplineSet
EndChar
StartChar: uni0E13
Encoding: 223 3603
OldEncoding: 3603
Width: 1094
Flags: W
Fore
1135 186 m 0
 1108.33 59.3333 1049.33 -4 958 -4 c 0
 892.667 -4 860 23 860 77 c 0
 860 88.3333 861.333 101 864 115 c 1
 891 244 l 1
 847 220.667 800 185.667 750 139 c 1
 673 53 l 1
 631 0 l 1
 541 0 l 1
 666 592 l 1
 668.667 602 670 611.333 670 620 c 0
 670 680.667 618 711 514 711 c 0
 442.667 711 382.667 696 334 666 c 1
 347 659 l 1
 403 623 l 1
 453 580 l 1
 464 565 l 1
 428 557 l 2
 401.333 551 378 537.333 358 516 c 1
 324.667 488.667 303.333 454 294 412 c 1
 259 246 l 1
 272 250 l 1
 310 254 l 1
 329.333 254 346.333 250.667 361 244 c 0
 397.667 226.667 416 200.333 416 165 c 0
 416 153 414 140.333 410 127 c 2
 403 102 l 1
 393.667 71.3333 374.167 46.3333 344.5 27 c 0
 314.833 7.66667 283 -2 249 -2 c 0
 175 -2 138 29 138 91 c 0
 138 104.333 139.667 119 143 135 c 2
 206 430 l 2
 210 448.667 216 464.333 224 477 c 2
 252 520 l 1
 264.667 534 278 546.333 292 557 c 1
 314 569 l 1
 303 580 l 1
 281 597.333 262 609.333 246 616 c 2
 197 637 l 1
 151 651 l 1
 177 678.333 221 706.333 283 735 c 0
 366.333 773.667 447.667 793 527 793 c 0
 685 793 764 741.667 764 639 c 0
 764 625.667 762.667 611.333 760 596 c 1
 665 154 l 1
 703 195 l 2
 739.667 235 781.667 269 829 297 c 0
 835.667 301 848.667 307.667 868 317 c 2
 907 334 l 1
 1003 788 l 1
 1095 788 l 1
 1000 342 l 1
 1094 342 1141 305.667 1141 233 c 0
 1141 219 1139 203.333 1135 186 c 0
1056 199 m 2
 1056 222.333 1048.33 238 1033 246 c 1
 1022.33 254 1005.67 258 983 258 c 1
 954 123 l 1
 952 115 951 108 951 102 c 0
 951 94 952.667 88 956 84 c 1
 989 76 l 1
 1020.33 76 1041.67 102.667 1053 156 c 1
 1056 178 l 1
 1056 199 l 2
264 66 m 0
 306 66 331.333 86.3333 340 127 c 0
 342 133.667 343 140 343 146 c 0
 343 174 325.333 188 290 188 c 0
 248.667 188 223.667 167.667 215 127 c 0
 213.667 119.667 213 113 213 107 c 0
 213 79.6667 230 66 264 66 c 0
EndSplineSet
EndChar
StartChar: uni0E14
Encoding: 224 3604
OldEncoding: 3604
Width: 821
Flags: W
Fore
672 0 m 1
 578 0 l 1
 692 541 l 1
 695.333 553.667 697 566 697 578 c 0
 697 627.333 672 664.667 622 690 c 0
 592.667 705.333 558 713 518 713 c 0
 455.333 713 399.333 696 350 662 c 0
 292.667 622.667 256 572.667 240 512 c 2
 230 475 l 2
 220.667 439.667 219.333 408.333 226 381 c 0
 227.333 370.333 236 339.667 252 289 c 2
 281 195 l 1
 293 164 l 1
 315 193 l 1
 345 233 l 1
 403 307 l 1
 374.333 307 348.333 319.333 325 344 c 0
 307.667 362 299 384.333 299 411 c 0
 299 421 300.333 431.333 303 442 c 0
 311 480 330.333 511 361 535 c 0
 391.667 559 426.667 571 466 571 c 0
 529.333 571 564 546 570 496 c 0
 571.333 484.667 571 466.667 569 442 c 1
 561.667 406 548.333 375.333 529 350 c 2
 492 301 l 1
 342 117 l 1
 309 66 l 1
 283 0 l 1
 203 0 l 1
 219 55 l 2
 223 69.6667 224 81.3333 222 90 c 2
 211 143 l 1
 164 307 l 2
 146 369.667 145 440 161 518 c 0
 177.667 596.667 224.333 662.333 301 715 c 0
 373.667 763.667 450 788 530 788 c 0
 598.667 788 657.333 774 706 746 c 0
 764.667 711.333 794 662 794 598 c 0
 794 582.667 792 566.333 788 549 c 1
 672 0 l 1
423 373 m 0
 479 373 507 399.333 507 452 c 0
 507 463.333 503.667 475 497 487 c 1
 488.333 498.333 473.333 505.333 452 508 c 1
 406.667 508 379.333 485.333 370 440 c 0
 368.667 432 368 425 368 419 c 0
 368 388.333 386.333 373 423 373 c 0
EndSplineSet
EndChar
StartChar: uni0E15
Encoding: 225 3605
OldEncoding: 3605
Width: 862
Flags: W
Fore
713 0 m 1
 621 0 l 1
 745 596 l 1
 749.667 616 746 637.667 734 661 c 0
 722 684.333 706.667 701 688 711 c 1
 565 633 l 1
 472 717 l 1
 359.333 677 290 608.667 264 512 c 1
 255 475 l 1
 245.667 441 244 408.333 250 377 c 0
 252 367.667 261.333 337.667 278 287 c 2
 317 170 l 1
 321 143 l 1
 416 272 l 1
 444 307 l 1
 392 313 l 1
 380 319.667 367.333 330 354 344 c 0
 330.667 369.333 323.333 402.667 332 444 c 0
 340 482 359.333 513 390 537 c 0
 420.667 561 455.667 573 495 573 c 0
 532.333 573 561.167 560.667 581.5 536 c 0
 601.833 511.333 608 480.667 600 444 c 1
 583 391 l 1
 527 301 l 1
 359 61 l 2
 347.667 44.3333 339.333 24 334 0 c 1
 236 0 l 1
 240 61 l 1
 242 70.3333 243 81 243 93 c 0
 243 107.667 241.667 124.333 239 143 c 1
 195 311 l 1
 175 389 171.333 458.667 184 520 c 0
 212.667 652.667 320.333 744.333 507 795 c 1
 582 725 l 1
 697 795 l 1
 722.333 790.333 743 781.333 759 768 c 1
 812.333 738 838.667 689.667 838 623 c 0
 838 602.333 835.667 579.667 831 555 c 1
 713 0 l 1
459 369 m 0
 515 369 543 395.333 543 448 c 0
 543 459.333 539.667 471 533 483 c 1
 524.333 494.333 509.333 501.333 488 504 c 1
 441.333 504 413.333 481.333 404 436 c 0
 402 428 401.333 420.667 402 414 c 0
 402 384 421 369 459 369 c 0
EndSplineSet
EndChar
StartChar: uni0E16
Encoding: 226 3606
OldEncoding: 3606
Width: 840
Flags: W
Fore
696 0 m 1
 604 0 l 1
 723 559 l 2
 725.667 572.333 727 585 727 597 c 0
 727 673 666.667 711 546 711 c 0
 490 711 436 700.667 384 680 c 1
 354 666 l 1
 367 659 l 1
 423 623 l 1
 473 580 l 1
 485 565 l 1
 448 557 l 2
 422 551 398.667 537.333 378 516 c 1
 344.667 488.667 323.667 454 315 412 c 2
 280 246 l 1
 293 250 l 1
 330 254 l 1
 350 254 367.333 250.667 382 244 c 0
 418 226.667 436 200.333 436 165 c 0
 436 153 434 140.333 430 127 c 2
 423 102 l 1
 413.667 71.3333 394.167 46.3333 364.5 27 c 0
 334.833 7.66667 303.333 -2 270 -2 c 0
 196 -2 159 29 159 91 c 0
 159 104.333 160.667 119 164 135 c 2
 227 430 l 2
 231 448.667 237 464.333 245 477 c 2
 272 520 l 1
 284.667 534 298.333 546.333 313 557 c 1
 334 569 l 1
 324 580 l 1
 302 597.333 282.667 609.333 266 616 c 2
 217 637 l 1
 171 651 l 1
 211 689.667 275 724.667 363 756 c 0
 432.333 780.667 498 793 560 793 c 0
 642.667 793 708 775.667 756 741 c 0
 800 709.667 822 667.333 822 614 c 0
 822 598 820 581 816 563 c 2
 696 0 l 1
284 66 m 0
 326.667 66 352.333 86.3333 361 127 c 0
 362.333 133.667 363 140 363 146 c 0
 363 174 345.333 188 310 188 c 0
 269.333 188 244.667 167.667 236 127 c 0
 234.667 119.667 234 113 234 107 c 0
 234 79.6667 250.667 66 284 66 c 0
EndSplineSet
EndChar
StartChar: uni0E17
Encoding: 227 3607
OldEncoding: 3607
Width: 924
Flags: W
Fore
776 0 m 1
 684 0 l 1
 823 662 l 1
 829.667 696 818.667 713 790 713 c 0
 764.667 713 742 701.333 722 678 c 2
 594 530 l 2
 514 438 449 337 399 227 c 0
 387.667 203 377 180 367 158 c 1
 355 120.667 342 68 328 0 c 1
 236 0 l 1
 351 543 l 1
 338 539 l 1
 300 535 l 1
 280 535 263 538.333 249 545 c 0
 213.667 562.333 196 590 196 628 c 0
 196 638.667 197.333 650 200 662 c 1
 213 705 l 1
 223.667 729.667 244.333 750.333 275 767 c 0
 303 783 331.667 791 361 791 c 0
 435 791 472 760 472 698 c 0
 472 684.667 470.333 669.667 467 653 c 2
 413 399 l 1
 468 477 l 1
 572 618 l 2
 656 733.333 735 791 809 791 c 0
 832.333 791 848 788 856 782 c 1
 890 745 l 2
 904 729.667 911.667 708 913 680 c 1
 905 604 l 1
 776 0 l 1
320 600 m 0
 360.667 600 385.667 620.667 395 662 c 0
 396.333 668.667 397 675 397 681 c 0
 397 709 380 723 346 723 c 0
 310 723 284.667 702.667 270 662 c 0
 268 654 267 647 267 641 c 0
 267.667 613.667 285.333 600 320 600 c 0
EndSplineSet
EndChar
StartChar: uni0E18
Encoding: 228 3608
OldEncoding: 3608
Width: 733
Flags: W
Fore
586 580 m 1
 636 544 667 501 679 451 c 1
 609 119 l 2
 595.667 56.3333 548.333 16.6667 467 0 c 1
 117 0 l 1
 133 88 l 1
 224 88 l 1
 328 582 l 1
 259 592 l 1
 179 594 l 2
 167 594 162.333 600.667 165 614 c 0
 172.333 647.333 190 675.333 218 698 c 1
 275.333 756.667 350.667 786 444 786 c 0
 474.667 786 520.167 779.167 580.5 765.5 c 0
 640.833 751.833 686.667 745 718 745 c 0
 765.333 745 805.667 759.333 839 788 c 1
 864 713 l 1
 830 694 l 1
 781 676 l 1
 746 668 l 1
 709 666 l 2
 685 664.667 657.667 668 627 676 c 2
 542 698 l 1
 481 711 l 1
 437 715 l 1
 381 713 l 2
 359.667 712.333 337 705.333 313 692 c 1
 292 678 l 1
 278 662 l 1
 355.333 662 426 651.667 490 631 c 0
 530 618.333 562 601.333 586 580 c 1
519 127 m 1
 582 426 l 1
 572 468.667 551.667 498 521 514 c 2
 466 543 l 2
 454 549 437.333 554.333 416 559 c 1
 315 86 l 1
 472 90 l 2
 480 90 489 94.6667 499 104 c 1
 519 127 l 1
EndSplineSet
EndChar
StartChar: uni0E19
Encoding: 229 3609
OldEncoding: 3609
Width: 893
Flags: W
Fore
718 -6 m 1
 694 -2 l 1
 667 8 l 1
 640.333 23.3333 627 51.6667 627 93 c 0
 627 109.667 629.333 128.667 634 150 c 2
 660 272 l 1
 635 270 l 1
 589 259.333 529 227.333 455 174 c 0
 393 129.333 346.333 83.6667 315 37 c 2
 288 -4 l 1
 196 -4 l 1
 311 539 l 1
 298 535 l 1
 260 530 l 1
 240 530 223 533.667 209 541 c 0
 173.667 558.333 156 586 156 624 c 0
 156 634.667 157.333 645.667 160 657 c 1
 173 700 l 1
 183.667 725.333 204.333 746.333 235 763 c 0
 263 778.333 291.667 786 321 786 c 0
 395 786 432 755.333 432 694 c 0
 432 680.667 430.333 665.667 427 649 c 2
 322 156 l 1
 368 199 l 2
 416 243.667 473.667 281 541 311 c 0
 553.667 317 578.333 326.667 615 340 c 1
 678 358 l 1
 769 784 l 1
 861 784 l 1
 770 356 l 1
 804 354 l 1
 828.667 347.333 854 331 880 305 c 0
 896.667 288.333 905 263.333 905 230 c 0
 905 212 902.667 192 898 170 c 0
 873.333 52.6667 813.333 -6 718 -6 c 1
815 184 m 1
 817.667 194.667 819 204.333 819 213 c 0
 819 245 803.333 264 772 270 c 1
 744 272 l 1
 718 152 l 1
 707.333 100 717 74 747 74 c 0
 778.333 74 800.333 103.333 813 162 c 1
 815 184 l 1
280 596 m 0
 321.333 596 346.333 616.333 355 657 c 0
 356.333 665 357 672 357 678 c 0
 357 706.667 340.333 721 307 721 c 0
 270.333 721 244.667 699.667 230 657 c 0
 228.667 650.333 228 644 228 638 c 0
 228 610 245.333 596 280 596 c 0
EndSplineSet
EndChar
StartChar: uni0E1A
Encoding: 230 3610
OldEncoding: 3610
Width: 860
Flags: W
Fore
732 119 m 2
 724.667 85 707.167 56.6667 679.5 34 c 0
 651.833 11.3333 620.667 8.67362e-19 586 0 c 2
 88 0 l 1
 107 88 l 1
 205 88 l 1
 302 543 l 1
 289 539 l 1
 253 535 l 1
 235.667 535 220 538.333 206 545 c 0
 173.333 561 157 588 157 626 c 0
 157 636.667 158.333 648.667 161 662 c 1
 174 705 l 1
 181.333 727.667 200.667 748 232 766 c 0
 260.667 782.667 287.667 791 313 791 c 0
 383.667 791 419 760.333 419 699 c 0
 419 685.667 417 670.333 413 653 c 1
 293 88 l 1
 578 88 l 2
 598 88 615.667 95 631 109 c 0
 637.667 114.333 643.333 123.667 648 137 c 1
 786 788 l 1
 874 788 l 1
 732 119 l 2
273 600 m 0
 312.333 600 336.333 620.667 345 662 c 0
 347 668.667 348 675 348 681 c 0
 348 709 331.667 723 299 723 c 0
 267 723 243.667 702.667 229 662 c 0
 227 654 226 647 226 641 c 0
 226 613.667 241.667 600 273 600 c 0
EndSplineSet
EndChar
StartChar: uni0E1B
Encoding: 231 3611
OldEncoding: 3611
Width: 850
Flags: W
Fore
736 119 m 2
 728.667 85 711.167 56.6667 683.5 34 c 0
 655.833 11.3333 624.667 8.67362e-19 590 0 c 2
 98 0 l 1
 117 88 l 1
 215 88 l 1
 312 543 l 1
 299 539 l 1
 263 535 l 1
 245.667 535 230 538.333 216 545 c 0
 183.333 561 167 588 167 626 c 0
 167 636.667 168.333 648.667 171 662 c 1
 185 705 l 1
 191.667 727.667 210.667 748 242 766 c 0
 270.667 782.667 298 791 324 791 c 0
 394 791 429 760.333 429 699 c 0
 429 685.667 427.333 670.333 424 653 c 1
 303 88 l 1
 582 88 l 2
 602 88 619.667 95 635 109 c 0
 642.333 114.333 648 123.667 652 137 c 1
 874 1184 l 1
 962 1184 l 1
 736 119 l 2
283 600 m 0
 323 600 347.333 620.667 356 662 c 0
 357.333 668.667 358 675 358 681 c 0
 358 709 341.667 723 309 723 c 0
 277 723 253.667 702.667 239 662 c 0
 237 654 236 647 236 641 c 0
 236 613.667 251.667 600 283 600 c 0
EndSplineSet
EndChar
StartChar: uni0E1C
Encoding: 232 3612
OldEncoding: 3612
Width: 854
Flags: W
Fore
694 0 m 1
 606 0 l 1
 594 65.3333 582.667 111 572 137 c 0
 566 151.667 557.333 168.667 546 188 c 2
 505 258 l 2
 494.333 277.333 482 292.333 468 303 c 1
 414 262 l 1
 339 190 l 2
 305 157.333 278.667 126 260 96 c 2
 201 2 l 1
 113 2 l 1
 252 653 l 1
 271.333 745 324 791 410 791 c 0
 436 791 459.333 783.333 480 768 c 0
 504 750.667 514.667 729.667 512 705 c 1
 509 672 l 1
 506 657 l 2
 494.667 604.333 464.333 567 415 545 c 0
 399.667 538.333 381.667 535 361 535 c 0
 349 535 338.667 536.333 330 539 c 2
 316 543 l 1
 238 174 l 1
 254.667 206 296 250.333 362 307 c 2
 425 360 l 1
 490 406 l 1
 534 362 l 1
 574 309 l 2
 594 281.667 610.333 253 623 223 c 2
 643 174 l 1
 774 788 l 1
 862 788 l 1
 694 0 l 1
369 600 m 0
 403 600 427.333 620.667 442 662 c 0
 443.333 668 444 673.667 444 679 c 0
 444 708.333 427.667 723 395 723 c 0
 363 723 339.667 702.667 325 662 c 1
 323.667 654 323 647 323 641 c 0
 323 613.667 338.333 600 369 600 c 0
EndSplineSet
EndChar
StartChar: uni0E1D
Encoding: 233 3613
OldEncoding: 3613
Width: 854
Flags: W
Fore
711 0 m 1
 623 0 l 1
 610.333 65.3333 598.667 111 588 137 c 0
 582 151.667 573.333 168.667 562 188 c 2
 522 258 l 2
 510.667 277.333 498 292.333 484 303 c 1
 431 262 l 1
 356 190 l 2
 322 157.333 295.333 126 276 96 c 1
 218 2 l 1
 129 2 l 1
 268 653 l 1
 287.333 745 340 791 426 791 c 0
 452 791 475.667 783.333 497 768 c 0
 520.333 750.667 531 729.667 529 705 c 1
 526 672 l 1
 523 657 l 2
 511.667 604.333 481 567 431 545 c 0
 415.667 538.333 398 535 378 535 c 0
 365.333 535 354.667 536.333 346 539 c 2
 332 543 l 1
 254 174 l 1
 270.667 206 312.333 250.333 379 307 c 2
 441 360 l 1
 506 406 l 1
 550 362 l 1
 590 309 l 2
 610.667 281.667 627 253 639 223 c 1
 660 174 l 1
 874 1184 l 1
 962 1184 l 1
 711 0 l 1
386 600 m 0
 420 600 444 620.667 458 662 c 0
 459.333 668 460 673.667 460 679 c 0
 460 708.333 444 723 412 723 c 0
 380 723 356.333 702.667 341 662 c 1
 339.667 654 339 647 339 641 c 0
 339 613.667 354.667 600 386 600 c 0
EndSplineSet
EndChar
StartChar: uni0E1E
Encoding: 234 3614
OldEncoding: 3614
Width: 934
Flags: W
Fore
782 0 m 1
 696 0 l 1
 693 90 l 1
 691 134.667 682 191.333 666 260 c 0
 644.667 347.333 632 403.333 628 428 c 0
 624 446.667 619.667 482.333 615 535 c 1
 615 618 l 1
 583 535 l 2
 560.333 475.667 523 409.333 471 336 c 0
 425.667 272 383.333 204.333 344 133 c 0
 321.333 92.3333 300.333 48 281 0 c 1
 190 0 l 1
 306 543 l 1
 293 539 l 1
 257 535 l 1
 239.667 535 224 538.333 210 545 c 0
 177.333 561 161 588 161 626 c 0
 161 636.667 162.333 648.667 165 662 c 1
 178 705 l 1
 185.333 727.667 204.667 748 236 766 c 0
 264.667 782.667 292 791 318 791 c 0
 388.667 791 423.667 760 423 698 c 0
 423 684.667 421 669.667 417 653 c 1
 334 262 l 1
 438 424 l 2
 489.333 503.333 525.667 571.667 547 629 c 1
 585 727 l 1
 600 788 l 1
 692 788 l 1
 686 731 l 1
 684 635 l 2
 683.333 603.667 686.333 569.333 693 532 c 0
 697 514.667 704 483.333 714 438 c 1
 750 262 l 1
 862 788 l 1
 950 788 l 1
 782 0 l 1
277 600 m 0
 316.333 600 340.667 620.667 350 662 c 0
 351.333 668.667 352 675 352 681 c 0
 352 709 335.667 723 303 723 c 0
 271 723 247.667 702.667 233 662 c 0
 231 654 230 647 230 641 c 0
 230 613.667 245.667 600 277 600 c 0
EndSplineSet
EndChar
StartChar: uni0E1F
Encoding: 235 3615
OldEncoding: 3615
Width: 934
Flags: W
Fore
778 0 m 1
 692 0 l 1
 689 90 l 1
 687 134.667 677.667 191.333 661 260 c 0
 640.333 347.333 627.667 403.333 623 428 c 0
 619.667 446.667 615.667 482.333 611 535 c 1
 611 618 l 1
 579 535 l 2
 556.333 475.667 519 409.333 467 336 c 0
 421.667 272 379.333 204.333 340 133 c 0
 317.333 92.3333 296 48 276 0 c 1
 186 0 l 1
 302 543 l 1
 289 539 l 1
 253 535 l 1
 235.667 535 220 538.333 206 545 c 0
 173.333 561 157 588 157 626 c 0
 157 636.667 158.333 648.667 161 662 c 1
 174 705 l 1
 181.333 727.667 200.667 748 232 766 c 0
 260.667 782.667 287.667 791 313 791 c 0
 384.333 791 419.667 760 419 698 c 0
 418.333 684.667 416.333 669.667 413 653 c 2
 330 262 l 1
 434 424 l 2
 485.333 503.333 521.667 571.667 543 629 c 1
 581 727 l 1
 596 788 l 1
 688 788 l 1
 682 731 l 1
 680 635 l 2
 679.333 603.667 682.333 569.333 689 532 c 0
 693 514.667 700 483.333 710 438 c 1
 746 262 l 1
 941 1182 l 1
 1029 1182 l 1
 778 0 l 1
273 600 m 0
 312.333 600 336.333 620.667 345 662 c 0
 347 668.667 348 675 348 681 c 0
 348 709 331.667 723 299 723 c 0
 267 723 243.667 702.667 229 662 c 0
 227 654 226 647 226 641 c 0
 226 613.667 241.667 600 273 600 c 0
EndSplineSet
EndChar
StartChar: uni0E20
Encoding: 236 3616
OldEncoding: 3616
Width: 952
Flags: W
Fore
799 0 m 1
 707 0 l 1
 825 559 l 1
 828.333 572.333 830 585 830 597 c 0
 830 673 769.667 711 649 711 c 0
 573.667 711 509 696 455 666 c 1
 468 659 l 1
 524 623 l 2
 546.667 607.667 563.333 593.333 574 580 c 2
 585 565 l 1
 551 557 l 2
 519 549.667 490.5 531.833 465.5 503.5 c 0
 440.5 475.167 424.333 444.667 417 412 c 1
 358 135 l 2
 338.667 43.6667 284 -2 194 -2 c 0
 167.333 -2 143 5.66667 121 21 c 0
 96.3333 37.6667 83.6667 58.6667 83 84 c 1
 89 129 l 1
 100.333 182.333 133 220.667 187 244 c 1
 215 252 l 1
 242 254 l 1
 276 250 l 1
 290 246 l 1
 329 430 l 1
 333.667 450.667 338 465 342 473 c 1
 372 518 l 2
 383.333 534.667 397 547.667 413 557 c 2
 434 569 l 1
 418 588 l 1
 404.667 598.667 388.333 608 369 616 c 2
 320 637 l 1
 274 651 l 1
 296.667 676.333 342 703.667 410 733 c 0
 500 773 584 793 662 793 c 0
 731.333 793 789.333 780.333 836 755 c 0
 894.667 723.667 924 676.667 924 614 c 0
 924 598 922 581 918 563 c 2
 799 0 l 1
208 66 m 0
 249.333 66 274.333 86.3333 283 127 c 0
 284.333 134.333 285 140.667 285 146 c 0
 285 174 268.333 188 235 188 c 0
 199 188 173.333 167.667 158 127 c 1
 156.667 119.667 156 113 156 107 c 0
 156.667 79.6667 174 66 208 66 c 0
EndSplineSet
EndChar
StartChar: uni0E21
Encoding: 237 3617
OldEncoding: 3617
Width: 889
Flags: W
Fore
768 182 m 2
 758 135.333 750.333 105.333 745 92 c 0
 718.333 29.3333 670 -2 600 -2 c 0
 561.333 -2 530.667 14.3333 508 47 c 2
 395 209 l 1
 374 111 l 2
 367.333 79.6667 350.167 52.6667 322.5 30 c 0
 294.833 7.33333 265 -4 233 -4 c 0
 155.667 -4 117 35.6667 117 115 c 0
 117 163 132 208 162 250 c 0
 202.667 307.333 258.333 336 329 336 c 1
 373 543 l 1
 360 539 l 1
 323 535 l 1
 302.333 535 285 538.333 271 545 c 0
 236.333 562.333 219 590 219 628 c 0
 219 638.667 220.333 650 223 662 c 1
 236 705 l 1
 246.667 729.667 266.667 750.167 296 766.5 c 0
 325.333 782.833 354.333 791 383 791 c 0
 457 791 494 759.667 494 697 c 0
 494 684.333 492.333 669.667 489 653 c 2
 418 317 l 1
 575 113 l 1
 587 100.333 601.667 92.6667 619 90 c 1
 631.667 90 642 97 650 111 c 1
 670 166 l 1
 802 788 l 1
 897 788 l 1
 768 182 l 2
343 600 m 0
 383.667 600 408.333 620.667 417 662 c 0
 418.333 668.667 419 675 419 681 c 0
 419.667 709 403 723 369 723 c 0
 333 723 307.333 702.667 292 662 c 1
 290.667 654 290 647 290 641 c 0
 290.667 613.667 308.333 600 343 600 c 0
285 127 m 1
 312 252 l 1
 263 246 l 2
 235 242 215.333 212.667 204 158 c 0
 200.667 143.333 199 130.333 199 119 c 0
 199 89 211 74 235 74 c 0
 248.333 74 259.333 77.3333 268 84 c 1
 272 89.3333 277.667 103.667 285 127 c 1
EndSplineSet
EndChar
StartChar: uni0E22
Encoding: 238 3618
OldEncoding: 3618
Width: 831
Flags: W
Fore
248 195 m 1
 226 88 l 1
 537 88 l 2
 579 88 605 110.667 615 156 c 1
 749 788 l 1
 841 788 l 1
 706 152 l 2
 684.667 50.6667 624 -3.46945e-18 524 0 c 2
 115 0 l 1
 155 188 l 1
 176 260 l 2
 186 294.667 213 324.667 257 350 c 1
 315 375 l 1
 273.667 380.333 246.333 396.333 233 423 c 0
 223.667 441.667 219 460.333 219 479 c 0
 219 486.333 219.667 494 221 502 c 1
 253 651 l 2
 272.333 742.333 327 788 417 788 c 0
 491 788 528 759.667 528 703 c 0
 528 697 527.333 690.667 526 684 c 1
 523 657 l 1
 515.667 605.667 483 567.667 425 543 c 1
 396 535 l 1
 369 532 l 1
 335 537 l 1
 322 541 l 1
 313 498 l 1
 307.667 475.333 317 452 341 428 c 0
 349.667 418.667 370.667 411.333 404 406 c 2
 449 397 l 1
 438 344 l 1
 401 344 l 1
 374.333 339.333 358.333 336.333 353 335 c 0
 336.333 329.667 322.333 321 311 309 c 2
 280 274 l 1
 266 255.333 255.333 229 248 195 c 1
377 598 m 0
 419 598 444.667 618.333 454 659 c 0
 455.333 666.333 456 673 456 679 c 0
 456 707 438.333 721 403 721 c 0
 362.333 721 337.667 700.333 329 659 c 0
 327 652.333 326 646 326 640 c 0
 326 612 343 598 377 598 c 0
EndSplineSet
EndChar
StartChar: uni0E23
Encoding: 239 3619
OldEncoding: 3619
Width: 670
Flags: W
Fore
797 707 m 1
 743 684 l 1
 695 676 l 1
 672 674 l 2
 650.667 674 610.667 682.667 552 700 c 0
 516 711.333 486.667 717 464 717 c 2
 431 717 l 1
 394 707 l 2
 377.333 702.333 362 694.667 348 684 c 2
 326 668 l 1
 348 666 376.333 660.333 411 651 c 0
 539.667 616.333 612.333 570.667 629 514 c 0
 637.667 487.333 637.333 453.333 628 412 c 1
 569 135 l 2
 549.667 43.6667 494.333 -2 403 -2 c 0
 376.333 -2 352.333 5 331 19 c 0
 306.333 35.6667 294 56.6667 294 82 c 1
 297 117 l 1
 300 131 l 2
 311.333 184.333 343.333 222 396 244 c 1
 424 252 l 1
 451 254 l 1
 485 250 l 1
 499 246 l 1
 537 426 l 2
 538.333 433.333 539 440.333 539 447 c 0
 539 502.333 492 544.333 398 573 c 0
 390 575.667 331.667 589.333 223 614 c 1
 207.667 614 191.667 617 175 623 c 1
 193 650.333 209.667 670.667 225 684 c 1
 293.667 755.333 376.333 791 473 791 c 0
 495 791 523.667 786.667 559 778 c 2
 682 750 l 1
 709.333 750 733 755.333 753 766 c 1
 767 776 l 1
 797 707 l 1
417 66 m 0
 459.667 66 485.333 86.3333 494 127 c 0
 495.333 133.667 496 140 496 146 c 0
 496 174 478.667 188 444 188 c 0
 402.667 188 377.667 167.667 369 127 c 0
 367.667 119.667 367 113 367 107 c 0
 367 79.6667 383.667 66 417 66 c 0
EndSplineSet
EndChar
StartChar: uni0E24
Encoding: 240 3620
OldEncoding: 3620
Width: 815
Flags: W
Fore
621 -287 m 1
 529 -287 l 1
 709 559 l 2
 711.667 572.333 713 584.667 713 596 c 0
 713 672.667 652.667 711 532 711 c 0
 476 711 422 700.667 370 680 c 1
 340 666 l 1
 353 659 l 1
 409 623 l 1
 459 580 l 1
 470 565 l 1
 434 557 l 2
 408 551 384.667 537.333 364 516 c 1
 330.667 488.667 309.333 454 300 412 c 1
 265 246 l 1
 278 250 l 1
 316 254 l 1
 336 254 353 250.667 367 244 c 0
 403.667 226.667 422 200.333 422 165 c 0
 422 153 420 140.333 416 127 c 2
 409 102 l 1
 399.667 71.3333 380.167 46.3333 350.5 27 c 0
 320.833 7.66667 289.333 -2 256 -2 c 0
 181.333 -2 144 29 144 91 c 0
 144 104.333 146 119 150 135 c 1
 212 430 l 2
 216 448.667 222 464.333 230 477 c 2
 258 520 l 1
 270.667 534 284.333 546.333 299 557 c 1
 320 569 l 1
 310 580 l 1
 287.333 597.333 268 609.333 252 616 c 2
 203 637 l 1
 157 651 l 1
 196.333 689.667 260.333 724.667 349 756 c 0
 418.333 780.667 483.667 793 545 793 c 0
 628.333 793 693.667 775.667 741 741 c 0
 785 709.667 807 667.333 807 614 c 0
 807 598 805.333 581 802 563 c 1
 621 -287 l 1
270 66 m 0
 312 66 337.333 86.3333 346 127 c 0
 348 133.667 349 140 349 146 c 0
 349 174 331.333 188 296 188 c 0
 255.333 188 230.667 167.667 222 127 c 0
 220 119.667 219 113 219 107 c 0
 219 79.6667 236 66 270 66 c 0
EndSplineSet
EndChar
StartChar: uni0E25
Encoding: 241 3621
OldEncoding: 3621
Width: 793
Flags: W
Fore
643 0 m 1
 551 0 l 1
 569 84 l 2
 572.333 100.667 565 140.333 547 203 c 0
 530.333 259.667 517.333 298.333 508 319 c 0
 455.333 437 405 491.667 357 483 c 1
 325 475 304.667 451.333 296 412 c 1
 261 246 l 1
 274 250 l 1
 312 254 l 1
 332 254 349 250.667 363 244 c 0
 399.667 226.667 418 200.333 418 165 c 0
 418 153 416 140.333 412 127 c 2
 405 102 l 1
 395.667 72 376.333 47.1667 347 27.5 c 0
 317.667 7.83333 286.667 -2 254 -2 c 0
 178 -2 140 29 140 91 c 0
 140 104.333 141.667 119 145 135 c 2
 203 408 l 1
 210.333 440.667 226 471.667 250 501 c 0
 277.333 533 306.333 551 337 555 c 2
 388 561 l 1
 427.333 561 462.333 546.667 493 518 c 0
 513 499.333 533 468.667 553 426 c 2
 598 330 l 1
 612 287 l 1
 667 547 l 1
 671 563.667 672.667 579 672 593 c 0
 671.333 670.333 617 709 509 709 c 0
 398.333 709 315.667 667.333 261 584 c 1
 204 631 l 1
 226 659.667 245.333 680.667 262 694 c 0
 318.667 740.667 376.667 769.333 436 780 c 1
 532 788 l 1
 585 788 l 1
 609 784.667 643 773.333 687 754 c 1
 740.333 722 767 674 767 610 c 0
 767 592 764.667 572.333 760 551 c 2
 643 0 l 1
268 66 m 0
 308.667 66 333.333 86.3333 342 127 c 0
 344 134.333 345 140.667 345 146 c 0
 345 174 328 188 294 188 c 0
 258 188 232.333 167.667 217 127 c 1
 215.667 119.667 215 113 215 107 c 0
 215.667 79.6667 233.333 66 268 66 c 0
EndSplineSet
EndChar
StartChar: uni0E26
Encoding: 242 3622
OldEncoding: 3622
Width: 891
Flags: W
Fore
685 -287 m 1
 590 -287 l 1
 770 559 l 2
 772.667 572.333 774 585 774 597 c 0
 774 673 713.667 711 593 711 c 0
 548.333 711 502.667 703.333 456 688 c 0
 433.333 680.667 415.333 673.333 402 666 c 1
 415 659 l 1
 468 623 l 1
 521 580 l 1
 532 565 l 1
 495 557 l 2
 469 551 445.667 537.333 425 516 c 1
 393.667 490 373.333 455.333 364 412 c 2
 305 135 l 2
 285.667 43.6667 230.333 -2 139 -2 c 0
 112.333 -2 88.3333 5 67 19 c 0
 42.3333 35.6667 30 56.6667 30 82 c 1
 33 117 l 1
 36 131 l 2
 47.3333 184.333 79.3333 222 132 244 c 1
 160 252 l 1
 187 254 l 1
 221 250 l 1
 235 246 l 1
 274 430 l 2
 278 448.667 284 464.333 292 477 c 2
 319 520 l 1
 331.667 534 345.333 546.333 360 557 c 1
 381 569 l 1
 363 588 l 1
 312 618 l 1
 264 637 l 1
 218 651 l 1
 259.333 689.667 324.333 724.667 413 756 c 0
 482.333 780.667 547.667 793 609 793 c 0
 677.667 793 735.333 780.333 782 755 c 0
 841.333 723.667 871 676.667 871 614 c 0
 871 598 869 581 865 563 c 2
 685 -287 l 1
153 66 m 0
 195.667 66 221.333 86.3333 230 127 c 0
 231.333 133.667 232 140 232 146 c 0
 232 174 214.333 188 179 188 c 0
 138.333 188 113.667 167.667 105 127 c 0
 103.667 119.667 103 113 103 107 c 0
 103 79.6667 119.667 66 153 66 c 0
EndSplineSet
EndChar
StartChar: uni0E27
Encoding: 243 3623
OldEncoding: 3623
Width: 729
Flags: W
Fore
612 135 m 2
 592.667 43.6667 538 -2 448 -2 c 0
 421.333 -2 397 5.66667 375 21 c 0
 350.333 37.6667 337.667 58.6667 337 84 c 1
 343 129 l 1
 354.333 182.333 387 220.667 441 244 c 1
 469 252 l 1
 496 254 l 1
 530 250 l 1
 544 246 l 1
 609 551 l 2
 612.333 567.667 614 583 614 597 c 0
 614 674.333 560.333 713 453 713 c 0
 342.333 713 262.667 666.333 214 573 c 1
 149 606 l 1
 182.333 662.667 227.667 708 285 742 c 0
 342.333 776 403 793 467 793 c 0
 531.667 793 586 780 630 754 c 0
 683.333 722.667 710 676.667 710 616 c 0
 710 600.667 708 584.333 704 567 c 1
 612 135 l 2
462 66 m 0
 503.333 66 528.333 86.3333 537 127 c 0
 538.333 134.333 539 140.667 539 146 c 0
 539 174 522.333 188 489 188 c 0
 453 188 427.333 167.667 412 127 c 1
 410.667 119.667 410 113 410 107 c 0
 410 79.6667 427.333 66 462 66 c 0
EndSplineSet
EndChar
StartChar: uni0E28
Encoding: 244 3624
OldEncoding: 3624
Width: 815
Flags: W
Fore
899 799 m 1
 885 770 l 1
 873 747.333 857.667 727 839 709 c 2
 795 668 l 1
 773 649 l 1
 781 637 l 1
 787 590 l 1
 780 530 l 1
 668 0 l 1
 575 0 l 1
 686 530 l 2
 690 549.333 690.333 563.667 687 573 c 2
 682 588 l 1
 660 569 l 1
 598 520 l 1
 534 481 l 1
 518 473 l 1
 517 426 l 1
 505.667 374 474.333 337 423 315 c 0
 404.333 307 384.333 303 363 303 c 0
 347 303 336.667 304.333 332 307 c 2
 321 313 l 1
 254 0 l 1
 162 0 l 1
 190 131 l 2
 194.667 153.667 194.333 175 189 195 c 1
 150 332 l 1
 132.667 395.333 130 455.333 142 512 c 0
 160 599.333 207 668.667 283 720 c 0
 353 768.667 434.333 793 527 793 c 0
 596.333 793 652.333 780 695 754 c 1
 738 715 l 1
 745 721 l 2
 762.333 739 776.333 756 787 772 c 2
 817 817 l 1
 821 827 l 1
 899 799 l 1
666 655 m 1
 632 688 l 1
 604.667 703.333 561 711 501 711 c 0
 363 711 271.667 644 227 510 c 1
 219.667 475.333 216 445 216 419 c 0
 216 383 223.333 356 238 338 c 1
 256 424 l 1
 264.667 463.333 283.5 496 312.5 522 c 0
 341.5 548 376 561 416 561 c 0
 440.667 561 461.667 556.333 479 547 c 1
 494 532 l 1
 539 559 l 1
 582 588 l 1
 625 618 l 1
 666 655 l 1
378 371 m 0
 418.667 371 443.333 391.333 452 432 c 0
 454 440 455 447 455 453 c 0
 455 481.667 438 496 404 496 c 0
 369.333 496 344.333 474.667 329 432 c 1
 327.667 424.667 327 418 327 412 c 0
 327 384.667 344 371 378 371 c 0
EndSplineSet
EndChar
StartChar: uni0E29
Encoding: 245 3625
OldEncoding: 3625
Width: 891
Flags: W
Fore
994 483 m 1
 974 449 l 1
 931.333 388.333 874 343.667 802 315 c 1
 760 119 l 1
 744 72 l 1
 718 24 674.667 0 614 0 c 2
 109 0 l 1
 127 88 l 1
 226 88 l 1
 322 543 l 1
 309 539 l 1
 273 535 l 1
 255.667 535 240 538.333 226 545 c 0
 193.333 561 177 588 177 626 c 0
 177 636.667 178.667 648.667 182 662 c 1
 195 705 l 2
 201.667 727.667 220.667 748 252 766 c 0
 281.333 782.667 308.667 791 334 791 c 0
 404 791 439 760.333 439 699 c 0
 439 685.667 437.333 670.333 434 653 c 1
 314 88 l 1
 606 88 l 2
 626.667 88 645.333 95 662 109 c 0
 666.667 113 671.333 122.333 676 137 c 1
 710 297 l 1
 674 291 l 1
 647 289 l 2
 626.333 287 594.333 291 551 301 c 0
 489.667 315 456.667 345.667 452 393 c 1
 456 440 l 1
 472.667 518 518.667 557 594 557 c 0
 656.667 557 688 529 688 473 c 0
 688 465.667 687 457.667 685 449 c 0
 677 409.667 658.667 381.667 630 365 c 1
 677 362 l 1
 713 369 l 1
 727 375 l 1
 815 788 l 1
 903 788 l 1
 820 399 l 1
 842 414 l 1
 885 453 l 1
 895.667 465 909.333 484.667 926 512 c 1
 933 526 l 1
 994 483 l 1
561 385 m 1
 595 385 616 403.333 624 440 c 0
 625.333 447.333 626 453.667 626 459 c 0
 626 485 611 498.667 581 500 c 0
 547.667 501.333 526.667 482.667 518 444 c 0
 516.667 438 516 432.333 516 427 c 0
 516 402.333 531 388.333 561 385 c 1
293 600 m 0
 333 600 357.333 620.667 366 662 c 0
 367.333 668.667 368 675 368 681 c 0
 368 709 352 723 320 723 c 0
 288 723 264.333 702.667 249 662 c 1
 247.667 654 247 647 247 641 c 0
 247 613.667 262.333 600 293 600 c 0
EndSplineSet
EndChar
StartChar: uni0E2A
Encoding: 246 3626
OldEncoding: 3626
Width: 774
Flags: W
Fore
891 741 m 1
 860 700 l 1
 815 655 l 1
 768 614 l 1
 746 598 l 1
 742 573 l 1
 621 0 l 1
 528 0 l 1
 546 84 l 2
 549.333 100.667 542 140.333 524 203 c 0
 508 259.667 495.333 298.333 486 319 c 0
 432.667 437 382 491.667 334 483 c 1
 302 475 282 451.333 274 412 c 1
 239 246 l 1
 252 250 l 1
 289 254 l 1
 309 254 326.333 250.667 341 244 c 0
 377 226.667 395 200.333 395 165 c 0
 395 153 393 140.333 389 127 c 2
 382 102 l 2
 373.333 72 354.167 47.1667 324.5 27.5 c 0
 294.833 7.83333 263.667 -2 231 -2 c 0
 155.667 -2 118 29 118 91 c 0
 118 104.333 119.667 119 123 135 c 2
 181 408 l 1
 188.333 441.333 204 472.667 228 502 c 0
 255.333 534 285 551.667 317 555 c 2
 371 561 l 1
 403.667 561 431.667 554.333 455 541 c 1
 472 526 l 1
 561 567 l 2
 592.333 581.667 615.667 595.333 631 608 c 2
 646 621 l 1
 621 668 l 1
 593 695.333 548 709 486 709 c 0
 382.667 709 300.333 667.333 239 584 c 1
 181 631 l 1
 211 669.667 248.333 703 293 731 c 0
 304.333 738.333 319 746.667 337 756 c 1
 390.333 777.333 445 788 501 788 c 0
 598.333 788 667.333 762.333 708 711 c 1
 726 680 l 1
 753 700 l 1
 787 735 l 1
 807 760 l 1
 835 799 l 1
 891 741 l 1
589 287 m 1
 645 547 l 1
 577 508 l 1
 502 475 l 1
 531 426 l 1
 589 287 l 1
245 66 m 0
 286.333 66 311.333 86.3333 320 127 c 0
 321.333 134.333 322 140.667 322 146 c 0
 322 174 305 188 271 188 c 0
 235 188 209.667 167.667 195 127 c 1
 193.667 119.667 193 113 193 107 c 0
 193 79.6667 210.333 66 245 66 c 0
EndSplineSet
EndChar
StartChar: uni0E2B
Encoding: 247 3627
OldEncoding: 3627
Width: 870
Flags: W
Fore
712 596 m 1
 719 600 l 2
 751 615.333 775.667 640.667 793 676 c 1
 795 682.667 796 689 796 695 c 0
 796 727 778.667 743 744 743 c 0
 720.667 743 701.667 737 687 725 c 1
 677.667 715.667 670 702.667 664 686 c 0
 662.667 680.667 662 675.667 662 671 c 0
 662 653 668.667 635.333 682 618 c 1
 712 596 l 1
717 465 m 1
 717 484.333 709.667 500.667 695 514 c 1
 652 477 l 1
 561 383 l 1
 486 301 l 2
 412 219.667 347 119.333 291 0 c 1
 199 0 l 1
 314 543 l 1
 301 539 l 1
 263 535 l 1
 243 535 226 538.333 212 545 c 0
 176.667 562.333 159 590 159 628 c 0
 159 638.667 160.333 650 163 662 c 1
 176 705 l 1
 186.667 729.667 207.333 750.333 238 767 c 0
 266 783 294.667 791 324 791 c 0
 398 791 435 759.667 435 697 c 0
 435 684.333 433.333 669.667 430 653 c 2
 342 240 l 1
 389 299 l 2
 425 343.667 463.333 385.333 504 424 c 2
 573 489 l 1
 650 555 l 1
 633 569 l 1
 601 589 585 614 585 644 c 0
 585 656.667 587 671.333 591 688 c 0
 598.333 722 618.333 749.667 651 771 c 0
 683.667 792.333 718 803 754 803 c 0
 828 803 865.667 764.667 867 688 c 1
 863.667 645.333 844.333 612 809 588 c 2
 761 555 l 1
 783 524 l 1
 796 489 l 1
 805 453 l 1
 804 410 l 1
 796 365 l 1
 719 0 l 1
 627 0 l 1
 718 428 l 1
 717 465 l 1
283 600 m 0
 324.333 600 349.333 620.667 358 662 c 0
 359.333 668.667 360 675 360 681 c 0
 360 709 343 723 309 723 c 0
 273 723 247.667 702.667 233 662 c 0
 231 654 230.333 647 231 641 c 0
 231 613.667 248.333 600 283 600 c 0
EndSplineSet
EndChar
StartChar: uni0E2C
Encoding: 248 3628
OldEncoding: 3628
Width: 944
Flags: W
Fore
882 721 m 0
 885.333 736.333 872.667 751.667 844 767 c 0
 818.667 779.667 797.333 786 780 786 c 0
 749.333 786 717.667 778.667 685 764 c 1
 646 735 l 1
 661.333 701 697.333 684 754 684 c 2
 799 684 l 1
 817.667 688 831 690.667 839 692 c 0
 865 698.667 879.333 708.333 882 721 c 0
747 143 m 1
 850 625 l 1
 810 612 l 1
 731 608 l 2
 697 606.667 661 616 623 636 c 0
 579.667 659.333 558 687 558 719 c 0
 558 723.667 558.333 728.333 559 733 c 0
 572.333 770.333 604 801.333 654 826 c 0
 699.333 848.667 743.667 860 787 860 c 0
 862.333 860 914.333 835.333 943 786 c 2
 961 756 l 1
 994 784 l 1
 1020 811 l 1
 1080 879 l 1
 1115 823 l 1
 1087 786 l 2
 1072.33 768 1055.67 751 1037 735 c 2
 985 692 l 1
 954 672 l 1
 811 0 l 1
 690 0 l 1
 586 446 l 1
 560.667 399.333 523.333 338.667 474 264 c 2
 299 0 l 1
 186 0 l 1
 298 526 l 1
 287 522 l 1
 258 518 l 1
 242 518 227 521.333 213 528 c 0
 180.333 544 164 571 164 609 c 0
 164 620.333 165.333 632.333 168 645 c 1
 181 688 l 1
 188.333 710.667 207 730.667 237 748 c 0
 267 765.333 294.667 774 320 774 c 0
 392 774 428 743.667 428 683 c 0
 428 669.667 426 654.333 422 637 c 1
 322 174 l 1
 584 582 l 1
 650 582 l 1
 747 143 l 1
280 584 m 0
 319.333 584 343.333 604.333 352 645 c 1
 353 678 l 1
 346.333 698.667 330.667 709 306 709 c 0
 274 709 250.333 687.667 235 645 c 1
 233.667 637.667 233 630.667 233 624 c 0
 233 597.333 248.667 584 280 584 c 0
EndSplineSet
EndChar
StartChar: uni0E2D
Encoding: 249 3629
OldEncoding: 3629
Width: 758
Flags: W
Fore
645 123 m 2
 639 95.6667 625 68.3333 603 41 c 1
 576.333 13.6667 544.667 -8.67362e-19 508 0 c 2
 233 0 l 2
 171 0 140 30.6667 140 92 c 0
 140 104 141.667 117 145 131 c 1
 203 408 l 1
 223 500.667 276 547 362 547 c 0
 388 547 412.167 539 434.5 523 c 0
 456.833 507 467 486.333 465 461 c 1
 462 428 l 1
 459 414 l 2
 447 359.333 415.667 321 365 299 c 0
 348.333 292.333 331 289 313 289 c 0
 298.333 289 287 290.333 279 293 c 2
 268 297 l 1
 239 160 l 2
 237 150 235.667 141 235 133 c 0
 235 103 249.667 88 279 88 c 2
 496 88 l 2
 518 88 533.333 93.3333 542 104 c 1
 555 125 l 1
 563 154 l 1
 649 557 l 1
 651.667 571.667 653 585.333 653 598 c 0
 653 677.333 605 717 509 717 c 0
 396.333 717 317.333 676 272 594 c 1
 211 637 l 1
 281 741 385 793 523 793 c 0
 585.667 793 636.667 779.667 676 753 c 0
 721.333 721.667 744 676.333 744 617 c 0
 744 599.667 742 581 738 561 c 1
 645 123 l 2
321 354 m 1
 355 354 379.333 374.667 394 416 c 0
 395.333 422 396 427.667 396 433 c 0
 396 463.667 380 479 348 479 c 0
 330 479 313.667 473 299 461 c 1
 289.667 451 281.667 436 275 416 c 0
 273.667 410 273 404.333 273 399 c 0
 273 389 275 379.667 279 371 c 1
 285.667 362.333 299.667 356.667 321 354 c 1
EndSplineSet
EndChar
StartChar: uni0E2E
Encoding: 250 3630
OldEncoding: 3630
Width: 731
Flags: W
Fore
828 756 m 1
 821.333 742 813.667 731 805 723 c 1
 772 684 l 1
 754.667 666 735.333 649 714 633 c 1
 717 618 l 1
 717 598 l 1
 616 123 l 2
 604.667 69.6667 575.667 32 529 10 c 1
 517 6 500.333 2.66667 479 0 c 1
 186 0 l 2
 158 0 135.333 9.66667 118 29 c 0
 100.667 48.3333 92 72.3333 92 101 c 0
 92 111 93 121 95 131 c 2
 135 317 l 1
 154.333 409 207 455 293 455 c 0
 365 455 399.333 420 396 350 c 1
 392 322 l 2
 384.667 270 356.333 233.667 307 213 c 0
 285 203.667 264.333 199 245 199 c 0
 233 199 222.333 200.333 213 203 c 2
 200 207 l 1
 190 160 l 1
 188 152 187 145 187 139 c 0
 187 127 190 117.667 196 111 c 1
 199.333 95.6667 211.333 88 232 88 c 2
 469 88 l 2
 503.667 88 525.333 110 534 154 c 1
 623 588 l 1
 556.333 552.667 476 535 382 535 c 0
 342.667 535 300.333 544.333 255 563 c 0
 199.667 587 172 615.333 172 648 c 0
 172 689.333 219 726 313 758 c 0
 381.667 781.333 438 793 482 793 c 0
 548.667 793 599.667 782 635 760 c 1
 691 707 l 1
 706 721 l 1
 735 750 l 1
 754 774 l 1
 772 801 l 1
 828 756 l 1
615 659 m 1
 570.333 697.667 521.333 717 468 717 c 0
 443.333 717 407.333 712 360 702 c 0
 303.333 690.667 273 676.333 269 659 c 0
 267.667 652.333 286.333 641 325 625 c 1
 370.333 611 410 604 444 604 c 0
 488.667 604 525.667 611 555 625 c 1
 615 659 l 1
253 264 m 0
 292.333 264 316.333 284.667 325 326 c 1
 326 358 l 1
 319.333 378.667 303.667 389 279 389 c 0
 247 389 223.333 368 208 326 c 1
 206.667 318 206 311 206 305 c 0
 206 277.667 221.667 264 253 264 c 0
EndSplineSet
EndChar
StartChar: uni0E2F
Encoding: 251 3631
OldEncoding: 3631
Width: 692
Flags: W
Fore
637 193 m 2
 623.667 131 595 83 551 49 c 1
 486 10 l 1
 467.333 2 447.333 -2 426 -2 c 1
 401 68 l 1
 435 68 469.667 83 505 113 c 0
 523.667 128.333 537 155.667 545 195 c 1
 610 498 l 1
 551.333 417.333 466.333 377 355 377 c 0
 281 377 228.333 402 197 452 c 0
 177 484 167 518.333 167 555 c 0
 167 574.333 170 594 176 614 c 1
 184 643 l 2
 195.333 684.333 217.833 718.833 251.5 746.5 c 0
 285.167 774.167 322.667 788 364 788 c 0
 432 788 466 761 466 707 c 0
 466 695.667 464.667 683.333 462 670 c 0
 454 632.667 436.167 601.833 408.5 577.5 c 0
 380.833 553.167 348.667 541 312 541 c 1
 286 545 l 1
 259 555 l 1
 261 523.667 263 506.667 265 504 c 0
 273.667 480.667 294.667 463.667 328 453 c 1
 368 449 l 1
 441.333 449 511.333 489.667 578 571 c 0
 620.667 623.667 651.667 696 671 788 c 1
 676.333 789.333 681.333 790 686 790 c 0
 728 790 749 769 749 727 c 0
 749 721 748.333 715 747 709 c 2
 637 193 l 2
325 604 m 0
 365.667 604 390.667 624.667 400 666 c 0
 401.333 673.333 402 680 402 686 c 0
 402 714.667 385.333 729 352 729 c 0
 315.333 729 289.667 708 275 666 c 0
 273 658.667 272 652 272 646 c 0
 272 618 289.667 604 325 604 c 0
EndSplineSet
EndChar
StartChar: uni0E30
Encoding: 252 3632
OldEncoding: 3632
Width: 682
Flags: W
Fore
716 631 m 1
 681.333 589.667 609 548.667 499 508 c 1
 441 496 l 1
 376 489 l 1
 314.667 489 268.333 507.667 237 545 c 0
 218.333 566.333 213 596.333 221 635 c 0
 239 719.667 289 762 371 762 c 0
 399.667 762 425.333 755.333 448 742 c 0
 474.667 726 488 704.667 488 678 c 0
 488 671.333 487.333 664.333 486 657 c 1
 483 635 l 1
 479.667 619 476 608 472 602 c 2
 451 571 l 1
 508 590 l 2
 535.333 598.667 566.667 614.333 602 637 c 1
 681 698 l 2
 697 710.667 718 732.667 744 764 c 1
 716 631 l 1
615 156 m 1
 580.333 114.667 508 73.6667 398 33 c 1
 340 20 l 1
 275 14 l 1
 213.667 14 167.333 32.6667 136 70 c 0
 117.333 91.3333 112 121.333 120 160 c 0
 138 244.667 188 287 270 287 c 0
 298.667 287 324.333 280.333 347 267 c 0
 373.667 251 387 229.667 387 203 c 0
 387 196.333 386.333 189.333 385 182 c 1
 382 160 l 1
 378.667 144 375 133 371 127 c 2
 350 96 l 1
 407 115 l 2
 434.333 123.667 465.667 139.333 501 162 c 1
 580 223 l 2
 596 235.667 617 257.667 643 289 c 1
 615 156 l 1
341 571 m 0
 383 571 408.667 592.333 418 635 c 0
 419.333 641.667 420 648.333 420 655 c 0
 420 685 402.667 700 368 700 c 0
 326 700 300.333 678.333 291 635 c 0
 289 627.667 288 621 288 615 c 0
 288 585.667 305.667 571 341 571 c 0
240 96 m 0
 282 96 307.667 117.333 317 160 c 0
 318.333 166.667 319 173.333 319 180 c 0
 319 210 301.667 225 267 225 c 0
 225 225 199.333 203.333 190 160 c 0
 188 152.667 187 145.667 187 139 c 0
 187 110.333 204.667 96 240 96 c 0
EndSplineSet
EndChar
StartChar: uni0E31
Encoding: 253 3633
OldEncoding: 3633
Width: 0
Flags: W
Fore
335 1085 m 1
 295.667 1054.33 238.333 1025 163 997 c 0
 137 987.667 115.667 980.333 99 975 c 1
 5 956 l 1
 -76 952 l 2
 -120.667 950 -164 959 -206 979 c 0
 -242 996.333 -264.333 1025 -273 1065 c 0
 -275 1074.33 -275 1090.67 -273 1114 c 1
 -257.667 1188 -210 1233 -130 1249 c 1
 -48 1257 -7 1226.33 -7 1157 c 0
 -7 1147 -8.33333 1136 -11 1124 c 2
 -15 1106 l 1
 -23.6667 1084 -33.3333 1067 -44 1055 c 1
 -64 1036 l 1
 11 1036 l 1
 35 1040 74 1050.33 128 1067 c 1
 232.667 1111.67 312 1166.33 366 1231 c 1
 335 1085 l 1
-155 1055 m 0
 -135.667 1055 -117.333 1061 -100 1073 c 1
 -89.3333 1084.33 -80.3333 1100.67 -73 1122 c 0
 -71.6667 1126 -71 1130 -71 1134 c 0
 -71 1145.33 -74.3333 1157 -81 1169 c 1
 -89.6667 1180.33 -104.667 1187.33 -126 1190 c 1
 -171.333 1190 -198.667 1167.33 -208 1122 c 0
 -209.333 1114.67 -210 1107.67 -210 1101 c 0
 -210 1070.33 -191.667 1055 -155 1055 c 0
EndSplineSet
EndChar
StartChar: uni0E32
Encoding: 254 3634
OldEncoding: 3634
Width: 586
Flags: W
Fore
479 0 m 1
 387 0 l 1
 502 543 l 2
 508.667 574.333 512 601 512 623 c 0
 512 644.333 509 661.333 503 674 c 0
 489.667 698.667 456.333 711 403 711 c 0
 352.333 711 307.333 696 268 666 c 0
 248.667 650.667 227 625.333 203 590 c 1
 144 637 l 1
 178 687 209 721.667 237 741 c 0
 284.333 774.333 346 791 422 791 c 0
 545.333 791 607 738.667 607 634 c 0
 607 612 604 587 598 559 c 2
 479 0 l 1
EndSplineSet
EndChar
StartChar: uni0E33
Encoding: 255 3635
OldEncoding: 3635
Width: 586
Flags: W
Fore
-52 903 m 0
 -128.667 903 -167 937.333 -167 1006 c 0
 -167 1018 -165.667 1030.67 -163 1044 c 0
 -154.333 1086.67 -134.167 1121.33 -102.5 1148 c 0
 -70.8333 1174.67 -33.6667 1188 9 1188 c 0
 85.6667 1188 124 1152.33 124 1081 c 0
 124 1069.67 122.667 1057.33 120 1044 c 0
 110.667 1002 90.5 968 59.5 942 c 0
 28.5 916 -8.66667 903 -52 903 c 0
-37 973 m 1
 12.3333 973 42 996.667 52 1044 c 0
 54 1052.67 55 1060.67 55 1068 c 0
 55 1101.33 34.6667 1118 -6 1118 c 0
 -52 1118 -81 1093.33 -93 1044 c 0
 -95 1036.67 -96 1029.67 -96 1023 c 0
 -96 994.333 -76.3333 977.667 -37 973 c 1
471 0 m 1
 379 0 l 1
 494 543 l 2
 500.667 574.333 504 601 504 623 c 0
 504 644.333 500.667 661.333 494 674 c 0
 481.333 698.667 448.333 711 395 711 c 0
 344.333 711 299.333 696 260 666 c 0
 240.667 650.667 219 625.333 195 590 c 1
 135 637 l 1
 169.667 687 201 721.667 229 741 c 0
 276.333 774.333 338 791 414 791 c 0
 537.333 791 599 738.667 599 634 c 0
 599 612 596 587 590 559 c 2
 471 0 l 1
EndSplineSet
EndChar
StartChar: uni0E34
Encoding: 256 3636
OldEncoding: 3636
Width: 0
Flags: W
Fore
37 877 m 1
 -57.6667 919 -158.333 940 -265 940 c 0
 -353.667 940 -452.667 921.667 -562 885 c 1
 -542.667 973 -500 1044.17 -434 1098.5 c 0
 -368 1152.83 -290 1180 -200 1180 c 0
 -114 1180 -48.3333 1151 -3 1093 c 0
 29 1051.67 45 1003.33 45 948 c 0
 45 925.333 42.3333 901.667 37 877 c 1
-28 975 m 1
 -48.6667 1063.67 -109 1108 -209 1108 c 0
 -297.667 1108 -373.333 1067 -436 985 c 1
 -345 1008 l 2
 -328.333 1012 -293.667 1014 -241 1014 c 0
 -179 1014 -124 1007 -76 993 c 0
 -64 989.667 -48 983.667 -28 975 c 1
EndSplineSet
EndChar
StartChar: uni0E35
Encoding: 257 3637
OldEncoding: 3637
Width: 0
Flags: W
Fore
57 883 m 1
 -38.3333 925 -139 946 -245 946 c 0
 -333.667 946 -432.667 927.667 -542 891 c 1
 -524 973.667 -480.667 1043.5 -412 1100.5 c 0
 -343.333 1157.5 -266.667 1186 -182 1186 c 0
 -120.667 1186 -73 1173 -39 1147 c 0
 -28.3333 1139 -18 1126 -8 1108 c 1
 28 1278 l 1
 120 1278 l 1
 64 1006 l 1
 66 954 l 1
 57 883 l 1
-11 981 m 1
 -27.6667 1069.67 -87.6667 1114 -191 1114 c 0
 -279.667 1114 -354.667 1073 -416 991 c 1
 -332 1010 l 1
 -222 1018 l 1
 -158 1018 l 1
 -134.667 1014.67 -104.667 1009 -68 1001 c 0
 -57.3333 999 -38.3333 992.333 -11 981 c 1
EndSplineSet
EndChar
StartChar: uni0E36
Encoding: 258 3638
OldEncoding: 3638
Width: 0
Flags: W
Fore
15 1063 m 1
 35 1020 l 1
 42 977 l 1
 42 922 l 1
 38 881 l 1
 33 858 l 1
 -43.6667 889.333 -115.333 908.333 -182 915 c 0
 -208.667 918.333 -237.667 920 -269 920 c 0
 -366.333 920 -464.333 902 -563 866 c 1
 -539 982 -479 1065.33 -383 1116 c 0
 -371 1122.67 -342.667 1134.33 -298 1151 c 1
 -258 1161.67 -224.333 1166.33 -197 1165 c 2
 -154 1163 l 1
 -135 1159 l 1
 -132 1190 l 1
 -129.333 1203.33 -120.667 1219 -106 1237 c 1
 -85.3333 1268.33 -45.6667 1287.33 13 1294 c 1
 59.6667 1294 91.3333 1273.67 108 1233 c 0
 110.667 1223.67 112 1212.67 112 1200 c 0
 112 1192.67 111.667 1184.67 111 1176 c 1
 99 1120 67 1082.33 15 1063 c 1
-25 1114 m 1
 -7.66667 1114 8.66667 1120.33 24 1133 c 1
 34 1143.67 42.3333 1157.33 49 1174 c 0
 50.3333 1180.67 51 1187 51 1193 c 0
 51 1221 34 1235 0 1235 c 0
 -34 1235 -58 1214.67 -72 1174 c 0
 -73.3333 1168 -74 1162.67 -74 1158 c 0
 -74 1133.33 -57.6667 1118.67 -25 1114 c 1
-32 956 m 1
 -54.6667 1043.33 -115 1087 -213 1087 c 0
 -303 1087 -378 1047 -438 967 c 1
 -360 985 l 1
 -246 993 l 2
 -207.333 995.667 -169.667 992.333 -133 983 c 2
 -32 956 l 1
EndSplineSet
EndChar
StartChar: uni0E37
Encoding: 259 3639
OldEncoding: 3639
Width: 0
Flags: W
Fore
59 872 m 1
 -35.6667 914.667 -136 936 -242 936 c 0
 -331.333 936 -430.333 917.667 -539 881 c 1
 -503 1051 -402 1150.67 -236 1180 c 0
 -213.333 1184 -194.667 1185.33 -180 1184 c 2
 -153 1182 l 1
 -134 1272 l 1
 -46 1272 l 1
 -69 1163 l 1
 -34 1147 l 1
 -8 1116 l 1
 26 1272 l 1
 114 1272 l 1
 57 1004 l 1
 60 981 l 1
 64 940 l 1
 59 872 l 1
-8 971 m 1
 -26 1058.33 -86.3333 1102 -189 1102 c 0
 -279 1102 -353.667 1061.67 -413 981 c 1
 -335 999 l 1
 -219 1008 l 1
 -156 1008 l 1
 -132 1004.67 -101.667 999 -65 991 c 0
 -54.3333 989 -35.3333 982.333 -8 971 c 1
EndSplineSet
EndChar
StartChar: uni0E38
Encoding: 260 3640
OldEncoding: 3640
Width: 0
Flags: W
Fore
-238 -418 m 1
 -341 -418 l 1
 -308 -264 l 1
 -344 -270 l 1
 -358 -270 -371 -267.333 -383 -262 c 0
 -416.333 -247.333 -433 -221.333 -433 -184 c 0
 -433 -174 -432 -163.333 -430 -152 c 0
 -414.667 -82 -364 -47 -278 -47 c 0
 -213.333 -47 -181 -74.6667 -181 -130 c 0
 -181 -142 -182.667 -155.333 -186 -170 c 1
 -238 -418 l 1
-319 -201 m 0
 -304.333 -201 -291.333 -194.667 -280 -182 c 1
 -265 -156 l 1
 -263.667 -150.667 -263 -145.667 -263 -141 c 0
 -263 -121 -275.333 -111 -300 -111 c 0
 -316.667 -111 -329.333 -116.333 -338 -127 c 1
 -355 -156 l 1
 -361 -186 -349 -201 -319 -201 c 0
EndSplineSet
EndChar
StartChar: uni0E39
Encoding: 261 3641
OldEncoding: 3641
Width: 0
Flags: W
Fore
-340 -348 m 2
 -332 -348 -325.667 -346 -321 -342 c 1
 -311 -315 l 1
 -256 -59 l 1
 -170 -59 l 1
 -228 -330 l 1
 -239.333 -384.667 -260.667 -412 -292 -412 c 2
 -497 -412 l 1
 -466 -264 l 1
 -476 -266 l 1
 -506 -270 l 1
 -520.667 -270 -534.333 -267.333 -547 -262 c 0
 -577.667 -249.333 -593 -226 -593 -192 c 0
 -593 -182.667 -591.667 -172.667 -589 -162 c 1
 -583 -143 l 2
 -563.667 -83 -520.667 -53 -454 -53 c 0
 -389.333 -53 -357 -78.6667 -357 -130 c 0
 -357 -141.333 -358.333 -154 -361 -168 c 1
 -402 -348 l 1
 -340 -348 l 2
-490 -207 m 0
 -458.667 -207 -440 -192 -434 -162 c 0
 -432.667 -156.667 -432 -152 -432 -148 c 0
 -432 -127.333 -445 -117 -471 -117 c 0
 -495.667 -117 -514 -132 -526 -162 c 0
 -527.333 -167.333 -528 -172 -528 -176 c 0
 -528 -196.667 -515.333 -207 -490 -207 c 0
EndSplineSet
EndChar
StartChar: uni0E3A
Encoding: 262 3642
OldEncoding: 3642
Width: 0
Flags: W
Fore
-275 -262 m 0
 -298.333 -262 -316.333 -254 -329 -238 c 1
 -337 -222.667 -339.667 -203.333 -337 -180 c 1
 -325.667 -125.333 -293.333 -98 -240 -98 c 0
 -195.333 -98 -173 -119 -173 -161 c 0
 -173 -167 -174 -173.333 -176 -180 c 0
 -187.333 -234.667 -220.333 -262 -275 -262 c 0
EndSplineSet
EndChar
StartChar: uni0E3F
Encoding: 263 3647
OldEncoding: 3647
Width: 842
Flags: W
Fore
456 526 m 1
 521 834 l 1
 384 834 l 1
 319 526 l 1
 456 526 l 1
364 94 m 1
 435 430 l 1
 298 430 l 1
 227 94 l 1
 364 94 l 1
530 430 m 1
 458 94 l 1
 534 94 l 2
 646 94 714.333 151.333 739 266 c 0
 742.333 282.667 744 298 744 312 c 0
 744 390.667 676.667 430 542 430 c 2
 530 430 l 1
615 834 m 1
 550 526 l 1
 573 526 l 2
 622.333 526 666 538.333 704 563 c 0
 746 589.667 772 626 782 672 c 0
 785.333 687.333 787 702 787 716 c 0
 787 794.667 729.667 834 615 834 c 1
565 1040 m 1
 659 1040 l 1
 635 928 l 1
 699 928 l 2
 752.333 928 797.333 911.667 834 879 c 0
 870.667 846.333 889 803.667 889 751 c 0
 889 733.667 887 714.667 883 694 c 0
 863.667 604 805 536.667 707 492 c 1
 758 463 l 2
 810 433.667 836.333 387.333 837 324 c 0
 837 304 834.333 282.667 829 260 c 0
 811.667 178 769 111 701 59 c 0
 649 19.6667 599.667 1.73472e-18 553 0 c 2
 438 0 l 1
 412 -125 l 1
 318 -125 l 1
 344 0 l 1
 113 0 l 1
 310 928 l 1
 541 928 l 1
 565 1040 l 1
EndSplineSet
EndChar
StartChar: uni0E40
Encoding: 264 3648
OldEncoding: 3648
Width: 455
Flags: W
Fore
413 102 m 1
 403.667 71.3333 384.167 46.3333 354.5 27 c 0
 324.833 7.66667 293.333 -2 260 -2 c 0
 185.333 -2 148 29 148 91 c 0
 148 104.333 150 119 154 135 c 1
 293 788 l 1
 385 788 l 1
 269 246 l 1
 282 250 l 1
 320 254 l 1
 340 254 357 250.667 371 244 c 0
 407.667 226.667 426 200.333 426 165 c 0
 426 153 424 140.333 420 127 c 2
 413 102 l 1
274 66 m 0
 316.667 66 342.333 86.3333 351 127 c 0
 352.333 133.667 353 140 353 146 c 0
 353 174 335.333 188 300 188 c 0
 259.333 188 234.667 167.667 226 127 c 0
 224 119.667 223 113 223 107 c 0
 223 79.6667 240 66 274 66 c 0
EndSplineSet
EndChar
StartChar: uni0E41
Encoding: 265 3649
OldEncoding: 3649
Width: 803
Flags: W
Fore
769 102 m 2
 760.333 72 741.167 47.1667 711.5 27.5 c 0
 681.833 7.83333 650.667 -2 618 -2 c 0
 542.667 -2 505 29.3333 505 92 c 0
 505 104.667 506.667 119 510 135 c 2
 649 788 l 1
 743 788 l 1
 628 246 l 1
 641 250 l 1
 679 254 l 1
 697.667 254 714.667 250.667 730 244 c 0
 765.333 227.333 783 201.667 783 167 c 0
 783 155 781 142.333 777 129 c 2
 769 102 l 2
413 102 m 1
 403.667 71.3333 384.167 46.3333 354.5 27 c 0
 324.833 7.66667 293.333 -2 260 -2 c 0
 185.333 -2 148 29 148 91 c 0
 148 104.333 150 119 154 135 c 1
 293 788 l 1
 385 788 l 1
 269 246 l 1
 282 250 l 1
 320 254 l 1
 340 254 357 250.667 371 244 c 0
 407.667 226.667 426 200.333 426 165 c 0
 426 153 424 140.333 420 127 c 2
 413 102 l 1
632 66 m 0
 673.333 66 698.333 86.3333 707 127 c 0
 708.333 134.333 709 140.667 709 146 c 0
 709 174 692.333 188 659 188 c 0
 623 188 597.333 167.667 582 127 c 1
 580.667 119.667 580 113 580 107 c 0
 580 79.6667 597.333 66 632 66 c 0
274 66 m 0
 316.667 66 342.333 86.3333 351 127 c 0
 352.333 133.667 353 140 353 146 c 0
 353 174 335.333 188 300 188 c 0
 259.333 188 234.667 167.667 226 127 c 0
 224 119.667 223 113 223 107 c 0
 223 79.6667 240 66 274 66 c 0
EndSplineSet
EndChar
StartChar: uni0E42
Encoding: 266 3650
OldEncoding: 3650
Width: 553
Flags: W
Fore
744 1286 m 1
 718 1270 l 1
 694 1258.67 666.333 1253 635 1253 c 0
 608.333 1253 582.333 1258.67 557 1270 c 0
 498.333 1294.67 456.667 1308.33 432 1311 c 1
 397 1307 l 2
 387.667 1307 373.333 1301.33 354 1290 c 2
 329 1276 l 1
 374 1257 l 2
 440.667 1230.33 484 1196.33 504 1155 c 0
 513.333 1135 514.667 1110.33 508 1081 c 1
 331 246 l 1
 344 250 l 1
 382 254 l 1
 401.333 254 418.333 250.667 433 244 c 0
 469.667 226.667 488 200.333 488 165 c 0
 488 153 486 140.333 482 127 c 2
 474 102 l 1
 465.333 71.3333 446 46.3333 416 27 c 0
 386 7.66667 354.333 -2 321 -2 c 0
 247 -2 210 29 210 91 c 0
 210 104.333 211.667 119 215 135 c 2
 413 1067 l 1
 415 1074.33 416 1081.67 416 1089 c 0
 416 1131.67 387.333 1166.67 330 1194 c 2
 261 1227 l 2
 226.333 1243 201.333 1251 186 1251 c 1
 265.333 1334.33 352 1376 446 1376 c 0
 476 1376 523.667 1365 589 1343 c 0
 620.333 1333 643.333 1329 658 1331 c 2
 707 1339 l 1
 714.333 1341.67 721.333 1346.67 728 1354 c 1
 744 1286 l 1
335 66 m 0
 377.667 66 403.333 86.3333 412 127 c 0
 413.333 133.667 414 140 414 146 c 0
 414 174 396.667 188 362 188 c 0
 320.667 188 295.667 167.667 287 127 c 0
 285.667 119.667 285 113 285 107 c 0
 285 79.6667 301.667 66 335 66 c 0
EndSplineSet
EndChar
StartChar: uni0E43
Encoding: 267 3651
OldEncoding: 3651
Width: 535
Flags: W
Fore
487 102 m 1
 477.667 71.3333 458.167 46.3333 428.5 27 c 0
 398.833 7.66667 367 -2 333 -2 c 0
 258.333 -2 221.333 29.6667 222 93 c 0
 222.667 105.667 224.333 119.667 227 135 c 1
 459 1225 l 2
 460.333 1231.67 461 1238 461 1244 c 0
 461 1284.67 440.667 1305 400 1305 c 0
 356.667 1305 326.333 1283.67 309 1241 c 1
 324 1243 l 1
 360.667 1243 381.667 1227.33 387 1196 c 0
 389 1185.33 388.333 1166.33 385 1139 c 1
 369 1061 330 1022 268 1022 c 0
 216.667 1022 191 1049.33 191 1104 c 0
 191 1120 193 1138.33 197 1159 c 0
 209.667 1219 234.667 1268 272 1306 c 0
 312.667 1348.67 362 1370 420 1370 c 0
 468.667 1370 505 1356.67 529 1330 c 0
 553 1303.33 560 1266.33 550 1219 c 2
 343 246 l 1
 356 250 l 1
 394 254 l 1
 413.333 254 430.333 250.667 445 244 c 0
 481.667 226.667 500 200.333 500 165 c 0
 500 153 498 140.333 494 127 c 2
 487 102 l 1
279 1079 m 0
 303 1079 318.667 1095.33 326 1128 c 0
 328 1137.33 329 1145.33 329 1152 c 0
 329 1173.33 319.667 1184 301 1184 c 0
 276.333 1184 260 1165.33 252 1128 c 0
 250.667 1121.33 250 1115 250 1109 c 0
 250 1089 259.667 1079 279 1079 c 0
348 66 m 0
 390 66 415.333 86.3333 424 127 c 0
 426 133.667 427 140 427 146 c 0
 427 174 409.333 188 374 188 c 0
 332.667 188 307.667 167.667 299 127 c 0
 297.667 119.667 297 113 297 107 c 0
 297 79.6667 314 66 348 66 c 0
EndSplineSet
EndChar
StartChar: uni0E44
Encoding: 268 3652
OldEncoding: 3652
Width: 600
Flags: W
Fore
536 102 m 2
 526.667 70.6667 507.667 45.5 479 26.5 c 0
 450.333 7.5 419 -2 385 -2 c 0
 310.333 -2 273 29 273 91 c 0
 273 104.333 275 119 279 135 c 1
 515 1249 l 1
 518.333 1263 520 1274 520 1282 c 0
 520 1292.67 517.333 1298 512 1298 c 0
 503.333 1298 492.333 1286 479 1262 c 1
 359 985 l 2
 335.667 931.667 304.667 905 266 905 c 0
 214.667 905 192.667 933 200 989 c 2
 229 1210 l 1
 235 1258 226.667 1286.67 204 1296 c 1
 184 1300 l 1
 200 1376 l 1
 247.333 1381.33 282 1367 304 1333 c 0
 316 1313.67 320 1287 316 1253 c 1
 278 973 l 1
 424 1300 l 2
 446.667 1350.67 485.333 1376 540 1376 c 0
 590 1376 615 1351.33 615 1302 c 0
 615 1289.33 613 1274.33 609 1257 c 1
 394 246 l 1
 407 250 l 1
 445 254 l 1
 464.333 254 481.333 250.667 496 244 c 0
 531.333 227.333 549 201.667 549 167 c 0
 549 155 547.333 142.333 544 129 c 1
 536 102 l 2
399 66 m 0
 439.667 66 464.333 86.3333 473 127 c 0
 475 134.333 476 140.667 476 146 c 0
 476 174 459 188 425 188 c 0
 389 188 363.667 167.667 349 127 c 0
 347 119.667 346 113 346 107 c 0
 346.667 79.6667 364.333 66 399 66 c 0
EndSplineSet
EndChar
StartChar: uni0E45
Encoding: 269 3653
OldEncoding: 3653
Width: 295
Flags: W
Fore
155 -291 m 1
 63 -291 l 1
 238 532 l 1
 249.333 586.667 253 626.333 249 651 c 0
 241.667 693.667 216 715 172 715 c 0
 124.667 715 88.5 707.667 63.5 693 c 0
 38.5 678.333 14.6667 650 -8 608 c 1
 -64 643 l 1
 -22.6667 739.667 60 788 184 788 c 0
 272.667 788 325.333 759.333 342 702 c 0
 344.667 691.333 346 677.667 346 661 c 0
 346 626.333 339.667 578 327 516 c 1
 155 -291 l 1
EndSplineSet
EndChar
StartChar: uni0E46
Encoding: 270 3654
OldEncoding: 3654
Width: 756
Flags: W
Fore
655 -78 m 1
 631.667 -189.333 555 -267 425 -311 c 0
 404.333 -318.333 385 -323.333 367 -326 c 1
 338 -258 l 1
 371 -250 l 1
 427 -230.667 468 -210.667 494 -190 c 0
 528.667 -163.333 551 -126 561 -78 c 2
 703 590 l 2
 706.333 605.333 708 618.667 708 630 c 0
 708 652 702.333 668 691 678 c 1
 655 700 l 1
 646.333 704 638 706 630 706 c 0
 626 706 622.333 705.667 619 705 c 1
 513 649 l 1
 437 698 l 2
 435 700 432.333 701 429 701 c 0
 419.667 701 405.667 695.333 387 684 c 1
 349 657.333 323.333 622.667 310 580 c 1
 306 551 l 1
 327 563 l 1
 344.333 569.667 365.667 574.667 391 578 c 1
 413 575 l 1
 443 575 465.667 561.333 481 534 c 0
 491.667 514 497 493.667 497 473 c 0
 497 440.333 486.333 411 465 385 c 1
 445 356.333 414.667 336.667 374 326 c 0
 364 323.333 352.333 322 339 322 c 0
 267.667 322 224 360.667 208 438 c 1
 207.333 448.667 207 459.333 207 470 c 0
 207 540.667 223.333 602.333 256 655 c 0
 295.333 718.333 359.333 762.667 448 788 c 1
 528 723 l 1
 632 788 l 1
 652 788 670 784.667 686 778 c 1
 712.667 772.667 733.333 764 748 752 c 0
 786 718.667 805 681.333 805 640 c 0
 805 630.667 803.667 620.667 801 610 c 1
 655 -78 l 1
350 383 m 0
 394.667 383 421.667 405 431 449 c 0
 433 456.333 434 463.333 434 470 c 0
 434 500.667 415.333 516 378 516 c 0
 340 516 313.333 493.667 298 449 c 1
 297.333 443.667 297 439 297 435 c 0
 297 400.333 314.667 383 350 383 c 0
EndSplineSet
EndChar
StartChar: uni0E47
Encoding: 271 3655
OldEncoding: 3655
Width: 0
Flags: W
Fore
-42 1153 m 2
 -76 1153 l 1
 -94 1155 l 1
 -194 1167 l 1
 -237 1169 l 2
 -261.667 1170.33 -283.333 1167 -302 1159 c 1
 -338 1151 -364 1123 -380 1075 c 1
 -382 1028 l 1
 -349.333 1063.33 -312 1081 -270 1081 c 0
 -222.667 1081 -182.333 1062 -149 1024 c 1
 -127.667 1072 -92 1096 -42 1096 c 0
 12 1096 39 1068.67 39 1014 c 0
 39 980.667 26.8333 952.167 2.5 928.5 c 0
 -21.8333 904.833 -51 893 -85 893 c 1
 -118 899 l 2
 -138 903 -154.667 911.333 -168 924 c 2
 -211 965 l 1
 -240 989 l 1
 -248.667 993 -261.667 996.333 -279 999 c 1
 -317 993 l 2
 -345.667 988.333 -366.333 956.333 -379 897 c 2
 -381 887 l 1
 -445 911.667 -476.333 954 -475 1014 c 1
 -468 1065 l 2
 -463.333 1099 -447.5 1132.33 -420.5 1165 c 0
 -393.5 1197.67 -363.667 1219 -331 1229 c 1
 -269 1241 l 1
 -219 1243 l 1
 -182 1243 l 1
 -12 1225 l 1
 46.6667 1225 81.6667 1251 93 1303 c 1
 192 1309 l 1
 170 1205 92 1153 -42 1153 c 2
-26 993 m 1
 -25.3333 997 -25 1000.67 -25 1004 c 0
 -25 1020 -34.6667 1028 -54 1028 c 0
 -76 1028 -89.3333 1016.33 -94 993 c 0
 -94.6667 989 -95 985.333 -95 982 c 0
 -95 966 -86.3333 958 -69 958 c 0
 -56.3333 958 -46.6667 961.667 -40 969 c 1
 -26 993 l 1
EndSplineSet
EndChar
StartChar: uni0E48
Encoding: 272 3656
OldEncoding: 3656
Width: 0
Flags: W
Fore
130 1325 m 1
 42 1325 l 1
 95 1575 l 1
 183 1575 l 1
 130 1325 l 1
EndSplineSet
EndChar
StartChar: uni0E49
Encoding: 273 3657
OldEncoding: 3657
Width: 0
Flags: W
Fore
336 1475 m 1
 278 1417.67 216.333 1375.33 151 1348 c 0
 134.333 1340.67 102.333 1331 55 1319 c 1
 -31 1311 l 1
 -68 1311 l 1
 -101 1315 l 1
 -79 1328.33 -60.3333 1343.33 -45 1360 c 2
 -28 1380 l 1
 -15 1405 l 1
 -21 1404.33 -26.6667 1404 -32 1404 c 0
 -87.3333 1404 -115 1429.67 -115 1481 c 0
 -115 1488.33 -114 1496.33 -112 1505 c 0
 -97.3333 1573.67 -59.3333 1608 2 1608 c 1
 23 1610 l 1
 81.6667 1610 110.333 1577.67 109 1513 c 1
 101.667 1480.33 88.6667 1448.33 70 1417 c 1
 36 1374 l 1
 65.3333 1380.67 94 1391 122 1405 c 0
 182 1433.67 239.667 1472.67 295 1522 c 0
 318.333 1542.67 341 1569.33 363 1602 c 1
 336 1475 l 1
-10 1456 m 0
 22.6667 1456 42.3333 1471.67 49 1503 c 0
 50.3333 1508.33 51 1513.33 51 1518 c 0
 51 1540.67 37.3333 1554.33 10 1559 c 1
 -22.6667 1559 -43.3333 1541.67 -52 1507 c 0
 -54 1501 -55 1495.33 -55 1490 c 0
 -55 1467.33 -40 1456 -10 1456 c 0
EndSplineSet
EndChar
StartChar: uni0E4A
Encoding: 274 3658
OldEncoding: 3658
Width: 0
Flags: W
Fore
429 1528 m 1
 395.667 1431.33 332 1366.33 238 1333 c 0
 200 1319.67 156.333 1313 107 1313 c 1
 151 1356 l 1
 167.667 1376 181 1399.67 191 1427 c 1
 201 1477 l 1
 202.333 1508.33 189 1526 161 1530 c 0
 143.667 1532.67 126 1529.33 108 1520 c 0
 96 1515.33 86.3333 1508.33 79 1499 c 1
 72.3333 1509 60.3333 1517 43 1523 c 0
 25.6667 1529 11 1530.67 -1 1528 c 0
 -37 1520 -59.6667 1493.33 -69 1448 c 1
 -49.6667 1461.33 -28.3333 1468 -5 1468 c 0
 35 1468 55 1446.67 55 1404 c 0
 55 1375.33 43.8333 1352 21.5 1334 c 0
 -0.833333 1316 -26.6667 1307 -56 1307 c 0
 -90.6667 1307 -114.667 1322 -128 1352 c 0
 -139.333 1376.67 -141 1407.33 -133 1444 c 0
 -112.333 1542 -66 1591 6 1591 c 1
 44 1595 71 1579.33 87 1544 c 1
 112.333 1575.33 146.333 1591 189 1591 c 0
 246.333 1591 275 1565.67 275 1515 c 0
 275 1508.33 274 1501 272 1493 c 0
 260 1434.33 240.667 1391.33 214 1364 c 1
 248 1376 283.667 1405.33 321 1452 c 0
 338.333 1474 350.333 1496 357 1518 c 2
 377 1583 l 1
 429 1528 l 1
-37 1350 m 0
 -13.6667 1350 0.666667 1362 6 1386 c 0
 11.3333 1410.67 1.66667 1423 -23 1423 c 0
 -46.3333 1423 -60.6667 1410.67 -66 1386 c 0
 -71.3333 1362 -61.6667 1350 -37 1350 c 0
EndSplineSet
EndChar
StartChar: uni0E4B
Encoding: 275 3659
OldEncoding: 3659
Width: 0
Flags: W
Fore
256 1405 m 1
 149 1405 l 1
 127 1303 l 1
 43 1303 l 1
 65 1405 l 1
 -47 1405 l 1
 -30 1489 l 1
 83 1489 l 1
 106 1597 l 1
 190 1597 l 1
 167 1489 l 1
 273 1489 l 1
 256 1405 l 1
EndSplineSet
EndChar
StartChar: uni0E4C
Encoding: 276 3660
OldEncoding: 3660
Width: 0
Flags: W
Fore
387 1597 m 1
 368 1550 l 1
 354.667 1525.33 331.333 1504.33 298 1487 c 1
 269.333 1474.33 222.667 1464.67 158 1458 c 1
 78 1458 23 1440.33 -7 1405 c 1
 -20 1380 l 1
 0.666667 1394 24 1401 50 1401 c 0
 105.333 1401 133 1375.33 133 1324 c 0
 133 1284 116.667 1250 84 1222 c 0
 58.6667 1200.67 31 1190 1 1190 c 0
 -33 1190 -60.6667 1201.17 -82 1223.5 c 0
 -103.333 1245.83 -114 1274.33 -114 1309 c 0
 -114 1319.67 -112.667 1331 -110 1343 c 1
 -95 1384 l 1
 -53 1473.33 38.3333 1518 179 1518 c 0
 221.667 1518 253.667 1530 275 1554 c 1
 299 1597 l 1
 387 1597 l 1
10 1243 m 0
 46 1243 67.6667 1260.67 75 1296 c 0
 76.3333 1302 77 1307.67 77 1313 c 0
 77 1337.67 61.6667 1350.67 31 1352 c 0
 -5.66667 1353.33 -27.6667 1335.33 -35 1298 c 0
 -36.3333 1292 -37 1286.33 -37 1281 c 0
 -37 1255.67 -21.3333 1243 10 1243 c 0
EndSplineSet
EndChar
StartChar: uni0E4D
Encoding: 277 3661
OldEncoding: 3661
Width: 0
Flags: W
Fore
-48 846 m 0
 -121.333 846 -158 880 -158 948 c 0
 -158 958 -156.667 969 -154 981 c 0
 -134.667 1072.33 -80 1118 10 1118 c 0
 84.6667 1118 122 1084 122 1016 c 0
 122 1005.33 120.667 993.667 118 981 c 0
 99.3333 891 44 846 -48 846 c 0
-34 907 m 0
 16 907 46.3333 931.667 57 981 c 0
 59 989.667 60 997.333 60 1004 c 0
 60 1039.33 39 1057 -3 1057 c 0
 -51.6667 1057 -81.6667 1031.67 -93 981 c 0
 -94.3333 972.333 -95 964.333 -95 957 c 0
 -95 923.667 -74.6667 907 -34 907 c 0
EndSplineSet
EndChar
StartChar: uni0E4E
Encoding: 278 3662
OldEncoding: 3662
Width: 0
Flags: W
Fore
175 1024 m 1
 131 992.667 73 977 1 977 c 0
 -81 977 -122 1002.67 -122 1054 c 0
 -122 1062 -121 1070.33 -119 1079 c 0
 -112.333 1111.67 -95.3333 1139.67 -68 1163 c 0
 -20 1205.67 40.3333 1227 113 1227 c 0
 92.3333 1227 74.3333 1233.5 59 1246.5 c 0
 43.6667 1259.5 36 1276 36 1296 c 0
 36 1301.33 36.3333 1307 37 1313 c 1
 61.6667 1369 127.667 1405 235 1421 c 1
 282 1423 l 2
 326.667 1425 358.333 1419.67 377 1407 c 1
 317 1368 l 1
 298 1372 l 1
 266 1378 l 1
 224 1372 l 1
 179.333 1360 150.667 1337 138 1303 c 0
 136.667 1298.33 136 1294 136 1290 c 0
 136 1275.33 142.667 1263.67 156 1255 c 1
 184 1243 l 1
 220 1239 l 1
 190 1192 l 1
 146 1192 105.667 1184 69 1168 c 0
 21 1146.67 -3 1116.67 -3 1078 c 0
 -3 1047.33 16 1032 54 1032 c 0
 88 1032 116.333 1041.67 139 1061 c 1
 175 1024 l 1
EndSplineSet
EndChar
StartChar: uni0E4F
Encoding: 279 3663
OldEncoding: 3663
Width: 801
Flags: W
Fore
414 0 m 0
 324 0 256 28.6667 210 86 c 0
 177.333 126.667 161 175.333 161 232 c 0
 161 255.333 164 280.333 170 307 c 0
 189.333 398.333 233.5 472.667 302.5 530 c 0
 371.5 587.333 452.333 616 545 616 c 0
 635 616 702.333 587 747 529 c 0
 779 488.333 795 440 795 384 c 0
 795 360 792 334.333 786 307 c 0
 766.667 215.667 723 141.667 655 85 c 0
 587 28.3333 506.667 -1.73472e-18 414 0 c 0
422 41 m 0
 501.333 41 570.5 66 629.5 116 c 0
 688.5 166 726.333 229.667 743 307 c 0
 748.333 330.333 751 352.667 751 374 c 0
 751 422 737.333 463.667 710 499 c 0
 671.333 548.333 613.333 573 536 573 c 0
 458 573 388.667 547.833 328 497.5 c 0
 267.333 447.167 229 383.667 213 307 c 0
 207.667 283.667 205 262 205 242 c 0
 205 192.667 218.667 150.667 246 116 c 0
 284.667 66 343.333 41 422 41 c 0
442 133 m 0
 400.667 133 366.333 145 339 169 c 0
 311.667 193 298 225.333 298 266 c 0
 298 278.667 299.667 292.333 303 307 c 0
 313.667 359 338.833 401.333 378.5 434 c 0
 418.167 466.667 464 483 516 483 c 0
 558 483 592.5 470.833 619.5 446.5 c 0
 646.5 422.167 660 389.667 660 349 c 0
 660 335.667 658.333 321.667 655 307 c 0
 644.333 255.667 619.333 213.833 580 181.5 c 0
 540.667 149.167 494.667 133 442 133 c 0
449 174 m 0
 537.667 174 591.333 217.667 610 305 c 0
 612 317 613 328.333 613 339 c 0
 613 403.667 576.667 436 504 436 c 0
 465.333 436 431.333 423.667 402 399 c 0
 372.667 374.333 353.667 343 345 305 c 0
 343 293 342 281.667 342 271 c 0
 342 206.333 377.667 174 449 174 c 0
EndSplineSet
EndChar
StartChar: uni0E50
Encoding: 280 3664
OldEncoding: 3664
Width: 817
Flags: W
Fore
794 279 m 0
 775.333 189.667 731 120 661 70 c 0
 594.333 22 514.333 -2 421 -2 c 0
 331 -2 262.667 22 216 70 c 0
 178.667 107.333 160 154.333 160 211 c 0
 160 232.333 162.667 255 168 279 c 0
 186.667 366.333 231.333 434.667 302 484 c 0
 368.667 531.333 448 555 540 555 c 0
 630 555 699.667 531 749 483 c 0
 784.333 449 802 404 802 348 c 0
 802 326 799.333 303 794 279 c 0
700 279 m 0
 704 297.667 706 315.333 706 332 c 0
 706 432.667 645.667 483 525 483 c 0
 378.333 483 290.667 415 262 279 c 0
 258 261 256 244 256 228 c 0
 256 178 274.333 139.333 311 112 c 0
 343.667 88 386 76 438 76 c 0
 503.333 76 560 94 608 130 c 0
 656 166 686.667 215.667 700 279 c 0
EndSplineSet
EndChar
StartChar: uni0E51
Encoding: 281 3665
OldEncoding: 3665
Width: 817
Flags: W
Fore
818 264 m 0
 802 188 772 117 728 51 c 0
 678 -23 618.333 -75.3333 549 -106 c 1
 511 -41 l 1
 619.667 7 690.333 107.333 723 260 c 0
 727 278 729 294.667 729 310 c 0
 729 353.333 715 389.667 687 419 c 0
 649 459 596.667 479 530 479 c 0
 466 479 409.333 462.667 360 430 c 0
 306 394 272.333 345 259 283 c 0
 253.667 258.333 251 235.667 251 215 c 0
 251 153 275.333 110.667 324 88 c 1
 367 80 l 1
 393 80 415.333 85.3333 434 96 c 2
 449 106 l 1
 389 100.667 349 122.667 329 172 c 1
 327 182.667 326 194.333 326 207 c 0
 326 213.667 326.333 221 327 229 c 0
 346.333 317.667 398.333 362 483 362 c 0
 565 362 606 326.333 606 255 c 0
 606 237.667 603.667 219 599 199 c 0
 587 140.333 557.667 92.1667 511 54.5 c 0
 464.333 16.8333 411.333 -2 352 -2 c 0
 220.667 -2 155 59.3333 155 182 c 0
 155 212.667 159 247 167 285 c 0
 185 368.333 231.333 435 306 485 c 0
 375.333 530.333 454.667 553 544 553 c 0
 622 553 686.333 536.333 737 503 c 0
 796.333 463.667 826 407 826 333 c 0
 826 311.667 823.333 288.667 818 264 c 0
459 174 m 0
 504.333 174 527 196.333 527 241 c 0
 527 273 510 289.667 476 291 c 0
 439.333 291.667 416.667 273.333 408 236 c 0
 406.667 228 406 221 406 215 c 0
 406.667 187.667 424.333 174 459 174 c 0
EndSplineSet
EndChar
StartChar: uni0E52
Encoding: 282 3666
OldEncoding: 3666
Width: 817
Flags: W
Fore
812 74 m 1
 789.333 24.6667 747.333 1.73472e-18 686 0 c 2
 184 0 l 2
 126.667 0 98 27.3333 98 82 c 0
 98 96 99.6667 111.667 103 129 c 1
 221 682 l 1
 221.667 686.667 222 691 222 695 c 0
 222 720.333 202.333 734.333 163 737 c 2
 135 739 l 1
 152 819 l 1
 204 815 l 2
 260.667 810.333 296.333 788.667 311 750 c 1
 316.333 739.333 319 727.333 319 714 c 0
 319 705.333 318 696 316 686 c 2
 202 150 l 2
 200 141.333 199 133.333 199 126 c 0
 199 94 215.333 78 248 78 c 2
 683 80 l 2
 710.333 80 729 104.667 739 154 c 1
 791 395 l 2
 793.667 407.667 795 418.667 795 428 c 0
 795 460.667 779.667 477 749 477 c 0
 723 477 699 460.667 677 428 c 1
 654 379 l 1
 588 379 l 1
 591.333 394.333 588.333 412 579 432 c 0
 565 462 543 477 513 477 c 0
 475 477 445.333 456 424 414 c 1
 449 416 l 2
 471 417.333 492 410.333 512 395 c 0
 540 373.667 549 339.667 539 293 c 0
 533.667 267 523.667 245 509 227 c 1
 485 190.333 445.667 172 391 172 c 0
 345.667 172 314.667 190.667 298 228 c 0
 284.667 259.333 282.667 297.333 292 342 c 0
 303.333 394.667 328.667 442.333 368 485 c 0
 411.333 531.667 458.333 555 509 555 c 0
 557 555 594 542.667 620 518 c 1
 643 481 l 1
 660 506 l 1
 688 538.667 726.333 555 775 555 c 0
 819.667 555 851.333 540.333 870 511 c 0
 888.667 481.667 893.333 445 884 401 c 1
 812 74 l 1
405 240 m 0
 440.333 240 462 257.667 470 293 c 0
 471.333 299.667 472 305.667 472 311 c 0
 472 335.667 457.333 348 428 348 c 0
 392.667 348 371 329.667 363 293 c 0
 361.667 287 361 281.333 361 276 c 0
 361 252 375.667 240 405 240 c 0
EndSplineSet
EndChar
StartChar: uni0E53
Encoding: 283 3667
OldEncoding: 3667
Width: 817
Flags: W
Fore
825 0 m 1
 735 0 l 1
 810 352 l 2
 814 370.667 816 387 816 401 c 0
 816 450.333 792.667 475 746 475 c 0
 712.667 475 683.167 462.333 657.5 437 c 0
 631.833 411.667 615.667 382 609 348 c 1
 535 0 l 1
 442 0 l 1
 517 350 l 2
 519 360 520 369.667 520 379 c 0
 520 441.667 480.667 473 402 473 c 0
 343.333 473 296 434 260 356 c 1
 238 283 l 1
 233 238 l 1
 264 250 l 1
 298 254 l 1
 339 248 l 2
 364.333 244 382 227.667 392 199 c 0
 400.667 175 402 148.333 396 119 c 0
 388 82.3333 369.5 52.6667 340.5 30 c 0
 311.5 7.33333 278.333 -4 241 -4 c 1
 211 0 l 1
 151 15.3333 121 61.3333 121 138 c 0
 121 173.333 126 214.667 136 262 c 0
 153.333 343.333 184 410 228 462 c 0
 280.667 524 345 555 421 555 c 0
 480.333 555 526 538 558 504 c 0
 568.667 492.667 578 475.667 586 453 c 1
 622 521 679.667 555 759 555 c 0
 803.667 555 839.667 543.333 867 520 c 0
 895 494.667 909 460.333 909 417 c 0
 909 402.333 907.333 387 904 371 c 2
 825 0 l 1
256 68 m 1
 290 68 314 87 328 125 c 1
 328.667 130.333 329 135.333 329 140 c 0
 329 169.333 313 184 281 184 c 0
 247 184 223 164.333 209 125 c 0
 208.333 121 208 116.667 208 112 c 0
 208 102.667 210 93.3333 214 84 c 1
 220.667 76 234.667 70.6667 256 68 c 1
EndSplineSet
EndChar
StartChar: uni0E54
Encoding: 284 3668
OldEncoding: 3668
Width: 817
Flags: W
Fore
1114 829 m 1
 1103.33 777 1077.83 721.667 1037.5 663 c 0
 997.167 604.333 954.667 560.667 910 532 c 0
 847.333 492.667 773 474.333 687 477 c 2
 549 481 l 1
 483 479 l 2
 461.667 478.333 442.333 475 425 469 c 1
 310.333 441.667 242 376 220 272 c 0
 208.667 220 211.667 175.667 229 139 c 0
 248.333 97 284.667 76 338 76 c 1
 437 90 l 1
 480 92 l 1
 503 92 l 2
 487 92 461.667 104.333 427 129 c 0
 381.667 161 359 202 359 252 c 1
 362 276 l 2
 366.667 312.667 383.833 344.167 413.5 370.5 c 0
 443.167 396.833 476.333 410 513 410 c 0
 591 410 630 376.667 630 310 c 0
 630 300 628.667 289.667 626 279 c 2
 621 260 l 1
 609 223.333 581.333 196 538 178 c 1
 553 162 l 2
 565.667 148 590 137.667 626 131 c 2
 750 109 l 1
 799 88 l 1
 835 63 l 1
 772 -8 l 1
 705 23 l 1
 671.667 32.3333 642.667 37 618 37 c 0
 590.667 37 554.333 33 509 25 c 0
 403 5.66667 339 -4 317 -4 c 0
 247.667 -4 195.667 17.6667 161 61 c 0
 141 85.6667 127.333 117.667 120 157 c 0
 116.667 177.667 115 197.333 115 216 c 0
 115 232.667 116.667 248.667 120 264 c 0
 140 358.667 190.667 433.667 272 489 c 0
 348.667 541 436.333 565.667 535 563 c 2
 613 561 l 1
 650 561 l 2
 662 561 676 559.667 692 557 c 1
 743.333 557 787 563 823 575 c 0
 851 585 880 606.333 910 639 c 0
 975.333 710.333 1016.33 784.667 1033 862 c 1
 1114 829 l 1
489 229 m 0
 517.667 229 538.667 247 552 283 c 1
 552.667 288.333 553 293.333 553 298 c 0
 553 327.333 537 342 505 342 c 0
 469.667 342 448.333 325 441 291 c 0
 439 283.667 438 277 438 271 c 0
 438 243 455 229 489 229 c 0
EndSplineSet
EndChar
StartChar: uni0E55
Encoding: 285 3669
OldEncoding: 3669
Width: 817
Flags: W
Fore
1059 887 m 1
 1046.33 848.333 1029.67 814.667 1009 786 c 1
 1005 778.667 991.333 760.333 968 731 c 1
 945 709 l 1
 956 680 l 1
 958.667 666.667 960 653.667 960 641 c 0
 960 630.333 959 620 957 610 c 1
 942 569 l 1
 922 524.333 886.333 495 835 481 c 0
 793.667 469.667 757.333 465 726 467 c 2
 516 479 l 1
 470 477 l 1
 421 469 l 2
 370.333 460.333 325.333 437.833 286 401.5 c 0
 246.667 365.167 221.667 322 211 272 c 0
 199.667 218 202.667 173.333 220 138 c 0
 240 96.6667 277 76 331 76 c 1
 431 90 l 1
 472 92 l 1
 495 92 l 2
 465.667 92 432 111.333 394 150 c 0
 366 178 352.333 212 353 252 c 1
 356 279 l 1
 363.333 333.667 393.667 373.667 447 399 c 0
 461.667 406.333 480.333 410 503 410 c 0
 598.333 410 637 367.667 619 283 c 1
 612 260 l 2
 600.667 222.667 573 195.333 529 178 c 1
 544 162 l 2
 557.333 148 582 137.667 618 131 c 2
 744 109 l 2
 750 107.667 766 99.3333 792 84 c 2
 827 63 l 1
 764 -8 l 1
 697 23 l 1
 663.667 32.3333 634.667 37 610 37 c 0
 576 37 525.667 30.1667 459 16.5 c 0
 392.333 2.83333 342 -4 308 -4 c 0
 237.333 -4 183.667 20 147 68 c 0
 119.667 104 106 147 106 197 c 0
 106 218.333 108.333 240.667 113 264 c 0
 133.667 358.667 183.667 433.333 263 488 c 0
 339.667 541.333 427 565.667 525 561 c 2
 734 551 l 2
 808 547 849.333 564.667 858 604 c 1
 859 618 l 1
 860 635 l 1
 820 612 l 1
 784 597.333 752.333 590 725 590 c 0
 671.667 590 635.667 605.667 617 637 c 0
 603.667 659 599.333 681.667 604 705 c 0
 615.333 756.333 653.333 792.333 718 813 c 1
 750 819 l 1
 779 821 l 2
 813.667 823.667 848.667 815 884 795 c 1
 901 780 l 1
 917 797 l 1
 953 850 l 1
 964.333 873.333 972.667 896.667 978 920 c 1
 1059 887 l 1
842 713 m 1
 830 734.333 805.667 745 769 745 c 0
 723.667 745 698.333 733 693 709 c 0
 690.333 696.333 694.333 686 705 678 c 1
 751 670 l 1
 785 670 815.333 684.333 842 713 c 1
481 229 m 1
 515 229 536.333 246.333 545 281 c 0
 547 288.333 548 295.333 548 302 c 0
 548 328.667 531 342 497 342 c 0
 462.333 342 441.667 325 435 291 c 0
 433.667 285 433 279.333 433 274 c 0
 433 264 435 254.667 439 246 c 1
 445.667 237.333 459.667 231.667 481 229 c 1
EndSplineSet
EndChar
StartChar: uni0E56
Encoding: 286 3670
OldEncoding: 3670
Width: 817
Flags: W
Fore
814 313 m 2
 808 274 l 2
 795.333 194 756.833 128.333 692.5 77 c 0
 628.167 25.6667 555 1.73472e-18 473 0 c 0
 417.667 0 369.667 10 329 30 c 0
 277 56 251 94 251 144 c 0
 251 154.667 252.333 166 255 178 c 0
 274.333 268 324.333 313 405 313 c 0
 480.333 313 518 279 518 211 c 0
 518 168.333 503.667 132.667 475 104 c 1
 443 82 l 1
 476 80 l 2
 532.667 76 587 97.6667 639 145 c 0
 679.667 182.333 706 229 718 285 c 0
 727.333 329 723.667 367 707 399 c 0
 679.667 453.667 631.667 481 563 481 c 1
 502 475 l 1
 428 459 368.667 417.333 324 350 c 1
 298 350 l 1
 319 481 l 2
 327.667 533.667 325 598 311 674 c 1
 290 745 l 2
 284 764.333 271.333 789.667 252 821 c 1
 343 870 l 1
 376.333 813.333 396 756 402 698 c 1
 410 629 l 1
 414 591 412 552.667 404 514 c 1
 454 542 513.333 557.667 582 561 c 1
 582 561 595 561 621 561 c 0
 687 561 737.667 538.667 773 494 c 0
 803 454.667 818 409.333 818 358 c 0
 818 344 816.667 329 814 313 c 2
400 244 m 1
 359.333 244 334.333 223.333 325 182 c 0
 323.667 175.333 323 169.333 323 164 c 0
 323.667 139.333 339.667 127 371 127 c 0
 411.667 127 436.667 147.333 446 188 c 0
 446.667 193.333 447 198 447 202 c 0
 447 225.333 431.333 239.333 400 244 c 1
EndSplineSet
EndChar
StartChar: uni0E57
Encoding: 287 3671
OldEncoding: 3671
Width: 817
Flags: W
Fore
1123 805 m 1
 1049 743.667 1004.33 676.667 989 604 c 1
 968 508 l 1
 946 404.667 926.333 331 909 287 c 0
 832.333 94.3333 689.667 -2 481 -2 c 1
 537 72 l 2
 571.667 116.667 598.333 161 617 205 c 2
 646 272 l 1
 671 354 l 1
 675.667 375.333 678 394 678 410 c 0
 678 457.333 658 481 618 481 c 0
 580 481 547 457.333 519 410 c 1
 491 336 l 1
 415 336 l 1
 418.333 350.667 420 365.333 420 380 c 0
 420 389.333 419.333 398.667 418 408 c 0
 412 456.667 386.667 481 342 481 c 0
 275.333 481 220.333 428.667 177 324 c 0
 169.667 306 164.667 288.667 162 272 c 2
 156 233 l 1
 158 215 l 1
 180 239.667 213.333 252 258 252 c 0
 286.667 252 310 242.5 328 223.5 c 0
 346 204.5 355 180.667 355 152 c 0
 355 142.667 354 133 352 123 c 0
 341.333 73.6667 310.333 34.6667 259 6 c 1
 241 -2 219.667 -6 195 -6 c 0
 149.667 -6 117 7 97 33 c 0
 81.6667 53 70.6667 87 64 135 c 0
 58 173 60.3333 217.333 71 268 c 0
 95 379.333 150 464 236 522 c 0
 270.667 545.333 311.333 557 358 557 c 0
 418 557 458.333 527.667 479 469 c 1
 525 527.667 581 557 647 557 c 0
 723 557 761.333 512.333 762 423 c 0
 762 392.333 757.667 356.333 749 315 c 0
 733 239 694 164 632 90 c 1
 678 117 l 2
 726.667 144.333 770 196.667 808 274 c 1
 814.667 293.333 826.333 322.667 843 362 c 1
 866 451 l 1
 891 567 l 1
 907.667 647 939 711.333 985 760 c 2
 1027 805 l 1
 1123 805 l 1
213 68 m 1
 248.333 68 270 86.3333 278 123 c 0
 279.333 129 280 134.333 280 139 c 0
 280 164.333 264.333 178.667 233 182 c 1
 196.333 182 174 163.667 166 127 c 0
 165.333 121.667 165 116.667 165 112 c 0
 165 86.6667 181 72 213 68 c 1
EndSplineSet
EndChar
StartChar: uni0E58
Encoding: 288 3672
OldEncoding: 3672
Width: 817
Flags: W
Fore
1031 815 m 1
 1027 774 l 1
 1017 711 l 1
 1007.67 646.333 984.667 591.667 948 547 c 0
 896.667 485 822.333 456.333 725 461 c 2
 589 467 l 1
 476 475 l 2
 418 479 367.5 466.667 324.5 438 c 0
 281.5 409.333 252.667 367 238 311 c 2
 228 272 l 2
 218 234.667 219.667 201.333 233 172 c 1
 235 162.667 243 154.333 257 147 c 1
 282 207 l 1
 306.667 246.333 336.667 266 372 266 c 0
 388 266 443.333 221 538 131 c 0
 575.333 95.6667 616 78 660 78 c 0
 668 78 676.667 84 686 96 c 1
 694 113 l 1
 671.333 111.667 648.333 113.667 625 119 c 1
 583.667 134.333 563 162.667 563 204 c 0
 563 214.667 564.333 226 567 238 c 0
 574.333 274.667 592.5 305 621.5 329 c 0
 650.5 353 683.667 365 721 365 c 0
 799 365 838 329.333 838 258 c 0
 838 240.667 835.667 221.667 831 201 c 0
 819.667 147.667 799.333 102.333 770 65 c 0
 734 20.3333 691.667 -2 643 -2 c 0
 591.667 -2 543.667 17 499 55 c 2
 362 172 l 1
 346 168 335.333 150.333 330 119 c 2
 322 72 l 1
 325 35 l 1
 335 -2 l 1
 215 -2 147.667 62 133 190 c 0
 129.667 215.333 131.333 243.333 138 274 c 0
 153.333 345.333 190.667 408 250 462 c 0
 309.333 516 374.667 545 446 549 c 2
 486 551 l 1
 513 553 l 1
 729 541 l 2
 809 536.333 864.667 563.667 896 623 c 0
 910 648.333 921 679.667 929 717 c 1
 939 766 l 1
 938.333 774 938 779.333 938 782 c 0
 940 790 941 796.667 941 802 c 0
 941 807.333 940.333 811.667 939 815 c 1
 1031 815 l 1
690 182 m 0
 726.667 182 749 200.667 757 238 c 0
 758.333 244 759 249.333 759 254 c 0
 759 278.667 744 291.667 714 293 c 0
 682.667 294.333 659.333 276 644 238 c 1
 642.667 231.333 642 225 642 219 c 0
 642.667 194.333 658.667 182 690 182 c 0
EndSplineSet
EndChar
StartChar: uni0E59
Encoding: 289 3673
OldEncoding: 3673
Width: 817
Flags: W
Fore
926 645 m 2
 906 508.333 860.667 430.667 790 412 c 1
 757.333 407.333 724.667 417.333 692 442 c 0
 677.333 453.333 666.667 458.333 660 457 c 0
 651.333 453 645 445.333 641 434 c 1
 636.333 412 641.333 381.333 656 342 c 2
 685 266 l 1
 775 41 l 1
 690 0 l 1
 663 66 l 1
 597 236 l 2
 576.333 288 552 343.667 524 403 c 1
 493.333 452.333 455 477 409 477 c 0
 327 477 269.333 398.667 236 242 c 0
 226.667 200 228 162.333 240 129 c 0
 254.667 89.6667 281.333 70 320 70 c 0
 350 70 374.667 79.3333 394 98 c 1
 405 113 l 1
 369 106 l 1
 353.667 106 342.333 107.667 335 111 c 1
 310 131 l 2
 289.333 148.333 284 179.667 294 225 c 0
 311.333 308.333 357 350 431 350 c 0
 479.667 350 509.333 329.667 520 289 c 0
 526 265.667 525 235.667 517 199 c 0
 505 142.333 482.333 95.6667 449 59 c 0
 410.333 17 364 -4 310 -4 c 0
 232.667 -4 181.667 27.6667 157 91 c 0
 136.333 142.333 134.333 207 151 285 c 0
 167 359.667 197.333 422 242 472 c 0
 293.333 528.667 354.667 557 426 557 c 0
 499.333 557 548.667 527 574 467 c 1
 585.333 519 609 549 645 557 c 0
 661.667 561 685.167 552.833 715.5 532.5 c 0
 745.833 512.167 767.333 502 780 502 c 1
 789.333 504.667 798 516.333 806 537 c 1
 826 610 l 1
 837 662 l 2
 844.333 696 848.333 731.333 849 768 c 1
 851.667 778 853 789 853 801 c 0
 853 809 852.333 817 851 825 c 1
 948 825 l 1
 939 735 l 1
 926 645 l 2
393 172 m 1
 407.667 172 420.667 178 432 190 c 1
 449 223 l 1
 450.333 230.333 451 237 451 243 c 0
 451 267 438.667 279 414 279 c 0
 384.667 279 366.333 260.333 359 223 c 0
 357.667 217 357 211.667 357 207 c 0
 357 195.667 360 186.667 366 180 c 1
 393 172 l 1
EndSplineSet
EndChar
StartChar: uni0E5A
Encoding: 290 3674
OldEncoding: 3674
Width: 836
Flags: W
Fore
358 758 m 0
 325.333 758.667 299.333 736.667 280 692 c 0
 279.333 688.667 279 685 279 681 c 0
 279 650.333 296 632.333 330 627 c 1
 350.667 627 368.333 633 383 645 c 1
 393.667 657.667 402.333 673.333 409 692 c 0
 411 699.333 412 706 412 712 c 0
 412 742 394 757.333 358 758 c 0
715 772 m 1
 768 801 l 2
 780.667 807.667 796 812.333 814 815 c 1
 862 815 894.333 799.333 911 768 c 0
 915.667 758.667 918.333 743 919 721 c 1
 915 682 l 1
 811 190 l 1
 791.667 100 737 39.3333 647 8 c 1
 599 -4 l 1
 573 68 l 1
 601 74 l 2
 614.333 76.6667 625.667 81.3333 635 88 c 2
 676 117 l 2
 689.333 127.667 698.667 140 704 154 c 1
 815 676 l 1
 817 683.333 818 689.667 818 695 c 0
 818 701 816.667 705.667 814 709 c 0
 808.667 721 795 727 773 727 c 0
 748.333 727 727.667 716.667 711 696 c 1
 606 201 l 1
 594.667 146.333 569.333 99.6667 530 61 c 0
 487.333 19 439.667 -2 387 -2 c 1
 361 70 l 1
 392.333 70 426.333 85 463 115 c 0
 485.667 133.667 501.333 163 510 203 c 2
 577 516 l 1
 516.333 432.667 444.667 391 362 391 c 0
 236 391 173 455 173 583 c 0
 173 609 176.333 637.333 183 668 c 1
 195.667 708.667 220 744 256 774 c 0
 292 804 331 819 373 819 c 0
 395 819 410.667 816.333 420 811 c 1
 458.667 801.667 478 776 478 734 c 0
 478 722.667 476.667 710 474 696 c 0
 466 659.333 447.667 628 419 602 c 0
 390.333 576 357.333 563 320 563 c 0
 298.667 563 279.333 568 262 578 c 1
 263 553 l 1
 268 520 l 1
 273.333 505.333 280.667 494.333 290 487 c 1
 334 471 l 1
 374 467 l 1
 402.667 467 430.667 476.667 458 496 c 1
 498 532 l 1
 546 592 l 2
 562.667 613.333 577 639.333 589 670 c 1
 621 780 l 1
 629.667 804.667 647 817 673 817 c 0
 687 817 696.667 814.333 702 809 c 1
 711 791 l 1
 715 772 l 1
EndSplineSet
EndChar
StartChar: uni0E5B
Encoding: 291 3675
OldEncoding: 3675
Width: 1477
Flags: W
Fore
1537 381 m 1
 1525 326 l 1
 1231 319 l 1
 1219.67 322.333 1208.67 328 1198 336 c 1
 1180 356 l 1
 1173 373 l 1
 1162 391 l 1
 1046 172 l 1
 1029 391 l 1
 896 121 l 1
 882 399 l 1
 774 133 l 1
 739 133 l 1
 732 465 l 1
 702.667 399.667 676.333 347 653 307 c 0
 612.333 237.667 579 190 553 164 c 0
 485.667 96.6667 410.333 63 327 63 c 0
 242.333 63 181.667 99.3333 145 172 c 0
 124.333 212.667 114 258.333 114 309 c 0
 114 338.333 117.333 369 124 401 c 0
 141.333 483.667 176.667 557 230 621 c 0
 291.333 694.333 360.667 731 438 731 c 0
 508 731 557 706 585 656 c 0
 610.333 611.333 615.667 554.333 601 485 c 0
 587.667 423.667 562.333 370 525 324 c 0
 481.667 269.333 431 242 373 242 c 0
 331.667 242 300.667 260.333 280 297 c 1
 270 323.667 265 348.667 265 372 c 0
 265 410 279.667 444 309 474 c 0
 330.333 496.667 353.333 508 378 508 c 0
 423.333 508 446 480.333 446 425 c 0
 446 377.667 425.333 339.667 384 311 c 1
 411.333 311 440.667 327.333 472 360 c 1
 502 400 522 442.333 532 487 c 0
 536.667 510.333 539 531 539 549 c 0
 539 622.333 500.333 659 423 659 c 0
 370.333 659 320.333 628 273 566 c 0
 232.333 512.667 205.667 457 193 399 c 0
 179 333 183.667 274.333 207 223 c 0
 233.667 164.333 278.667 135 342 135 c 0
 422.667 135 494 181.333 556 274 c 0
 578 308 624 395.667 694 537 c 2
 762 676 l 1
 795 676 l 1
 800 365 l 1
 906 618 l 1
 940 618 l 1
 950 367 l 1
 1073 616 l 1
 1094 387 l 1
 1181 557 l 1
 1216 451 l 2
 1230 408.333 1247.67 385 1269 381 c 1
 1352 379 l 1
 1537 381 l 1
378 431 m 0
 376 439.667 371.667 444 365 444 c 1
 355.667 438.667 349 433.333 345 428 c 1
 331 399 l 1
 329.667 393 329 387.667 329 383 c 0
 329 368.333 335 360 347 358 c 1
 354.333 360.667 359.667 364.333 363 369 c 1
 378 401 l 1
 379.333 407 380 412.333 380 417 c 0
 380 422.333 379.333 427 378 431 c 0
EndSplineSet
EndChar
StartChar: endash
Encoding: 293 8211
OldEncoding: 8211
Width: 733
Flags: W
Fore
772 344 m 1
 128 344 l 1
 148 436 l 1
 791 436 l 1
 772 344 l 1
EndSplineSet
EndChar
StartChar: emdash
Encoding: 294 8212
OldEncoding: 8212
Width: 948
Flags: W
Fore
984 344 m 1
 128 344 l 1
 148 436 l 1
 1004 436 l 1
 984 344 l 1
EndSplineSet
EndChar
StartChar: quoteleft
Encoding: 295 8216
OldEncoding: 8216
Width: 358
Flags: W
Fore
418 907 m 1
 372.667 899 336.667 870.333 310 821 c 1
 296 786 l 1
 322 791 l 1
 371.333 791 396 766.667 396 718 c 0
 396 710.667 395.333 703.333 394 696 c 0
 384 651.333 359 621.333 319 606 c 0
 308.333 602 292 598.667 270 596 c 1
 233.333 596 207.667 613 193 647 c 0
 190.333 655.667 189 665.667 189 677 c 0
 189 690.333 190.667 705 194 721 c 0
 222 852.333 300.333 932.333 429 961 c 1
 418 907 l 1
EndSplineSet
EndChar
StartChar: quoteright
Encoding: 296 8217
OldEncoding: 8217
Width: 373
Flags: W
Fore
469 924 m 1
 471 913.333 472 902.333 472 891 c 0
 472 849.667 458 803.333 430 752 c 0
 406.667 708.667 364.333 669.667 303 635 c 0
 283.667 623.667 259.333 614.667 230 608 c 1
 241 662 l 1
 263.667 666 291.333 683 324 713 c 1
 332.667 722.333 342.667 737.333 354 758 c 1
 363 782 l 1
 337 778 l 1
 287.667 778 263 802.333 263 851 c 0
 263 858.333 264 866 266 874 c 0
 276 922.667 299.333 952.333 336 963 c 2
 364 971 l 1
 391 973 l 2
 424.333 975.667 450.333 959.333 469 924 c 1
EndSplineSet
EndChar
StartChar: quotesinglbase
Encoding: 297 8218
OldEncoding: 8218
Width: 297
Flags: W
Fore
81 0 m 1
 110 136 l 1
 236 136 l 1
 213 29 l 2
 190.333 -77.6667 139.667 -146.333 61 -177 c 1
 42 -131 l 1
 94.6667 -110.333 128 -66.6667 142 0 c 1
 81 0 l 1
EndSplineSet
EndChar
StartChar: quotedblleft
Encoding: 298 8220
OldEncoding: 8220
Width: 647
Flags: W
Fore
747 903 m 1
 737 900.333 725 895 711 887 c 1
 669 854 l 1
 655.667 840.667 643.667 822.333 633 799 c 2
 625 782 l 1
 653 786 l 1
 702.333 786 727 762.333 727 715 c 0
 727 708.333 726.333 701.333 725 694 c 0
 715 648 691.667 618 655 604 c 0
 632.333 596 613 592 597 592 c 0
 577.667 592 560.667 596 546 604 c 1
 526.667 621.333 517 647.667 517 683 c 0
 517 693 518.333 703.667 521 715 c 0
 533 773.667 560.833 825.167 604.5 869.5 c 0
 648.167 913.833 699.333 942.667 758 956 c 1
 747 903 l 1
441 907 m 1
 430.333 904.333 418 899 404 891 c 1
 363 858 l 1
 349.667 845.333 337.333 827 326 803 c 1
 319 786 l 1
 344 791 l 1
 394.667 791 420 766.333 420 717 c 0
 420 709.667 419.333 702 418 694 c 0
 408.667 652 385.333 622.667 348 606 c 1
 293 596 l 1
 255.667 596 229.667 613 215 647 c 0
 213 653.667 212 661.667 212 671 c 0
 212 684.333 214 700.333 218 719 c 0
 246 849.667 324 930.333 452 961 c 1
 441 907 l 1
EndSplineSet
EndChar
StartChar: quotedblright
Encoding: 299 8221
OldEncoding: 8221
Width: 711
Flags: W
Fore
785 920 m 0
 788.333 908.667 790 896.667 790 884 c 0
 790 871.333 788.667 858 786 844 c 0
 758 714 679.333 634 550 604 c 1
 562 657 l 1
 584.667 661.667 612 679 644 709 c 0
 652.667 718.333 662.667 733.333 674 754 c 1
 684 778 l 1
 658 774 l 1
 637.333 774 619.5 781 604.5 795 c 0
 589.5 809 582 826 582 846 c 0
 582 853.333 582.667 861.333 584 870 c 0
 594 914.667 616 943.333 650 956 c 0
 663.333 961.333 683.333 965.667 710 969 c 1
 746.667 969 771.667 952.667 785 920 c 0
483 924 m 1
 485.667 913.333 487 902.333 487 891 c 0
 487 848.333 473.333 804 446 758 c 0
 399.333 678.667 332 628.667 244 608 c 1
 255 662 l 1
 265.667 664.667 278 670 292 678 c 1
 333 709 l 1
 345 719.667 357.333 738.667 370 766 c 2
 377 782 l 1
 352 778 l 1
 331.333 778 313.333 785 298 799 c 0
 282.667 813 275 830 275 850 c 0
 275 858 276 866 278 874 c 0
 287.333 916.667 310.667 946.333 348 963 c 1
 360 967 379 970.333 405 973 c 1
 441 973 467 956.667 483 924 c 1
EndSplineSet
EndChar
StartChar: quotedblbase
Encoding: 300 8222
OldEncoding: 8222
Width: 445
Flags: W
Fore
57 0 m 1
 86 136 l 1
 212 136 l 1
 189 29 l 2
 166.333 -77.6667 115.667 -146.333 37 -177 c 1
 18 -131 l 1
 70.6667 -110.333 104 -66.6667 118 0 c 1
 57 0 l 1
259 0 m 1
 288 136 l 1
 414 136 l 1
 391 29 l 1
 369 -76.3333 318.333 -145 239 -177 c 1
 221 -131 l 1
 273 -110.333 306 -66.6667 320 0 c 1
 259 0 l 1
EndSplineSet
EndChar
StartChar: dagger
Encoding: 301 8224
OldEncoding: 8224
Width: 743
Flags: W
Fore
260 -226 m 1
 428 565 l 1
 168 565 l 1
 190 670 l 1
 450 670 l 1
 507 935 l 1
 625 935 l 1
 568 670 l 1
 830 670 l 1
 808 565 l 1
 546 565 l 1
 378 -226 l 1
 260 -226 l 1
EndSplineSet
EndChar
StartChar: daggerdbl
Encoding: 302 8225
OldEncoding: 8225
Width: 743
Flags: W
Fore
262 -226 m 1
 313 16 l 1
 51 16 l 1
 74 121 l 1
 336 121 l 1
 436 594 l 1
 174 594 l 1
 197 699 l 1
 459 699 l 1
 511 944 l 1
 629 944 l 1
 577 699 l 1
 840 699 l 1
 817 594 l 1
 554 594 l 1
 454 121 l 1
 717 121 l 1
 694 16 l 1
 431 16 l 1
 380 -226 l 1
 262 -226 l 1
EndSplineSet
EndChar
StartChar: bullet
Encoding: 303 8226
OldEncoding: 8226
Width: 707
Flags: W
Fore
390 131 m 0
 326 131 277.333 152.333 244 195 c 0
 220.667 225 209 260.333 209 301 c 0
 209 317.667 211 335.333 215 354 c 0
 229 420.667 260.667 475 310 517 c 0
 359.333 559 418 580 486 580 c 0
 540 580 583.833 565.333 617.5 536 c 0
 651.167 506.667 668 465.333 668 412 c 0
 668 394 665.667 374.667 661 354 c 0
 647 287.333 615.333 233.5 566 192.5 c 0
 516.667 151.5 458 131 390 131 c 0
EndSplineSet
EndChar
StartChar: ellipsis
Encoding: 304 8230
OldEncoding: 8230
Width: 762
Flags: W
Fore
653 0 m 0
 607.667 0 587.333 26 592 78 c 1
 603.333 131.333 635 158 687 158 c 0
 729.667 158 751 140 751 104 c 0
 751 96 750 87.3333 748 78 c 0
 736.667 26 705 0 653 0 c 0
401 0 m 0
 355.667 0 335.333 26 340 78 c 1
 351.333 131.333 383 158 435 158 c 0
 477.667 158 499 140 499 104 c 0
 499 96 498 87.3333 496 78 c 0
 484.667 26 453 0 401 0 c 0
152 0 m 0
 106 0 85.3333 26 90 78 c 1
 101.333 131.333 133 158 185 158 c 0
 227.667 158 249 140 249 104 c 0
 249 96 248 87.3333 246 78 c 0
 234.667 26 203.333 0 152 0 c 0
EndSplineSet
EndChar
